<svg viewBox="0 0 642.5390625 399.984375" xmlns="http://www.w3.org/2000/svg"><g><g><g><g><g><line x1="70" y1="377.984" x2="65" y2="377.984" style="visibility: inherit;" fill="rgb(0, 0, 0)" stroke="rgb(204, 204, 204)" stroke-width="1px"></line><line x1="70" y1="335.98577777777774" x2="65" y2="335.98577777777774" style="visibility: inherit;" fill="rgb(0, 0, 0)" stroke="rgb(204, 204, 204)" stroke-width="1px"></line><line x1="70" y1="293.98755555555556" x2="65" y2="293.98755555555556" style="visibility: inherit;" fill="rgb(0, 0, 0)" stroke="rgb(204, 204, 204)" stroke-width="1px"></line><line x1="70" y1="251.98933333333332" x2="65" y2="251.98933333333332" style="visibility: inherit;" fill="rgb(0, 0, 0)" stroke="rgb(204, 204, 204)" stroke-width="1px"></line><line x1="70" y1="209.9911111111111" x2="65" y2="209.9911111111111" style="visibility: inherit;" fill="rgb(0, 0, 0)" stroke="rgb(204, 204, 204)" stroke-width="1px"></line><line x1="70" y1="167.99288888888887" x2="65" y2="167.99288888888887" style="visibility: inherit;" fill="rgb(0, 0, 0)" stroke="rgb(204, 204, 204)" stroke-width="1px"></line><line x1="70" y1="125.99466666666666" x2="65" y2="125.99466666666666" style="visibility: inherit;" fill="rgb(0, 0, 0)" stroke="rgb(204, 204, 204)" stroke-width="1px"></line><line x1="70" y1="83.99644444444442" x2="65" y2="83.99644444444442" style="visibility: inherit;" fill="rgb(0, 0, 0)" stroke="rgb(204, 204, 204)" stroke-width="1px"></line><line x1="70" y1="41.99822222222224" x2="65" y2="41.99822222222224" style="visibility: inherit;" fill="rgb(0, 0, 0)" stroke="rgb(204, 204, 204)" stroke-width="1px"></line><line x1="70" y1="0" x2="65" y2="0" style="visibility: inherit;" fill="rgb(0, 0, 0)" stroke="rgb(204, 204, 204)" stroke-width="1px"></line></g><g transform="translate(60, 0)"><text x="0" y="377.984" dx="0em" dy="0.3em" style="text-anchor: end; visibility: hidden; font-family: &quot;Helvetica Neue&quot;, sans-serif; font-size: 12px; font-weight: 200;" fill="rgb(50, 49, 63)" stroke="none" stroke-width="1px">0.7</text><text x="0" y="335.98577777777774" dx="0em" dy="0.3em" style="text-anchor: end; visibility: inherit; font-family: &quot;Helvetica Neue&quot;, sans-serif; font-size: 12px; font-weight: 200;" fill="rgb(50, 49, 63)" stroke="none" stroke-width="1px">0.705</text><text x="0" y="293.98755555555556" dx="0em" dy="0.3em" style="text-anchor: end; visibility: inherit; font-family: &quot;Helvetica Neue&quot;, sans-serif; font-size: 12px; font-weight: 200;" fill="rgb(50, 49, 63)" stroke="none" stroke-width="1px">0.71</text><text x="0" y="251.98933333333332" dx="0em" dy="0.3em" style="text-anchor: end; visibility: inherit; font-family: &quot;Helvetica Neue&quot;, sans-serif; font-size: 12px; font-weight: 200;" fill="rgb(50, 49, 63)" stroke="none" stroke-width="1px">0.715</text><text x="0" y="209.9911111111111" dx="0em" dy="0.3em" style="text-anchor: end; visibility: inherit; font-family: &quot;Helvetica Neue&quot;, sans-serif; font-size: 12px; font-weight: 200;" fill="rgb(50, 49, 63)" stroke="none" stroke-width="1px">0.72</text><text x="0" y="167.99288888888887" dx="0em" dy="0.3em" style="text-anchor: end; visibility: inherit; font-family: &quot;Helvetica Neue&quot;, sans-serif; font-size: 12px; font-weight: 200;" fill="rgb(50, 49, 63)" stroke="none" stroke-width="1px">0.725</text><text x="0" y="125.99466666666666" dx="0em" dy="0.3em" style="text-anchor: end; visibility: inherit; font-family: &quot;Helvetica Neue&quot;, sans-serif; font-size: 12px; font-weight: 200;" fill="rgb(50, 49, 63)" stroke="none" stroke-width="1px">0.73</text><text x="0" y="83.99644444444442" dx="0em" dy="0.3em" style="text-anchor: end; visibility: inherit; font-family: &quot;Helvetica Neue&quot;, sans-serif; font-size: 12px; font-weight: 200;" fill="rgb(50, 49, 63)" stroke="none" stroke-width="1px">0.735</text><text x="0" y="41.99822222222224" dx="0em" dy="0.3em" style="text-anchor: end; visibility: inherit; font-family: &quot;Helvetica Neue&quot;, sans-serif; font-size: 12px; font-weight: 200;" fill="rgb(50, 49, 63)" stroke="none" stroke-width="1px">0.74</text><text x="0" y="0" dx="0em" dy="0.3em" style="text-anchor: end; visibility: hidden; font-family: &quot;Helvetica Neue&quot;, sans-serif; font-size: 12px; font-weight: 200;" fill="rgb(50, 49, 63)" stroke="none" stroke-width="1px">0.745</text></g><line x1="70" y1="0" x2="70" y2="377.984" fill="rgb(0, 0, 0)" stroke="rgb(204, 204, 204)" stroke-width="1px"></line></g></g><g transform="translate(70, 0)" clip-path="url(#clip_0)"><clipPath id="clip_0"><rect width="572" height="377"></rect></clipPath><g><g><g><line x1="0" y1="0" x2="0" y2="377.984" fill="rgb(0, 0, 0)" stroke="rgb(60, 60, 60)" stroke-width="1px" opacity="0.25"></line><line x1="63.61544444444444" y1="0" x2="63.61544444444444" y2="377.984" fill="rgb(0, 0, 0)" stroke="rgb(60, 60, 60)" stroke-width="1px" opacity="0.25"></line><line x1="127.23088888888888" y1="0" x2="127.23088888888888" y2="377.984" fill="rgb(0, 0, 0)" stroke="rgb(60, 60, 60)" stroke-width="1px" opacity="0.25"></line><line x1="190.84633333333332" y1="0" x2="190.84633333333332" y2="377.984" fill="rgb(0, 0, 0)" stroke="rgb(60, 60, 60)" stroke-width="1px" opacity="0.25"></line><line x1="254.46177777777777" y1="0" x2="254.46177777777777" y2="377.984" fill="rgb(0, 0, 0)" stroke="rgb(60, 60, 60)" stroke-width="1px" opacity="0.25"></line><line x1="318.07722222222225" y1="0" x2="318.07722222222225" y2="377.984" fill="rgb(0, 0, 0)" stroke="rgb(60, 60, 60)" stroke-width="1px" opacity="0.25"></line><line x1="381.69266666666664" y1="0" x2="381.69266666666664" y2="377.984" fill="rgb(0, 0, 0)" stroke="rgb(60, 60, 60)" stroke-width="1px" opacity="0.25"></line><line x1="445.3081111111111" y1="0" x2="445.3081111111111" y2="377.984" fill="rgb(0, 0, 0)" stroke="rgb(60, 60, 60)" stroke-width="1px" opacity="0.25"></line><line x1="508.92355555555554" y1="0" x2="508.92355555555554" y2="377.984" fill="rgb(0, 0, 0)" stroke="rgb(60, 60, 60)" stroke-width="1px" opacity="0.25"></line><line x1="572.539" y1="0" x2="572.539" y2="377.984" fill="rgb(0, 0, 0)" stroke="rgb(60, 60, 60)" stroke-width="1px" opacity="0.25"></line></g><g><line x1="0" y1="377.984" x2="572.539" y2="377.984" fill="rgb(0, 0, 0)" stroke="rgb(60, 60, 60)" stroke-width="1px" opacity="0.25"></line><line x1="0" y1="335.98577777777774" x2="572.539" y2="335.98577777777774" fill="rgb(0, 0, 0)" stroke="rgb(60, 60, 60)" stroke-width="1px" opacity="0.25"></line><line x1="0" y1="293.98755555555556" x2="572.539" y2="293.98755555555556" fill="rgb(0, 0, 0)" stroke="rgb(60, 60, 60)" stroke-width="1px" opacity="0.25"></line><line x1="0" y1="251.98933333333332" x2="572.539" y2="251.98933333333332" fill="rgb(0, 0, 0)" stroke="rgb(60, 60, 60)" stroke-width="1px" opacity="0.25"></line><line x1="0" y1="209.9911111111111" x2="572.539" y2="209.9911111111111" fill="rgb(0, 0, 0)" stroke="rgb(60, 60, 60)" stroke-width="1px" opacity="0.25"></line><line x1="0" y1="167.99288888888887" x2="572.539" y2="167.99288888888887" fill="rgb(0, 0, 0)" stroke="rgb(60, 60, 60)" stroke-width="1px" opacity="0.25"></line><line x1="0" y1="125.99466666666666" x2="572.539" y2="125.99466666666666" fill="rgb(0, 0, 0)" stroke="rgb(60, 60, 60)" stroke-width="1px" opacity="0.25"></line><line x1="0" y1="83.99644444444442" x2="572.539" y2="83.99644444444442" fill="rgb(0, 0, 0)" stroke="rgb(60, 60, 60)" stroke-width="1px" opacity="0.25"></line><line x1="0" y1="41.99822222222224" x2="572.539" y2="41.99822222222224" fill="rgb(0, 0, 0)" stroke="rgb(60, 60, 60)" stroke-width="1px" opacity="0.25"></line><line x1="0" y1="0" x2="572.539" y2="0" fill="rgb(0, 0, 0)" stroke="rgb(60, 60, 60)" stroke-width="1px" opacity="0.25"></line></g></g></g><g><g><line x1="0" y1="6257.735111111106" x2="572.539" y2="6257.735111111106" fill="rgb(0, 0, 0)" stroke="rgb(153, 153, 153)" stroke-width="1.5px"></line></g></g><g><g><line x1="63.61544444444444" y1="0" x2="63.61544444444444" y2="377.984" fill="rgb(0, 0, 0)" stroke="rgb(153, 153, 153)" stroke-width="1.5px"></line></g></g><g><g><g><g><g><path stroke="rgb(51, 187, 238)" stroke-width="2px" d="M63.61544444444444,120.3951493598098L76.33853333333333,120.3951493598098L89.06162222222223,117.53807907706613L101.78471111111111,114.99075983192125L114.5078,114.90598006687651L127.23088888888888,112.50997349824138L139.95397777777777,112.29809789799424L152.67706666666666,112.17483332719587L165.40015555555553,110.9709410767831L178.12324444444445,111.38310178410944L190.84633333333332,111.62879740680461L203.56942222222222,109.53081344784044L216.2925111111111,108.27494968164757L229.0156,105.28098263137679L241.73868888888887,104.60650288748894L254.46177777777777,104.2020180617888L267.18486666666666,101.71907789548624L279.90795555555553,100.22958280147554L292.6310444444444,95.97596329873477L305.3541333333333,93.42395749016254L318.07722222222225,90.77291773539645L330.80031111111106,89.18233110269233L343.5234,84.86795120260945L356.2464888888889,81.15946834304481L368.9695777777778,78.93438987354847L381.69266666666664,77.59934684047573L394.41575555555556,76.79832247812885L407.13884444444443,76.31770838541968L419.8619333333333,76.0293401186857L432.5850222222222,75.85631922664618L445.3081111111111,76.87237828371838L458.0312,77.48201363170512L470.7542888888889,76.72792333669832L483.47737777777775,76.27546918274032L496.20046666666667,77.12386813718439L508.92355555555554,75.39316463887434L521.6466444444444,74.35474255131226L534.3697333333333,72.6116176163286L547.0928222222223,70.44587123771458L559.8159111111111,68.02635172973731" style="fill: none;" fill="none"></path></g><g><path stroke="rgb(204, 51, 17)" stroke-width="2px" d="M63.61544444444444,322.20180676947666L76.33853333333333,314.3461726099647L89.06162222222223,329.347420009483L101.78471111111111,313.9610618265442L114.5078,313.900875737679L127.23088888888888,311.85906513318565L139.95397777777777,309.4650514370523L152.67706666666666,305.6374254139396L165.40015555555553,305.3170266436503L178.12324444444445,302.71835765711904L190.84633333333332,300.44828983867217L203.56942222222222,295.4925789475585L216.2925111111111,290.6084445925045L229.0156,283.12970562679675L241.73868888888887,283.19713132103163L254.46177777777777,292.57706909779444L267.18486666666666,284.55469750128736L279.90795555555553,284.05204369367755L292.6310444444444,283.2716257608314L305.3541333333333,274.4236892042151L318.07722222222225,275.81868909527617L330.80031111111106,271.388679817681L343.5234,275.1948559070314L356.2464888888889,273.64789103398766L368.9695777777778,262.9039918735716L381.69266666666664,264.1187510076064L394.41575555555556,266.7629236911647L407.13884444444443,269.0675695920993L419.8619333333333,271.4080148642481L432.5850222222222,259.88429230302967L445.3081111111111,257.9976669257297L458.0312,256.62617713775694L470.7542888888889,249.81801890242843L483.47737777777775,249.3242427075191L496.20046666666667,243.04291301327513L508.92355555555554,243.34406288539893L521.6466444444444,234.18768460653894L534.3697333333333,245.45247719029925L547.0928222222223,240.0015099538372L559.8159111111111,231.70332375092275" style="fill: none;" fill="none"></path></g></g></g></g><g opacity="0.2"><g><g><g><path stroke="rgb(51, 187, 238)" stroke-width="2px" d="M63.61544444444444,120.3951493598089L76.33853333333333,120.3951493598089L89.06162222222223,114.79529160563135L101.78471111111111,111.99511239963095L114.5078,114.79529160563135L127.23088888888888,109.19543385145386L139.95397777777777,111.99511239963095L152.67706666666666,111.99511239963095L165.40015555555553,109.19543385145386L178.12324444444445,111.99511239963095L190.84633333333332,111.99511239963095L203.56942222222222,106.3952546454534L216.2925111111111,106.3952546454534L229.0156,100.79589754909927L241.73868888888887,103.59557609727636L254.46177777777777,103.59557609727636L267.18486666666666,97.99571834309882L279.90795555555553,97.99571834309882L292.6310444444444,89.59618204074422L305.3541333333333,89.59618204074422L318.07722222222225,86.79650349256713L330.80031111111106,86.79650349256713L343.5234,78.39646653238918L356.2464888888889,75.59678798421214L368.9695777777778,75.59678798421214L381.69266666666664,75.59678798421214L394.41575555555556,75.59678798421214L407.13884444444443,75.59678798421214L419.8619333333333,75.59678798421214L432.5850222222222,75.59678798421214L445.3081111111111,78.39646653238918L458.0312,78.39646653238918L470.7542888888889,75.59678798421214L483.47737777777775,75.59678798421214L496.20046666666667,78.39646653238918L508.92355555555554,72.79710943603504L521.6466444444444,72.79710943603504L534.3697333333333,69.9969302300346L547.0928222222223,67.19725168185755L559.8159111111111,64.3970724758571" style="fill: none;" fill="none"></path></g><g><path stroke="rgb(204, 51, 17)" stroke-width="2px" d="M63.61544444444444,322.20180676947666L76.33853333333333,309.6327921142575L89.06162222222223,343.74861751302046L101.78471111111111,295.8667046034068L114.5078,313.8222967800561L127.23088888888888,309.0345060153534L139.95397777777777,306.041573547363L152.67706666666666,300.05670992702875L165.40015555555553,304.84450069173147L178.12324444444445,298.8596370713973L190.84633333333332,297.0637774590383L203.56942222222222,288.0859813707137L216.2925111111111,283.29819060601096L229.0156,271.9262488064233L241.73868888888887,283.29819060601096L254.46177777777777,306.6403603040904L267.18486666666666,272.5245349053274L279.90795555555553,283.29819060601096L292.6310444444444,282.10111775037944L305.3541333333333,261.15259310573975L318.07722222222225,277.9111124267575L330.80031111111106,264.74381167263425L343.5234,280.904044894748L356.2464888888889,271.3274620496959L368.9695777777778,246.78821949598498L381.69266666666664,265.94088452826577L394.41575555555556,270.72917595079184L407.13884444444443,272.5245349053274L419.8619333333333,274.9186806165904L432.5850222222222,242.59871483018637L445.3081111111111,255.16772948540554L458.0312,254.5689427286781L470.7542888888889,239.60578236219592L483.47737777777775,248.58357845052055L496.20046666666667,233.62091874186174L508.92355555555554,243.79578768581786L521.6466444444444,220.45311732991513L534.3697333333333,262.3496659613712L547.0928222222223,231.8250591295028L559.8159111111111,219.2560444742836" style="fill: none;" fill="none"></path></g></g></g></g></g></g><g transform="translate(70, 377)" clip-path="url(#clip_1)"><clipPath id="clip_1"><rect width="572" height="21"></rect></clipPath><g><g><line x1="0" y1="0" x2="0" y2="5" style="visibility: inherit;" fill="rgb(0, 0, 0)" stroke="rgb(204, 204, 204)" stroke-width="1px"></line><line x1="63.61544444444444" y1="0" x2="63.61544444444444" y2="5" style="visibility: inherit;" fill="rgb(0, 0, 0)" stroke="rgb(204, 204, 204)" stroke-width="1px"></line><line x1="127.23088888888888" y1="0" x2="127.23088888888888" y2="5" style="visibility: inherit;" fill="rgb(0, 0, 0)" stroke="rgb(204, 204, 204)" stroke-width="1px"></line><line x1="190.84633333333332" y1="0" x2="190.84633333333332" y2="5" style="visibility: inherit;" fill="rgb(0, 0, 0)" stroke="rgb(204, 204, 204)" stroke-width="1px"></line><line x1="254.46177777777777" y1="0" x2="254.46177777777777" y2="5" style="visibility: inherit;" fill="rgb(0, 0, 0)" stroke="rgb(204, 204, 204)" stroke-width="1px"></line><line x1="318.07722222222225" y1="0" x2="318.07722222222225" y2="5" style="visibility: inherit;" fill="rgb(0, 0, 0)" stroke="rgb(204, 204, 204)" stroke-width="1px"></line><line x1="381.69266666666664" y1="0" x2="381.69266666666664" y2="5" style="visibility: inherit;" fill="rgb(0, 0, 0)" stroke="rgb(204, 204, 204)" stroke-width="1px"></line><line x1="445.3081111111111" y1="0" x2="445.3081111111111" y2="5" style="visibility: inherit;" fill="rgb(0, 0, 0)" stroke="rgb(204, 204, 204)" stroke-width="1px"></line><line x1="508.92355555555554" y1="0" x2="508.92355555555554" y2="5" style="visibility: inherit;" fill="rgb(0, 0, 0)" stroke="rgb(204, 204, 204)" stroke-width="1px"></line><line x1="572.539" y1="0" x2="572.539" y2="5" style="visibility: inherit;" fill="rgb(0, 0, 0)" stroke="rgb(204, 204, 204)" stroke-width="1px"></line></g><g transform="translate(0, 8)"><text x="0" y="0" dx="0em" dy="0.95em" style="text-anchor: middle; visibility: hidden; font-family: &quot;Helvetica Neue&quot;, sans-serif; font-size: 12px; font-weight: 200;" fill="rgb(50, 49, 63)" stroke="none" stroke-width="1px">-5</text><text x="63.61544444444444" y="0" dx="0em" dy="0.95em" style="text-anchor: middle; visibility: inherit; font-family: &quot;Helvetica Neue&quot;, sans-serif; font-size: 12px; font-weight: 200;" fill="rgb(50, 49, 63)" stroke="none" stroke-width="1px">0</text><text x="127.23088888888888" y="0" dx="0em" dy="0.95em" style="text-anchor: middle; visibility: inherit; font-family: &quot;Helvetica Neue&quot;, sans-serif; font-size: 12px; font-weight: 200;" fill="rgb(50, 49, 63)" stroke="none" stroke-width="1px">5</text><text x="190.84633333333332" y="0" dx="0em" dy="0.95em" style="text-anchor: middle; visibility: inherit; font-family: &quot;Helvetica Neue&quot;, sans-serif; font-size: 12px; font-weight: 200;" fill="rgb(50, 49, 63)" stroke="none" stroke-width="1px">10</text><text x="254.46177777777777" y="0" dx="0em" dy="0.95em" style="text-anchor: middle; visibility: inherit; font-family: &quot;Helvetica Neue&quot;, sans-serif; font-size: 12px; font-weight: 200;" fill="rgb(50, 49, 63)" stroke="none" stroke-width="1px">15</text><text x="318.07722222222225" y="0" dx="0em" dy="0.95em" style="text-anchor: middle; visibility: inherit; font-family: &quot;Helvetica Neue&quot;, sans-serif; font-size: 12px; font-weight: 200;" fill="rgb(50, 49, 63)" stroke="none" stroke-width="1px">20</text><text x="381.69266666666664" y="0" dx="0em" dy="0.95em" style="text-anchor: middle; visibility: inherit; font-family: &quot;Helvetica Neue&quot;, sans-serif; font-size: 12px; font-weight: 200;" fill="rgb(50, 49, 63)" stroke="none" stroke-width="1px">25</text><text x="445.3081111111111" y="0" dx="0em" dy="0.95em" style="text-anchor: middle; visibility: inherit; font-family: &quot;Helvetica Neue&quot;, sans-serif; font-size: 12px; font-weight: 200;" fill="rgb(50, 49, 63)" stroke="none" stroke-width="1px">30</text><text x="508.92355555555554" y="0" dx="0em" dy="0.95em" style="text-anchor: middle; visibility: inherit; font-family: &quot;Helvetica Neue&quot;, sans-serif; font-size: 12px; font-weight: 200;" fill="rgb(50, 49, 63)" stroke="none" stroke-width="1px">35</text><text x="572.539" y="0" dx="0em" dy="0.95em" style="text-anchor: middle; visibility: hidden; font-family: &quot;Helvetica Neue&quot;, sans-serif; font-size: 12px; font-weight: 200;" fill="rgb(50, 49, 63)" stroke="none" stroke-width="1px">40</text></g><line x1="0" y1="0" x2="572.539" y2="0" fill="rgb(0, 0, 0)" stroke="rgb(204, 204, 204)" stroke-width="1px"></line></g></g></g></g></svg>