<svg viewBox="0 0 639.5390625 399.984375" xmlns="http://www.w3.org/2000/svg"><g><g><g><g><g><line x1="58" y1="377.984" x2="53" y2="377.984" style="visibility: inherit;" fill="rgb(0, 0, 0)" stroke="rgb(204, 204, 204)" stroke-width="1px"></line><line x1="58" y1="335.98577777777774" x2="53" y2="335.98577777777774" style="visibility: inherit;" fill="rgb(0, 0, 0)" stroke="rgb(204, 204, 204)" stroke-width="1px"></line><line x1="58" y1="293.98755555555556" x2="53" y2="293.98755555555556" style="visibility: inherit;" fill="rgb(0, 0, 0)" stroke="rgb(204, 204, 204)" stroke-width="1px"></line><line x1="58" y1="251.98933333333332" x2="53" y2="251.98933333333332" style="visibility: inherit;" fill="rgb(0, 0, 0)" stroke="rgb(204, 204, 204)" stroke-width="1px"></line><line x1="58" y1="209.99111111111108" x2="53" y2="209.99111111111108" style="visibility: inherit;" fill="rgb(0, 0, 0)" stroke="rgb(204, 204, 204)" stroke-width="1px"></line><line x1="58" y1="167.99288888888887" x2="53" y2="167.99288888888887" style="visibility: inherit;" fill="rgb(0, 0, 0)" stroke="rgb(204, 204, 204)" stroke-width="1px"></line><line x1="58" y1="125.99466666666666" x2="53" y2="125.99466666666666" style="visibility: inherit;" fill="rgb(0, 0, 0)" stroke="rgb(204, 204, 204)" stroke-width="1px"></line><line x1="58" y1="83.99644444444448" x2="53" y2="83.99644444444448" style="visibility: inherit;" fill="rgb(0, 0, 0)" stroke="rgb(204, 204, 204)" stroke-width="1px"></line><line x1="58" y1="41.99822222222224" x2="53" y2="41.99822222222224" style="visibility: inherit;" fill="rgb(0, 0, 0)" stroke="rgb(204, 204, 204)" stroke-width="1px"></line><line x1="58" y1="0" x2="53" y2="0" style="visibility: inherit;" fill="rgb(0, 0, 0)" stroke="rgb(204, 204, 204)" stroke-width="1px"></line></g><g transform="translate(48, 0)"><text x="0" y="377.984" dx="0em" dy="0.3em" style="text-anchor: end; visibility: hidden; font-family: &quot;Helvetica Neue&quot;, sans-serif; font-size: 12px; font-weight: 200;" fill="rgb(50, 49, 63)" stroke="none" stroke-width="1px">-0.1</text><text x="0" y="335.98577777777774" dx="0em" dy="0.3em" style="text-anchor: end; visibility: inherit; font-family: &quot;Helvetica Neue&quot;, sans-serif; font-size: 12px; font-weight: 200;" fill="rgb(50, 49, 63)" stroke="none" stroke-width="1px">0</text><text x="0" y="293.98755555555556" dx="0em" dy="0.3em" style="text-anchor: end; visibility: inherit; font-family: &quot;Helvetica Neue&quot;, sans-serif; font-size: 12px; font-weight: 200;" fill="rgb(50, 49, 63)" stroke="none" stroke-width="1px">0.1</text><text x="0" y="251.98933333333332" dx="0em" dy="0.3em" style="text-anchor: end; visibility: inherit; font-family: &quot;Helvetica Neue&quot;, sans-serif; font-size: 12px; font-weight: 200;" fill="rgb(50, 49, 63)" stroke="none" stroke-width="1px">0.2</text><text x="0" y="209.99111111111108" dx="0em" dy="0.3em" style="text-anchor: end; visibility: inherit; font-family: &quot;Helvetica Neue&quot;, sans-serif; font-size: 12px; font-weight: 200;" fill="rgb(50, 49, 63)" stroke="none" stroke-width="1px">0.3</text><text x="0" y="167.99288888888887" dx="0em" dy="0.3em" style="text-anchor: end; visibility: inherit; font-family: &quot;Helvetica Neue&quot;, sans-serif; font-size: 12px; font-weight: 200;" fill="rgb(50, 49, 63)" stroke="none" stroke-width="1px">0.4</text><text x="0" y="125.99466666666666" dx="0em" dy="0.3em" style="text-anchor: end; visibility: inherit; font-family: &quot;Helvetica Neue&quot;, sans-serif; font-size: 12px; font-weight: 200;" fill="rgb(50, 49, 63)" stroke="none" stroke-width="1px">0.5</text><text x="0" y="83.99644444444448" dx="0em" dy="0.3em" style="text-anchor: end; visibility: inherit; font-family: &quot;Helvetica Neue&quot;, sans-serif; font-size: 12px; font-weight: 200;" fill="rgb(50, 49, 63)" stroke="none" stroke-width="1px">0.6</text><text x="0" y="41.99822222222224" dx="0em" dy="0.3em" style="text-anchor: end; visibility: inherit; font-family: &quot;Helvetica Neue&quot;, sans-serif; font-size: 12px; font-weight: 200;" fill="rgb(50, 49, 63)" stroke="none" stroke-width="1px">0.7</text><text x="0" y="0" dx="0em" dy="0.3em" style="text-anchor: end; visibility: hidden; font-family: &quot;Helvetica Neue&quot;, sans-serif; font-size: 12px; font-weight: 200;" fill="rgb(50, 49, 63)" stroke="none" stroke-width="1px">0.8</text></g><line x1="58" y1="0" x2="58" y2="377.984" fill="rgb(0, 0, 0)" stroke="rgb(204, 204, 204)" stroke-width="1px"></line></g></g><g transform="translate(58, 0)" clip-path="url(#clip_0)"><clipPath id="clip_0"><rect width="581" height="377"></rect></clipPath><g><g><g><line x1="0" y1="0" x2="0" y2="377.984" fill="rgb(0, 0, 0)" stroke="rgb(60, 60, 60)" stroke-width="1px" opacity="0.25"></line><line x1="48.46158333333333" y1="0" x2="48.46158333333333" y2="377.984" fill="rgb(0, 0, 0)" stroke="rgb(60, 60, 60)" stroke-width="1px" opacity="0.25"></line><line x1="96.92316666666666" y1="0" x2="96.92316666666666" y2="377.984" fill="rgb(0, 0, 0)" stroke="rgb(60, 60, 60)" stroke-width="1px" opacity="0.25"></line><line x1="145.38475" y1="0" x2="145.38475" y2="377.984" fill="rgb(0, 0, 0)" stroke="rgb(60, 60, 60)" stroke-width="1px" opacity="0.25"></line><line x1="193.84633333333332" y1="0" x2="193.84633333333332" y2="377.984" fill="rgb(0, 0, 0)" stroke="rgb(60, 60, 60)" stroke-width="1px" opacity="0.25"></line><line x1="242.30791666666667" y1="0" x2="242.30791666666667" y2="377.984" fill="rgb(0, 0, 0)" stroke="rgb(60, 60, 60)" stroke-width="1px" opacity="0.25"></line><line x1="290.7695" y1="0" x2="290.7695" y2="377.984" fill="rgb(0, 0, 0)" stroke="rgb(60, 60, 60)" stroke-width="1px" opacity="0.25"></line><line x1="339.23108333333334" y1="0" x2="339.23108333333334" y2="377.984" fill="rgb(0, 0, 0)" stroke="rgb(60, 60, 60)" stroke-width="1px" opacity="0.25"></line><line x1="387.69266666666664" y1="0" x2="387.69266666666664" y2="377.984" fill="rgb(0, 0, 0)" stroke="rgb(60, 60, 60)" stroke-width="1px" opacity="0.25"></line><line x1="436.15425" y1="0" x2="436.15425" y2="377.984" fill="rgb(0, 0, 0)" stroke="rgb(60, 60, 60)" stroke-width="1px" opacity="0.25"></line><line x1="484.61583333333334" y1="0" x2="484.61583333333334" y2="377.984" fill="rgb(0, 0, 0)" stroke="rgb(60, 60, 60)" stroke-width="1px" opacity="0.25"></line><line x1="533.0774166666666" y1="0" x2="533.0774166666666" y2="377.984" fill="rgb(0, 0, 0)" stroke="rgb(60, 60, 60)" stroke-width="1px" opacity="0.25"></line><line x1="581.539" y1="0" x2="581.539" y2="377.984" fill="rgb(0, 0, 0)" stroke="rgb(60, 60, 60)" stroke-width="1px" opacity="0.25"></line></g><g><line x1="0" y1="377.984" x2="581.539" y2="377.984" fill="rgb(0, 0, 0)" stroke="rgb(60, 60, 60)" stroke-width="1px" opacity="0.25"></line><line x1="0" y1="335.98577777777774" x2="581.539" y2="335.98577777777774" fill="rgb(0, 0, 0)" stroke="rgb(60, 60, 60)" stroke-width="1px" opacity="0.25"></line><line x1="0" y1="293.98755555555556" x2="581.539" y2="293.98755555555556" fill="rgb(0, 0, 0)" stroke="rgb(60, 60, 60)" stroke-width="1px" opacity="0.25"></line><line x1="0" y1="251.98933333333332" x2="581.539" y2="251.98933333333332" fill="rgb(0, 0, 0)" stroke="rgb(60, 60, 60)" stroke-width="1px" opacity="0.25"></line><line x1="0" y1="209.99111111111108" x2="581.539" y2="209.99111111111108" fill="rgb(0, 0, 0)" stroke="rgb(60, 60, 60)" stroke-width="1px" opacity="0.25"></line><line x1="0" y1="167.99288888888887" x2="581.539" y2="167.99288888888887" fill="rgb(0, 0, 0)" stroke="rgb(60, 60, 60)" stroke-width="1px" opacity="0.25"></line><line x1="0" y1="125.99466666666666" x2="581.539" y2="125.99466666666666" fill="rgb(0, 0, 0)" stroke="rgb(60, 60, 60)" stroke-width="1px" opacity="0.25"></line><line x1="0" y1="83.99644444444448" x2="581.539" y2="83.99644444444448" fill="rgb(0, 0, 0)" stroke="rgb(60, 60, 60)" stroke-width="1px" opacity="0.25"></line><line x1="0" y1="41.99822222222224" x2="581.539" y2="41.99822222222224" fill="rgb(0, 0, 0)" stroke="rgb(60, 60, 60)" stroke-width="1px" opacity="0.25"></line><line x1="0" y1="0" x2="581.539" y2="0" fill="rgb(0, 0, 0)" stroke="rgb(60, 60, 60)" stroke-width="1px" opacity="0.25"></line></g></g></g><g><g><line x1="0" y1="335.98577777777774" x2="581.539" y2="335.98577777777774" fill="rgb(0, 0, 0)" stroke="rgb(153, 153, 153)" stroke-width="1.5px"></line></g></g><g><g><line x1="48.46158333333333" y1="0" x2="48.46158333333333" y2="377.984" fill="rgb(0, 0, 0)" stroke="rgb(153, 153, 153)" stroke-width="1.5px"></line></g></g><g><g><g><g><g><path stroke="rgb(204, 51, 17)" stroke-width="2px" d="M48.46158333333333,260.1089881443447L58.1539,252.7593000064426L67.84621666666666,245.93815965334142L77.53853333333333,237.2029704434747L87.23084999999999,227.34347476587521L96.92316666666666,216.36234122884142L106.61548333333333,204.23474707553868L116.3078,189.8320797534672L126.00011666666667,176.4254901967387L135.69243333333333,164.1868196347507L145.38475,152.7884408071059L155.07706666666667,142.21590777382366L164.76938333333334,133.2518062330133L174.46169999999998,124.91064703022369L184.15401666666665,117.78121993154667L193.84633333333332,110.59301198305485L203.53865,103.87308385198389L213.23096666666666,98.10574783139077L222.92328333333333,92.8536874681501L232.6156,88.30266549139213L242.30791666666667,84.5081775048568L252.00023333333334,81.22357035043319L261.69255,77.6848912126191L271.38486666666665,74.72173399198846L281.0771833333333,72.38387129130666L290.7695,69.63720979751633L300.46181666666666,66.8132595876163L310.15413333333333,64.50292159997213L319.84645,62.276755762513574L329.5387666666667,60.045089359408564L339.23108333333334,58.258111166698484L348.92339999999996,56.45795785652854L358.6157166666667,55.04187448082331L368.3080333333333,53.80024946438914L378.00035,52.32729796331677L387.69266666666664,51.051542038621506L397.3849833333333,49.8941134667424L407.0773,48.80767129052953L416.76961666666665,47.93181167671753L426.4619333333333,46.95831730190258L436.15425,46.09423279649127L445.84656666666666,45.3517877834131L455.53888333333333,44.45834216848783L465.2312,43.75428407362148L474.92351666666667,43.163858490715256L484.61583333333334,42.641602401796774L494.30814999999996,41.93627372539413L504.0004666666667,41.345075780362095L513.6927833333333,40.87836987142276L523.3851,40.54234274194272" style="fill: none;" fill="none"></path></g><g><path stroke="rgb(0, 119, 187)" stroke-width="2px" d="M48.46158333333333,277.42049028947616L58.1539,272.72584143686294L67.84621666666666,265.96003486881557L77.53853333333333,258.14789354992223L87.23084999999999,250.25631657412316L96.92316666666666,240.35835166194778L106.61548333333333,230.67195036536418L116.3078,219.13177809177117L126.00011666666667,207.6774618543176L135.69243333333333,197.62752550841122L145.38475,185.65361821601255L155.07706666666667,174.59826307268634L164.76938333333334,164.15691568625212L174.46169999999998,154.86994749765935L184.15401666666665,145.81739597421674L193.84633333333332,138.2692281307337L203.53865,131.1676132254917L213.23096666666666,124.54900572294846L222.92328333333333,118.31572095085176L232.6156,112.2895555108206L242.30791666666667,108.36276150176423L252.00023333333334,103.9118902300961L261.69255,99.99646939857223L271.38486666666665,96.1150162265319L281.0771833333333,92.50531954316324L290.7695,89.23822923484295L300.46181666666666,86.66748585514142L310.15413333333333,84.32301722518855L319.84645,82.00659130262869L329.5387666666667,80.26959009703444L339.23108333333334,78.11413674892867L348.92339999999996,75.58791482966774L358.6157166666667,73.48563109925163L368.3080333333333,71.45815430200929L378.00035,70.0740880713285L387.69266666666664,68.66906338467453L397.3849833333333,67.31132227058458L407.0773,65.87420973342506L416.76961666666665,64.47327444804506L426.4619333333333,63.872127850260824L436.15425,62.69745037593526L445.84656666666666,61.01106417616569L455.53888333333333,60.25061275000024L465.2312,59.41128859372952L474.92351666666667,59.2907474007456L484.61583333333334,58.17699433339004L494.30814999999996,57.472835313929124L504.0004666666667,56.27225756582618L513.6927833333333,55.2406819876698L523.3851,54.74144392634889" style="fill: none;" fill="none"></path></g></g></g></g><g opacity="0.2"><g><g><g><path stroke="rgb(204, 51, 17)" stroke-width="2px" d="M48.46158333333333,260.1089881443447L58.1539,248.3494871237013L67.84621666666666,239.3898649143643L77.53853333333333,226.93038793267144L87.23084999999999,214.4709172092014L96.92316666666666,201.1714803390503L106.61548333333333,186.8920933948093L116.3078,168.83285253228084L126.00011666666667,156.65337469651962L135.69243333333333,146.01382019382055L145.38475,135.79425502268475L155.07706666666667,126.41464348178442L164.76938333333334,119.83492326863609L174.46169999999998,112.41524942525228L184.15401666666665,107.09545965745713L193.84633333333332,99.8157697414822L203.53865,93.79603530375164L213.23096666666666,89.45620812649196L222.92328333333333,84.97639702182352L232.6156,81.47654850769044L242.30791666666667,78.81665362379289L252.00023333333334,76.29676770019529L261.69255,72.37694237094456L271.38486666666665,70.27703326246473L281.0771833333333,68.87709385681154L290.7695,65.51722927008734L300.46181666666666,62.577341498480905L310.15413333333333,61.03741816541884L319.84645,58.93750905693901L329.5387666666667,56.69759098815916L339.23108333333334,55.577644470214864L348.92339999999996,53.757728249443915L358.6157166666667,52.91774958631726L368.3080333333333,51.93781202867302L378.00035,50.117870775010886L387.69266666666664,49.13790818447535L397.3849833333333,48.15797062683106L407.0773,47.17800803629558L416.76961666666665,46.61802226087781L426.4619333333333,45.49807574293351L436.15425,44.798106040106916L445.84656666666666,44.238120264689144L455.53888333333333,43.11817374674479L465.2312,42.69819693162708L474.92351666666667,42.278220116509374L484.61583333333334,41.85821826850048L494.30814999999996,40.87828071085613L504.0004666666667,40.45827886284724L513.6927833333333,40.17831100802954L523.3851,40.03830204772947" style="fill: none;" fill="none"></path></g><g><path stroke="rgb(0, 119, 187)" stroke-width="2px" d="M48.46158333333333,277.42049028947616L58.1539,269.909052125295L67.84621666666666,259.4648605634901L77.53853333333333,248.9608153589037L87.23084999999999,239.95307367451986L96.92316666666666,226.66590292104084L106.61548333333333,216.82024152882894L116.3078,202.30609613121882L126.00011666666667,190.78457029045953L135.69243333333333,182.70454129452176L145.38475,167.80135973527695L155.07706666666667,158.0753931121826L164.76938333333334,148.528987417433L174.46169999999998,140.95768935224746L184.15401666666665,132.24920962354872L193.84633333333332,126.95229991828072L203.53865,120.51819603305398L213.23096666666666,114.62277493286132L222.92328333333333,108.96674337090388L232.6156,103.25085816616485L242.30791666666667,102.47278584289552L252.00023333333334,97.23572978040909L261.69255,94.12341545444065L271.38486666666665,90.29288244798454L281.0771833333333,87.09080017428931L290.7695,84.33760770501033L300.46181666666666,82.81137736341691L310.15413333333333,80.80631787957088L319.84645,78.5319545525445L329.5387666666667,77.6640892486572L339.23108333333334,74.88095744154191L348.92339999999996,71.79858245340984L358.6157166666667,70.33220575459802L368.3080333333333,68.41693925136991L378.00035,67.99798878479004L387.69266666666664,66.5615263909234L397.3849833333333,65.27471062045629L407.0773,63.718540941026504L416.76961666666665,62.371871527777785L426.4619333333333,62.970407955593544L436.15425,60.93543416680234L445.84656666666666,58.481484878540016L455.53888333333333,59.10993561130101L465.2312,58.152302359686985L474.92351666666667,59.10993561130101L484.61583333333334,56.506364732530415L494.30814999999996,56.41659678480363L504.0004666666667,54.47139094373915L513.6927833333333,53.69331862046988L523.3851,53.99258683437773" style="fill: none;" fill="none"></path></g></g></g></g></g></g><g transform="translate(58, 377)" clip-path="url(#clip_1)"><clipPath id="clip_1"><rect width="581" height="21"></rect></clipPath><g><g><line x1="0" y1="0" x2="0" y2="5" style="visibility: inherit;" fill="rgb(0, 0, 0)" stroke="rgb(204, 204, 204)" stroke-width="1px"></line><line x1="48.46158333333333" y1="0" x2="48.46158333333333" y2="5" style="visibility: inherit;" fill="rgb(0, 0, 0)" stroke="rgb(204, 204, 204)" stroke-width="1px"></line><line x1="96.92316666666666" y1="0" x2="96.92316666666666" y2="5" style="visibility: inherit;" fill="rgb(0, 0, 0)" stroke="rgb(204, 204, 204)" stroke-width="1px"></line><line x1="145.38475" y1="0" x2="145.38475" y2="5" style="visibility: inherit;" fill="rgb(0, 0, 0)" stroke="rgb(204, 204, 204)" stroke-width="1px"></line><line x1="193.84633333333332" y1="0" x2="193.84633333333332" y2="5" style="visibility: inherit;" fill="rgb(0, 0, 0)" stroke="rgb(204, 204, 204)" stroke-width="1px"></line><line x1="242.30791666666667" y1="0" x2="242.30791666666667" y2="5" style="visibility: inherit;" fill="rgb(0, 0, 0)" stroke="rgb(204, 204, 204)" stroke-width="1px"></line><line x1="290.7695" y1="0" x2="290.7695" y2="5" style="visibility: inherit;" fill="rgb(0, 0, 0)" stroke="rgb(204, 204, 204)" stroke-width="1px"></line><line x1="339.23108333333334" y1="0" x2="339.23108333333334" y2="5" style="visibility: inherit;" fill="rgb(0, 0, 0)" stroke="rgb(204, 204, 204)" stroke-width="1px"></line><line x1="387.69266666666664" y1="0" x2="387.69266666666664" y2="5" style="visibility: inherit;" fill="rgb(0, 0, 0)" stroke="rgb(204, 204, 204)" stroke-width="1px"></line><line x1="436.15425" y1="0" x2="436.15425" y2="5" style="visibility: inherit;" fill="rgb(0, 0, 0)" stroke="rgb(204, 204, 204)" stroke-width="1px"></line><line x1="484.61583333333334" y1="0" x2="484.61583333333334" y2="5" style="visibility: inherit;" fill="rgb(0, 0, 0)" stroke="rgb(204, 204, 204)" stroke-width="1px"></line><line x1="533.0774166666666" y1="0" x2="533.0774166666666" y2="5" style="visibility: inherit;" fill="rgb(0, 0, 0)" stroke="rgb(204, 204, 204)" stroke-width="1px"></line><line x1="581.539" y1="0" x2="581.539" y2="5" style="visibility: inherit;" fill="rgb(0, 0, 0)" stroke="rgb(204, 204, 204)" stroke-width="1px"></line></g><g transform="translate(0, 8)"><text x="0" y="0" dx="0em" dy="0.95em" style="text-anchor: middle; visibility: hidden; font-family: &quot;Helvetica Neue&quot;, sans-serif; font-size: 12px; font-weight: 200;" fill="rgb(50, 49, 63)" stroke="none" stroke-width="1px">-5</text><text x="48.46158333333333" y="0" dx="0em" dy="0.95em" style="text-anchor: middle; visibility: inherit; font-family: &quot;Helvetica Neue&quot;, sans-serif; font-size: 12px; font-weight: 200;" fill="rgb(50, 49, 63)" stroke="none" stroke-width="1px">0</text><text x="96.92316666666666" y="0" dx="0em" dy="0.95em" style="text-anchor: middle; visibility: inherit; font-family: &quot;Helvetica Neue&quot;, sans-serif; font-size: 12px; font-weight: 200;" fill="rgb(50, 49, 63)" stroke="none" stroke-width="1px">5</text><text x="145.38475" y="0" dx="0em" dy="0.95em" style="text-anchor: middle; visibility: inherit; font-family: &quot;Helvetica Neue&quot;, sans-serif; font-size: 12px; font-weight: 200;" fill="rgb(50, 49, 63)" stroke="none" stroke-width="1px">10</text><text x="193.84633333333332" y="0" dx="0em" dy="0.95em" style="text-anchor: middle; visibility: inherit; font-family: &quot;Helvetica Neue&quot;, sans-serif; font-size: 12px; font-weight: 200;" fill="rgb(50, 49, 63)" stroke="none" stroke-width="1px">15</text><text x="242.30791666666667" y="0" dx="0em" dy="0.95em" style="text-anchor: middle; visibility: inherit; font-family: &quot;Helvetica Neue&quot;, sans-serif; font-size: 12px; font-weight: 200;" fill="rgb(50, 49, 63)" stroke="none" stroke-width="1px">20</text><text x="290.7695" y="0" dx="0em" dy="0.95em" style="text-anchor: middle; visibility: inherit; font-family: &quot;Helvetica Neue&quot;, sans-serif; font-size: 12px; font-weight: 200;" fill="rgb(50, 49, 63)" stroke="none" stroke-width="1px">25</text><text x="339.23108333333334" y="0" dx="0em" dy="0.95em" style="text-anchor: middle; visibility: inherit; font-family: &quot;Helvetica Neue&quot;, sans-serif; font-size: 12px; font-weight: 200;" fill="rgb(50, 49, 63)" stroke="none" stroke-width="1px">30</text><text x="387.69266666666664" y="0" dx="0em" dy="0.95em" style="text-anchor: middle; visibility: inherit; font-family: &quot;Helvetica Neue&quot;, sans-serif; font-size: 12px; font-weight: 200;" fill="rgb(50, 49, 63)" stroke="none" stroke-width="1px">35</text><text x="436.15425" y="0" dx="0em" dy="0.95em" style="text-anchor: middle; visibility: inherit; font-family: &quot;Helvetica Neue&quot;, sans-serif; font-size: 12px; font-weight: 200;" fill="rgb(50, 49, 63)" stroke="none" stroke-width="1px">40</text><text x="484.61583333333334" y="0" dx="0em" dy="0.95em" style="text-anchor: middle; visibility: inherit; font-family: &quot;Helvetica Neue&quot;, sans-serif; font-size: 12px; font-weight: 200;" fill="rgb(50, 49, 63)" stroke="none" stroke-width="1px">45</text><text x="533.0774166666666" y="0" dx="0em" dy="0.95em" style="text-anchor: middle; visibility: inherit; font-family: &quot;Helvetica Neue&quot;, sans-serif; font-size: 12px; font-weight: 200;" fill="rgb(50, 49, 63)" stroke="none" stroke-width="1px">50</text><text x="581.539" y="0" dx="0em" dy="0.95em" style="text-anchor: middle; visibility: hidden; font-family: &quot;Helvetica Neue&quot;, sans-serif; font-size: 12px; font-weight: 200;" fill="rgb(50, 49, 63)" stroke="none" stroke-width="1px">55</text></g><line x1="0" y1="0" x2="581.539" y2="0" fill="rgb(0, 0, 0)" stroke="rgb(204, 204, 204)" stroke-width="1px"></line></g></g></g></g></svg>