<svg viewBox="0 0 642.5390625 399.984375" xmlns="http://www.w3.org/2000/svg"><g><g><g><g><g><line x1="58" y1="377.984" x2="53" y2="377.984" style="visibility: inherit;" fill="rgb(0, 0, 0)" stroke="rgb(204, 204, 204)" stroke-width="1px"></line><line x1="58" y1="340.18559999999997" x2="53" y2="340.18559999999997" style="visibility: inherit;" fill="rgb(0, 0, 0)" stroke="rgb(204, 204, 204)" stroke-width="1px"></line><line x1="58" y1="302.3872" x2="53" y2="302.3872" style="visibility: inherit;" fill="rgb(0, 0, 0)" stroke="rgb(204, 204, 204)" stroke-width="1px"></line><line x1="58" y1="264.5888" x2="53" y2="264.5888" style="visibility: inherit;" fill="rgb(0, 0, 0)" stroke="rgb(204, 204, 204)" stroke-width="1px"></line><line x1="58" y1="226.79039999999998" x2="53" y2="226.79039999999998" style="visibility: inherit;" fill="rgb(0, 0, 0)" stroke="rgb(204, 204, 204)" stroke-width="1px"></line><line x1="58" y1="188.992" x2="53" y2="188.992" style="visibility: inherit;" fill="rgb(0, 0, 0)" stroke="rgb(204, 204, 204)" stroke-width="1px"></line><line x1="58" y1="151.1936" x2="53" y2="151.1936" style="visibility: inherit;" fill="rgb(0, 0, 0)" stroke="rgb(204, 204, 204)" stroke-width="1px"></line><line x1="58" y1="113.39519999999999" x2="53" y2="113.39519999999999" style="visibility: inherit;" fill="rgb(0, 0, 0)" stroke="rgb(204, 204, 204)" stroke-width="1px"></line><line x1="58" y1="75.59679999999997" x2="53" y2="75.59679999999997" style="visibility: inherit;" fill="rgb(0, 0, 0)" stroke="rgb(204, 204, 204)" stroke-width="1px"></line><line x1="58" y1="37.798400000000015" x2="53" y2="37.798400000000015" style="visibility: inherit;" fill="rgb(0, 0, 0)" stroke="rgb(204, 204, 204)" stroke-width="1px"></line><line x1="58" y1="0" x2="53" y2="0" style="visibility: inherit;" fill="rgb(0, 0, 0)" stroke="rgb(204, 204, 204)" stroke-width="1px"></line></g><g transform="translate(48, 0)"><text x="0" y="377.984" dx="0em" dy="0.3em" style="text-anchor: end; visibility: hidden; font-family: &quot;Helvetica Neue&quot;, sans-serif; font-size: 12px; font-weight: 200;" fill="rgb(50, 49, 63)" stroke="none" stroke-width="1px">-0.5</text><text x="0" y="340.18559999999997" dx="0em" dy="0.3em" style="text-anchor: end; visibility: inherit; font-family: &quot;Helvetica Neue&quot;, sans-serif; font-size: 12px; font-weight: 200;" fill="rgb(50, 49, 63)" stroke="none" stroke-width="1px">0</text><text x="0" y="302.3872" dx="0em" dy="0.3em" style="text-anchor: end; visibility: inherit; font-family: &quot;Helvetica Neue&quot;, sans-serif; font-size: 12px; font-weight: 200;" fill="rgb(50, 49, 63)" stroke="none" stroke-width="1px">0.5</text><text x="0" y="264.5888" dx="0em" dy="0.3em" style="text-anchor: end; visibility: inherit; font-family: &quot;Helvetica Neue&quot;, sans-serif; font-size: 12px; font-weight: 200;" fill="rgb(50, 49, 63)" stroke="none" stroke-width="1px">1</text><text x="0" y="226.79039999999998" dx="0em" dy="0.3em" style="text-anchor: end; visibility: inherit; font-family: &quot;Helvetica Neue&quot;, sans-serif; font-size: 12px; font-weight: 200;" fill="rgb(50, 49, 63)" stroke="none" stroke-width="1px">1.5</text><text x="0" y="188.992" dx="0em" dy="0.3em" style="text-anchor: end; visibility: inherit; font-family: &quot;Helvetica Neue&quot;, sans-serif; font-size: 12px; font-weight: 200;" fill="rgb(50, 49, 63)" stroke="none" stroke-width="1px">2</text><text x="0" y="151.1936" dx="0em" dy="0.3em" style="text-anchor: end; visibility: inherit; font-family: &quot;Helvetica Neue&quot;, sans-serif; font-size: 12px; font-weight: 200;" fill="rgb(50, 49, 63)" stroke="none" stroke-width="1px">2.5</text><text x="0" y="113.39519999999999" dx="0em" dy="0.3em" style="text-anchor: end; visibility: inherit; font-family: &quot;Helvetica Neue&quot;, sans-serif; font-size: 12px; font-weight: 200;" fill="rgb(50, 49, 63)" stroke="none" stroke-width="1px">3</text><text x="0" y="75.59679999999997" dx="0em" dy="0.3em" style="text-anchor: end; visibility: inherit; font-family: &quot;Helvetica Neue&quot;, sans-serif; font-size: 12px; font-weight: 200;" fill="rgb(50, 49, 63)" stroke="none" stroke-width="1px">3.5</text><text x="0" y="37.798400000000015" dx="0em" dy="0.3em" style="text-anchor: end; visibility: inherit; font-family: &quot;Helvetica Neue&quot;, sans-serif; font-size: 12px; font-weight: 200;" fill="rgb(50, 49, 63)" stroke="none" stroke-width="1px">4</text><text x="0" y="0" dx="0em" dy="0.3em" style="text-anchor: end; visibility: hidden; font-family: &quot;Helvetica Neue&quot;, sans-serif; font-size: 12px; font-weight: 200;" fill="rgb(50, 49, 63)" stroke="none" stroke-width="1px">4.5</text></g><line x1="58" y1="0" x2="58" y2="377.984" fill="rgb(0, 0, 0)" stroke="rgb(204, 204, 204)" stroke-width="1px"></line></g></g><g transform="translate(58, 0)" clip-path="url(#clip_0)"><clipPath id="clip_0"><rect width="584" height="377"></rect></clipPath><g><g><g><line x1="0" y1="0" x2="0" y2="377.984" fill="rgb(0, 0, 0)" stroke="rgb(60, 60, 60)" stroke-width="1px" opacity="0.25"></line><line x1="83.50557142857143" y1="0" x2="83.50557142857143" y2="377.984" fill="rgb(0, 0, 0)" stroke="rgb(60, 60, 60)" stroke-width="1px" opacity="0.25"></line><line x1="167.01114285714286" y1="0" x2="167.01114285714286" y2="377.984" fill="rgb(0, 0, 0)" stroke="rgb(60, 60, 60)" stroke-width="1px" opacity="0.25"></line><line x1="250.51671428571427" y1="0" x2="250.51671428571427" y2="377.984" fill="rgb(0, 0, 0)" stroke="rgb(60, 60, 60)" stroke-width="1px" opacity="0.25"></line><line x1="334.0222857142857" y1="0" x2="334.0222857142857" y2="377.984" fill="rgb(0, 0, 0)" stroke="rgb(60, 60, 60)" stroke-width="1px" opacity="0.25"></line><line x1="417.52785714285716" y1="0" x2="417.52785714285716" y2="377.984" fill="rgb(0, 0, 0)" stroke="rgb(60, 60, 60)" stroke-width="1px" opacity="0.25"></line><line x1="501.03342857142854" y1="0" x2="501.03342857142854" y2="377.984" fill="rgb(0, 0, 0)" stroke="rgb(60, 60, 60)" stroke-width="1px" opacity="0.25"></line><line x1="584.539" y1="0" x2="584.539" y2="377.984" fill="rgb(0, 0, 0)" stroke="rgb(60, 60, 60)" stroke-width="1px" opacity="0.25"></line></g><g><line x1="0" y1="377.984" x2="584.539" y2="377.984" fill="rgb(0, 0, 0)" stroke="rgb(60, 60, 60)" stroke-width="1px" opacity="0.25"></line><line x1="0" y1="340.18559999999997" x2="584.539" y2="340.18559999999997" fill="rgb(0, 0, 0)" stroke="rgb(60, 60, 60)" stroke-width="1px" opacity="0.25"></line><line x1="0" y1="302.3872" x2="584.539" y2="302.3872" fill="rgb(0, 0, 0)" stroke="rgb(60, 60, 60)" stroke-width="1px" opacity="0.25"></line><line x1="0" y1="264.5888" x2="584.539" y2="264.5888" fill="rgb(0, 0, 0)" stroke="rgb(60, 60, 60)" stroke-width="1px" opacity="0.25"></line><line x1="0" y1="226.79039999999998" x2="584.539" y2="226.79039999999998" fill="rgb(0, 0, 0)" stroke="rgb(60, 60, 60)" stroke-width="1px" opacity="0.25"></line><line x1="0" y1="188.992" x2="584.539" y2="188.992" fill="rgb(0, 0, 0)" stroke="rgb(60, 60, 60)" stroke-width="1px" opacity="0.25"></line><line x1="0" y1="151.1936" x2="584.539" y2="151.1936" fill="rgb(0, 0, 0)" stroke="rgb(60, 60, 60)" stroke-width="1px" opacity="0.25"></line><line x1="0" y1="113.39519999999999" x2="584.539" y2="113.39519999999999" fill="rgb(0, 0, 0)" stroke="rgb(60, 60, 60)" stroke-width="1px" opacity="0.25"></line><line x1="0" y1="75.59679999999997" x2="584.539" y2="75.59679999999997" fill="rgb(0, 0, 0)" stroke="rgb(60, 60, 60)" stroke-width="1px" opacity="0.25"></line><line x1="0" y1="37.798400000000015" x2="584.539" y2="37.798400000000015" fill="rgb(0, 0, 0)" stroke="rgb(60, 60, 60)" stroke-width="1px" opacity="0.25"></line><line x1="0" y1="0" x2="584.539" y2="0" fill="rgb(0, 0, 0)" stroke="rgb(60, 60, 60)" stroke-width="1px" opacity="0.25"></line></g></g></g><g><g><line x1="0" y1="340.18559999999997" x2="584.539" y2="340.18559999999997" fill="rgb(0, 0, 0)" stroke="rgb(153, 153, 153)" stroke-width="1.5px"></line></g></g><g><g><line x1="83.50557142857143" y1="0" x2="83.50557142857143" y2="377.984" fill="rgb(0, 0, 0)" stroke="rgb(153, 153, 153)" stroke-width="1.5px"></line></g></g><g><g><g><g><g><path stroke="rgb(187, 187, 187)" stroke-width="2px" d="M83.50557142857143,253.63855727844236L100.20668571428571,263.27167158870697L116.90780000000001,270.6669068485805L133.6089142857143,276.36122501458L150.31002857142855,280.7221450897026L167.01114285714286,283.62274976644994L183.71225714285714,285.63361189597015L200.41337142857142,286.4177780047063L217.1144857142857,287.12792430746737L233.81560000000002,286.7269506138523L250.51671428571427,285.5841547321733L267.2178285714286,284.61608062165L283.91894285714284,283.9789599002337L300.6200571428571,283.48949319090565L317.3211714285714,283.78403160423113L334.0222857142857,284.0184139411835L350.72339999999997,284.4541725464485L367.4245142857143,286.06947312337996L384.12562857142854,287.2314640865967L400.82674285714285,288.5872479873858L417.52785714285716,289.93380635793903L434.2289714285714,291.090836771456L450.9300857142857,292.1790460651165L467.63120000000004,293.50442568008816L484.3323142857143,294.253229305722L501.03342857142854,294.96556620089353L517.7345428571429,295.99127509895254L534.4356571428572,297.2562754535105L551.1367714285714,298.5067955674633L567.8378857142857,299.33998925929455" style="fill: none;" fill="none"></path></g><g><path stroke="rgb(0, 153, 136)" stroke-width="2px" d="M83.50557142857143,228.2486690460205L100.20668571428571,247.63301473770142L116.90780000000001,261.5790165749063L133.6089142857143,272.31360776619067L150.31002857142855,280.5323853998135L167.01114285714286,286.83168667069526L183.71225714285714,291.1033671699105L200.41337142857142,293.9735497789408L217.1144857142857,295.75717750983745L233.81560000000002,297.00635064240913L250.51671428571427,297.49799670387364L267.2178285714286,296.9737651815255L283.91894285714284,296.63652319398324L300.6200571428571,296.41458965884374L317.3211714285714,295.9820736010853L334.0222857142857,295.8037388748789L350.72339999999997,295.56215561471436L367.4245142857143,295.59349430427005L384.12562857142854,295.4993702342272L400.82674285714285,295.53838340761797L417.52785714285716,295.72952606444005L434.2289714285714,296.19979566083003L450.9300857142857,296.4960426803862L467.63120000000004,296.926145564314L484.3323142857143,297.19874393329553L501.03342857142854,297.8792081109348L517.7345428571429,298.25151237163413L534.4356571428572,298.77419252056666L551.1367714285714,299.4444964050698L567.8378857142857,300.27061909440164" style="fill: none;" fill="none"></path></g></g></g></g><g opacity="0.2"><g><g><g><path stroke="rgb(187, 187, 187)" stroke-width="2px" d="M83.50557142857143,253.63855727844236L100.20668571428571,269.0515401748657L116.90780000000001,277.76633269805905L133.6089142857143,283.0577431777954L150.31002857142855,286.4157623397827L167.01114285714286,287.63533025207516L183.71225714285714,288.509176914978L200.41337142857142,287.56109971923826L217.1144857142857,288.17525216522216L233.81560000000002,286.1315514099121L250.51671428571427,283.88032598419187L267.2178285714286,283.1692376724243L283.91894285714284,283.02535912780763L300.6200571428571,282.75625204315185L317.3211714285714,284.22549300537105L334.0222857142857,284.3698221420288L350.72339999999997,285.1076260559082L367.4245142857143,288.49201386413574L384.12562857142854,288.97427351379395L400.82674285714285,290.62079991455073L417.52785714285716,291.9535700653076L434.2289714285714,292.82634431915284L450.9300857142857,293.81133852081297L467.63120000000004,295.4924794021606L484.3323142857143,295.37642942199705L501.03342857142854,296.03406850585935L517.7345428571429,297.5298358215332L534.4356571428572,299.1537740432739L551.1367714285714,300.3825745864868L567.8378857142857,300.58977933654785" style="fill: none;" fill="none"></path></g><g><path stroke="rgb(0, 153, 136)" stroke-width="2px" d="M83.50557142857143,228.2486690460205L100.20668571428571,259.26362215270996L116.90780000000001,274.96717833862306L133.6089142857143,284.9374870071411L150.31002857142855,291.26282147827146L167.01114285714286,295.5458880767822L183.71225714285714,297.2119386306763L200.41337142857142,298.15830357666016L217.1144857142857,298.38768196105957L233.81560000000002,298.8612271606445L250.51671428571427,298.23100660247803L267.2178285714286,296.19027074279785L283.91894285714284,296.131761366272L300.6200571428571,296.08212414703365L317.3211714285714,295.3338079208374L334.0222857142857,295.53636256103516L350.72339999999997,295.19988295440675L367.4245142857143,295.64049438171384L384.12562857142854,295.3581984680176L400.82674285714285,295.5968996017456L417.52785714285716,296.01622956695553L434.2289714285714,296.90518458099365L450.9300857142857,296.9404073608398L467.63120000000004,297.571294795227L484.3323142857143,297.60763954925534L501.03342857142854,298.89990147552487L517.7345428571429,298.8099678100586L534.4356571428572,299.5582119415283L551.1367714285714,300.44995161437987L567.8378857142857,301.509802671814" style="fill: none;" fill="none"></path></g></g></g></g></g><g><g><span fill="rgb(0, 0, 0)" stroke="none" stroke-width="1px">Alt + Scroll to Zoom</span></g></g></g><g transform="translate(58, 377)" clip-path="url(#clip_1)"><clipPath id="clip_1"><rect width="584" height="21"></rect></clipPath><g><g><line x1="0" y1="0" x2="0" y2="5" style="visibility: inherit;" fill="rgb(0, 0, 0)" stroke="rgb(204, 204, 204)" stroke-width="1px"></line><line x1="83.50557142857143" y1="0" x2="83.50557142857143" y2="5" style="visibility: inherit;" fill="rgb(0, 0, 0)" stroke="rgb(204, 204, 204)" stroke-width="1px"></line><line x1="167.01114285714286" y1="0" x2="167.01114285714286" y2="5" style="visibility: inherit;" fill="rgb(0, 0, 0)" stroke="rgb(204, 204, 204)" stroke-width="1px"></line><line x1="250.51671428571427" y1="0" x2="250.51671428571427" y2="5" style="visibility: inherit;" fill="rgb(0, 0, 0)" stroke="rgb(204, 204, 204)" stroke-width="1px"></line><line x1="334.0222857142857" y1="0" x2="334.0222857142857" y2="5" style="visibility: inherit;" fill="rgb(0, 0, 0)" stroke="rgb(204, 204, 204)" stroke-width="1px"></line><line x1="417.52785714285716" y1="0" x2="417.52785714285716" y2="5" style="visibility: inherit;" fill="rgb(0, 0, 0)" stroke="rgb(204, 204, 204)" stroke-width="1px"></line><line x1="501.03342857142854" y1="0" x2="501.03342857142854" y2="5" style="visibility: inherit;" fill="rgb(0, 0, 0)" stroke="rgb(204, 204, 204)" stroke-width="1px"></line><line x1="584.539" y1="0" x2="584.539" y2="5" style="visibility: inherit;" fill="rgb(0, 0, 0)" stroke="rgb(204, 204, 204)" stroke-width="1px"></line></g><g transform="translate(0, 8)"><text x="0" y="0" dx="0em" dy="0.95em" style="text-anchor: middle; visibility: hidden; font-family: &quot;Helvetica Neue&quot;, sans-serif; font-size: 12px; font-weight: 200;" fill="rgb(50, 49, 63)" stroke="none" stroke-width="1px">-5</text><text x="83.50557142857143" y="0" dx="0em" dy="0.95em" style="text-anchor: middle; visibility: inherit; font-family: &quot;Helvetica Neue&quot;, sans-serif; font-size: 12px; font-weight: 200;" fill="rgb(50, 49, 63)" stroke="none" stroke-width="1px">0</text><text x="167.01114285714286" y="0" dx="0em" dy="0.95em" style="text-anchor: middle; visibility: inherit; font-family: &quot;Helvetica Neue&quot;, sans-serif; font-size: 12px; font-weight: 200;" fill="rgb(50, 49, 63)" stroke="none" stroke-width="1px">5</text><text x="250.51671428571427" y="0" dx="0em" dy="0.95em" style="text-anchor: middle; visibility: inherit; font-family: &quot;Helvetica Neue&quot;, sans-serif; font-size: 12px; font-weight: 200;" fill="rgb(50, 49, 63)" stroke="none" stroke-width="1px">10</text><text x="334.0222857142857" y="0" dx="0em" dy="0.95em" style="text-anchor: middle; visibility: inherit; font-family: &quot;Helvetica Neue&quot;, sans-serif; font-size: 12px; font-weight: 200;" fill="rgb(50, 49, 63)" stroke="none" stroke-width="1px">15</text><text x="417.52785714285716" y="0" dx="0em" dy="0.95em" style="text-anchor: middle; visibility: inherit; font-family: &quot;Helvetica Neue&quot;, sans-serif; font-size: 12px; font-weight: 200;" fill="rgb(50, 49, 63)" stroke="none" stroke-width="1px">20</text><text x="501.03342857142854" y="0" dx="0em" dy="0.95em" style="text-anchor: middle; visibility: inherit; font-family: &quot;Helvetica Neue&quot;, sans-serif; font-size: 12px; font-weight: 200;" fill="rgb(50, 49, 63)" stroke="none" stroke-width="1px">25</text><text x="584.539" y="0" dx="0em" dy="0.95em" style="text-anchor: middle; visibility: hidden; font-family: &quot;Helvetica Neue&quot;, sans-serif; font-size: 12px; font-weight: 200;" fill="rgb(50, 49, 63)" stroke="none" stroke-width="1px">30</text></g><line x1="0" y1="0" x2="584.539" y2="0" fill="rgb(0, 0, 0)" stroke="rgb(204, 204, 204)" stroke-width="1px"></line></g></g></g></g></svg>