<svg viewBox="0 0 642.5390625 399.984375" xmlns="http://www.w3.org/2000/svg"><g><g><g><g><g><line x1="58" y1="377.984" x2="53" y2="377.984" style="visibility: inherit;" fill="rgb(0, 0, 0)" stroke="rgb(204, 204, 204)" stroke-width="1px"></line><line x1="58" y1="335.98577777777774" x2="53" y2="335.98577777777774" style="visibility: inherit;" fill="rgb(0, 0, 0)" stroke="rgb(204, 204, 204)" stroke-width="1px"></line><line x1="58" y1="293.9875555555555" x2="53" y2="293.9875555555555" style="visibility: inherit;" fill="rgb(0, 0, 0)" stroke="rgb(204, 204, 204)" stroke-width="1px"></line><line x1="58" y1="251.98933333333326" x2="53" y2="251.98933333333326" style="visibility: inherit;" fill="rgb(0, 0, 0)" stroke="rgb(204, 204, 204)" stroke-width="1px"></line><line x1="58" y1="209.99111111111122" x2="53" y2="209.99111111111122" style="visibility: inherit;" fill="rgb(0, 0, 0)" stroke="rgb(204, 204, 204)" stroke-width="1px"></line><line x1="58" y1="167.99288888888898" x2="53" y2="167.99288888888898" style="visibility: inherit;" fill="rgb(0, 0, 0)" stroke="rgb(204, 204, 204)" stroke-width="1px"></line><line x1="58" y1="125.99466666666675" x2="53" y2="125.99466666666675" style="visibility: inherit;" fill="rgb(0, 0, 0)" stroke="rgb(204, 204, 204)" stroke-width="1px"></line><line x1="58" y1="83.99644444444448" x2="53" y2="83.99644444444448" style="visibility: inherit;" fill="rgb(0, 0, 0)" stroke="rgb(204, 204, 204)" stroke-width="1px"></line><line x1="58" y1="41.99822222222224" x2="53" y2="41.99822222222224" style="visibility: inherit;" fill="rgb(0, 0, 0)" stroke="rgb(204, 204, 204)" stroke-width="1px"></line><line x1="58" y1="0" x2="53" y2="0" style="visibility: inherit;" fill="rgb(0, 0, 0)" stroke="rgb(204, 204, 204)" stroke-width="1px"></line></g><g transform="translate(48, 0)"><text x="0" y="377.984" dx="0em" dy="0.3em" style="text-anchor: end; visibility: hidden; font-family: &quot;Helvetica Neue&quot;, sans-serif; font-size: 12px; font-weight: 200;" fill="rgb(50, 49, 63)" stroke="none" stroke-width="1px">0.25</text><text x="0" y="335.98577777777774" dx="0em" dy="0.3em" style="text-anchor: end; visibility: inherit; font-family: &quot;Helvetica Neue&quot;, sans-serif; font-size: 12px; font-weight: 200;" fill="rgb(50, 49, 63)" stroke="none" stroke-width="1px">0.26</text><text x="0" y="293.9875555555555" dx="0em" dy="0.3em" style="text-anchor: end; visibility: inherit; font-family: &quot;Helvetica Neue&quot;, sans-serif; font-size: 12px; font-weight: 200;" fill="rgb(50, 49, 63)" stroke="none" stroke-width="1px">0.27</text><text x="0" y="251.98933333333326" dx="0em" dy="0.3em" style="text-anchor: end; visibility: inherit; font-family: &quot;Helvetica Neue&quot;, sans-serif; font-size: 12px; font-weight: 200;" fill="rgb(50, 49, 63)" stroke="none" stroke-width="1px">0.28</text><text x="0" y="209.99111111111122" dx="0em" dy="0.3em" style="text-anchor: end; visibility: inherit; font-family: &quot;Helvetica Neue&quot;, sans-serif; font-size: 12px; font-weight: 200;" fill="rgb(50, 49, 63)" stroke="none" stroke-width="1px">0.29</text><text x="0" y="167.99288888888898" dx="0em" dy="0.3em" style="text-anchor: end; visibility: inherit; font-family: &quot;Helvetica Neue&quot;, sans-serif; font-size: 12px; font-weight: 200;" fill="rgb(50, 49, 63)" stroke="none" stroke-width="1px">0.3</text><text x="0" y="125.99466666666675" dx="0em" dy="0.3em" style="text-anchor: end; visibility: inherit; font-family: &quot;Helvetica Neue&quot;, sans-serif; font-size: 12px; font-weight: 200;" fill="rgb(50, 49, 63)" stroke="none" stroke-width="1px">0.31</text><text x="0" y="83.99644444444448" dx="0em" dy="0.3em" style="text-anchor: end; visibility: inherit; font-family: &quot;Helvetica Neue&quot;, sans-serif; font-size: 12px; font-weight: 200;" fill="rgb(50, 49, 63)" stroke="none" stroke-width="1px">0.32</text><text x="0" y="41.99822222222224" dx="0em" dy="0.3em" style="text-anchor: end; visibility: inherit; font-family: &quot;Helvetica Neue&quot;, sans-serif; font-size: 12px; font-weight: 200;" fill="rgb(50, 49, 63)" stroke="none" stroke-width="1px">0.33</text><text x="0" y="0" dx="0em" dy="0.3em" style="text-anchor: end; visibility: hidden; font-family: &quot;Helvetica Neue&quot;, sans-serif; font-size: 12px; font-weight: 200;" fill="rgb(50, 49, 63)" stroke="none" stroke-width="1px">0.34</text></g><line x1="58" y1="0" x2="58" y2="377.984" fill="rgb(0, 0, 0)" stroke="rgb(204, 204, 204)" stroke-width="1px"></line></g></g><g transform="translate(58, 0)" clip-path="url(#clip_0)"><clipPath id="clip_0"><rect width="584" height="377"></rect></clipPath><g><g><g><line x1="0" y1="0" x2="0" y2="377.984" fill="rgb(0, 0, 0)" stroke="rgb(60, 60, 60)" stroke-width="1px" opacity="0.25"></line><line x1="64.94877777777778" y1="0" x2="64.94877777777778" y2="377.984" fill="rgb(0, 0, 0)" stroke="rgb(60, 60, 60)" stroke-width="1px" opacity="0.25"></line><line x1="129.89755555555556" y1="0" x2="129.89755555555556" y2="377.984" fill="rgb(0, 0, 0)" stroke="rgb(60, 60, 60)" stroke-width="1px" opacity="0.25"></line><line x1="194.84633333333332" y1="0" x2="194.84633333333332" y2="377.984" fill="rgb(0, 0, 0)" stroke="rgb(60, 60, 60)" stroke-width="1px" opacity="0.25"></line><line x1="259.7951111111111" y1="0" x2="259.7951111111111" y2="377.984" fill="rgb(0, 0, 0)" stroke="rgb(60, 60, 60)" stroke-width="1px" opacity="0.25"></line><line x1="324.7438888888889" y1="0" x2="324.7438888888889" y2="377.984" fill="rgb(0, 0, 0)" stroke="rgb(60, 60, 60)" stroke-width="1px" opacity="0.25"></line><line x1="389.69266666666664" y1="0" x2="389.69266666666664" y2="377.984" fill="rgb(0, 0, 0)" stroke="rgb(60, 60, 60)" stroke-width="1px" opacity="0.25"></line><line x1="454.64144444444446" y1="0" x2="454.64144444444446" y2="377.984" fill="rgb(0, 0, 0)" stroke="rgb(60, 60, 60)" stroke-width="1px" opacity="0.25"></line><line x1="519.5902222222222" y1="0" x2="519.5902222222222" y2="377.984" fill="rgb(0, 0, 0)" stroke="rgb(60, 60, 60)" stroke-width="1px" opacity="0.25"></line><line x1="584.539" y1="0" x2="584.539" y2="377.984" fill="rgb(0, 0, 0)" stroke="rgb(60, 60, 60)" stroke-width="1px" opacity="0.25"></line></g><g><line x1="0" y1="377.984" x2="584.539" y2="377.984" fill="rgb(0, 0, 0)" stroke="rgb(60, 60, 60)" stroke-width="1px" opacity="0.25"></line><line x1="0" y1="335.98577777777774" x2="584.539" y2="335.98577777777774" fill="rgb(0, 0, 0)" stroke="rgb(60, 60, 60)" stroke-width="1px" opacity="0.25"></line><line x1="0" y1="293.9875555555555" x2="584.539" y2="293.9875555555555" fill="rgb(0, 0, 0)" stroke="rgb(60, 60, 60)" stroke-width="1px" opacity="0.25"></line><line x1="0" y1="251.98933333333326" x2="584.539" y2="251.98933333333326" fill="rgb(0, 0, 0)" stroke="rgb(60, 60, 60)" stroke-width="1px" opacity="0.25"></line><line x1="0" y1="209.99111111111122" x2="584.539" y2="209.99111111111122" fill="rgb(0, 0, 0)" stroke="rgb(60, 60, 60)" stroke-width="1px" opacity="0.25"></line><line x1="0" y1="167.99288888888898" x2="584.539" y2="167.99288888888898" fill="rgb(0, 0, 0)" stroke="rgb(60, 60, 60)" stroke-width="1px" opacity="0.25"></line><line x1="0" y1="125.99466666666675" x2="584.539" y2="125.99466666666675" fill="rgb(0, 0, 0)" stroke="rgb(60, 60, 60)" stroke-width="1px" opacity="0.25"></line><line x1="0" y1="83.99644444444448" x2="584.539" y2="83.99644444444448" fill="rgb(0, 0, 0)" stroke="rgb(60, 60, 60)" stroke-width="1px" opacity="0.25"></line><line x1="0" y1="41.99822222222224" x2="584.539" y2="41.99822222222224" fill="rgb(0, 0, 0)" stroke="rgb(60, 60, 60)" stroke-width="1px" opacity="0.25"></line><line x1="0" y1="0" x2="584.539" y2="0" fill="rgb(0, 0, 0)" stroke="rgb(60, 60, 60)" stroke-width="1px" opacity="0.25"></line></g></g></g><g><g><line x1="0" y1="1427.9395555555552" x2="584.539" y2="1427.9395555555552" fill="rgb(0, 0, 0)" stroke="rgb(153, 153, 153)" stroke-width="1.5px"></line></g></g><g><g><line x1="64.94877777777778" y1="0" x2="64.94877777777778" y2="377.984" fill="rgb(0, 0, 0)" stroke="rgb(153, 153, 153)" stroke-width="1.5px"></line></g></g><g><g><g><g><g><path stroke="rgb(0, 119, 187)" stroke-width="2px" d="M64.94877777777778,222.0901682807075L77.93853333333333,224.09412944645356L90.92828888888889,226.68045975160496L103.91804444444445,229.38092420710169L116.90780000000001,231.95432996968992L129.89755555555556,234.9315332631402L142.8873111111111,237.53555799302626L155.87706666666665,240.11044426539638L168.8668222222222,242.75069651217416L181.85657777777777,245.74919041492055L194.84633333333332,248.62421029089245L207.8360888888889,251.478995945882L220.82584444444444,254.19828050921478L233.81560000000002,256.7592296960135L246.80535555555554,259.08437291073784L259.7951111111111,261.34469069499124L272.7848666666667,263.6137775896741L285.7746222222222,266.26230589412734L298.7643777777777,268.77021408318507L311.7541333333333,271.2721579681563L324.7438888888889,273.53788715511735L337.7336444444444,275.46139145116496L350.72339999999997,277.71272817644416L363.71315555555555,279.6297154479693L376.7029111111111,281.42425044803474L389.69266666666664,283.2992684439302L402.6824222222222,285.47831318876075L415.6721777777778,287.6321011784307L428.6619333333333,289.511094245116L441.6516888888889,291.45806668004957L454.64144444444446,293.48753163329235L467.63120000000004,295.2893780277293L480.6209555555555,297.184805761179L493.6107111111111,298.91649339401766L506.60046666666665,300.7925557712169L519.5902222222222,302.5982367053672L532.5799777777778,304.2548483994394L545.5697333333334,305.8646746001117L558.559488888889,307.49984969643583L571.5492444444444,308.7373416235792" style="fill: none;" fill="none"></path></g><g><path stroke="rgb(255, 112, 67)" stroke-width="2px" d="M64.94877777777778,51.9712709910076L77.93853333333333,59.13943937683115L90.92828888888889,64.52246886909495L103.91804444444445,64.3797231177225L116.90780000000001,71.03200616142385L129.89755555555556,66.64988860400933L142.8873111111111,64.80088444506572L155.87706666666665,78.29338435111492L168.8668222222222,80.53427068710408L181.85657777777777,83.5179201387798L194.84633333333332,90.33655479384123L207.8360888888889,96.46839167586944L220.82584444444444,91.74681726677363L233.81560000000002,93.89590911537823L246.80535555555554,100.52826679321669L259.7951111111111,105.21631896730554L272.7848666666667,108.3140774875369L285.7746222222222,108.51184673271615L298.7643777777777,112.91849044825472L311.7541333333333,118.47934407847617L324.7438888888889,118.93187380761185L337.7336444444444,125.5316332749353L350.72339999999997,128.8219984975773L363.71315555555555,132.6340244469422L376.7029111111111,130.8492166048103L389.69266666666664,137.25442084708357L402.6824222222222,139.61003041832586L415.6721777777778,141.2071361520705L428.6619333333333,143.68714897939552L441.6516888888889,141.93604945515887L454.64144444444446,142.1428924100859L467.63120000000004,149.50896409083194L480.6209555555555,148.04642774243453L493.6107111111111,151.18493282316504L506.60046666666665,152.20710460621916L519.5902222222222,153.01501336274941L532.5799777777778,157.65051238729305L545.5697333333334,163.58275187239923L558.559488888889,165.994687947254L571.5492444444444,165.70416641311917" style="fill: none;" fill="none"></path></g></g></g></g><g opacity="0.2"><g><g><g><path stroke="rgb(0, 119, 187)" stroke-width="2px" d="M64.94877777777778,222.0901682807075L77.93853333333333,225.2965061459012L90.92828888888889,229.16333684455026L103.91804444444445,232.55667040676542L116.90780000000001,235.31416853332522L129.89755555555556,239.05007721116812L142.8873111111111,241.25935502115888L155.87706666666665,243.86465316942005L168.8668222222222,246.64455573357478L181.85657777777777,250.20160440402563L194.84633333333332,252.91066388617625L207.8360888888889,255.74563881089955L220.82584444444444,258.2683284183079L233.81560000000002,260.59563631015357L246.80535555555554,262.5693546142578L259.7951111111111,264.73357322014704L272.7848666666667,267.0164477301704L285.7746222222222,270.23442588975695L298.7643777777777,272.5316943122016L311.7541333333333,275.02484510803225L324.7438888888889,276.9363566775852L337.7336444444444,278.34658460150825L350.72339999999997,281.0896888156467L363.71315555555555,282.505173646715L376.7029111111111,284.11604019334584L389.69266666666664,286.1117874416775L402.6824222222222,288.7468747304281L415.6721777777778,290.86277985636394L428.6619333333333,292.3295821143256L441.6516888888889,294.37852425638835L454.64144444444446,296.53172839016383L467.63120000000004,297.9921472608778L480.6209555555555,300.0279471350776L493.6107111111111,301.5140247192383L506.60046666666665,303.6066492563883L519.5902222222222,305.3067580600315L532.5799777777778,306.73976591491703L545.5697333333334,308.27941388617626L558.559488888889,309.95261233181424L571.5492444444444,310.593579510159" style="fill: none;" fill="none"></path></g><g><path stroke="rgb(255, 112, 67)" stroke-width="2px" d="M64.94877777777778,51.9712709910076L77.93853333333333,63.440340408325255L90.92828888888889,69.69017718166782L103.91804444444445,64.21185411410869L116.90780000000001,79.71722690327971L129.89755555555556,60.58784245978467L142.8873111111111,62.15677891370996L155.87706666666665,97.96557874213329L168.8668222222222,83.83914276292597L181.85657777777777,87.94829184807679L194.84633333333332,100.502662261963L207.8360888888889,105.63277781338172L220.82584444444444,84.67987241278763L233.81560000000002,97.115336593628L246.80535555555554,110.46900722249353L259.7951111111111,112.24509085083014L272.7848666666667,112.95940440029574L285.7746222222222,108.80845038689512L298.7643777777777,119.52778471374518L311.7541333333333,126.82011623975973L324.7438888888889,119.61064358350973L337.7336444444444,135.43105530802413L350.72339999999997,133.75748136901862L363.71315555555555,138.35201821390794L376.7029111111111,128.17201752726243L389.69266666666664,146.86219989522306L402.6824222222222,143.14343874782992L415.6721777777778,143.6027923007542L428.6619333333333,147.40716593594027L441.6516888888889,139.3094011366103L454.64144444444446,142.45315677388515L467.63120000000004,160.55807014634883L480.6209555555555,145.85262339443636L493.6107111111111,155.89269021945537L506.60046666666665,153.7403622368707L519.5902222222222,154.22687647671174L532.5799777777778,164.60376085238994L545.5697333333334,172.48111104498975L558.559488888889,169.61259204610195L571.5492444444444,165.268384112888" style="fill: none;" fill="none"></path></g></g></g></g></g></g><g transform="translate(58, 377)" clip-path="url(#clip_1)"><clipPath id="clip_1"><rect width="584" height="21"></rect></clipPath><g><g><line x1="0" y1="0" x2="0" y2="5" style="visibility: inherit;" fill="rgb(0, 0, 0)" stroke="rgb(204, 204, 204)" stroke-width="1px"></line><line x1="64.94877777777778" y1="0" x2="64.94877777777778" y2="5" style="visibility: inherit;" fill="rgb(0, 0, 0)" stroke="rgb(204, 204, 204)" stroke-width="1px"></line><line x1="129.89755555555556" y1="0" x2="129.89755555555556" y2="5" style="visibility: inherit;" fill="rgb(0, 0, 0)" stroke="rgb(204, 204, 204)" stroke-width="1px"></line><line x1="194.84633333333332" y1="0" x2="194.84633333333332" y2="5" style="visibility: inherit;" fill="rgb(0, 0, 0)" stroke="rgb(204, 204, 204)" stroke-width="1px"></line><line x1="259.7951111111111" y1="0" x2="259.7951111111111" y2="5" style="visibility: inherit;" fill="rgb(0, 0, 0)" stroke="rgb(204, 204, 204)" stroke-width="1px"></line><line x1="324.7438888888889" y1="0" x2="324.7438888888889" y2="5" style="visibility: inherit;" fill="rgb(0, 0, 0)" stroke="rgb(204, 204, 204)" stroke-width="1px"></line><line x1="389.69266666666664" y1="0" x2="389.69266666666664" y2="5" style="visibility: inherit;" fill="rgb(0, 0, 0)" stroke="rgb(204, 204, 204)" stroke-width="1px"></line><line x1="454.64144444444446" y1="0" x2="454.64144444444446" y2="5" style="visibility: inherit;" fill="rgb(0, 0, 0)" stroke="rgb(204, 204, 204)" stroke-width="1px"></line><line x1="519.5902222222222" y1="0" x2="519.5902222222222" y2="5" style="visibility: inherit;" fill="rgb(0, 0, 0)" stroke="rgb(204, 204, 204)" stroke-width="1px"></line><line x1="584.539" y1="0" x2="584.539" y2="5" style="visibility: inherit;" fill="rgb(0, 0, 0)" stroke="rgb(204, 204, 204)" stroke-width="1px"></line></g><g transform="translate(0, 8)"><text x="0" y="0" dx="0em" dy="0.95em" style="text-anchor: middle; visibility: hidden; font-family: &quot;Helvetica Neue&quot;, sans-serif; font-size: 12px; font-weight: 200;" fill="rgb(50, 49, 63)" stroke="none" stroke-width="1px">-5</text><text x="64.94877777777778" y="0" dx="0em" dy="0.95em" style="text-anchor: middle; visibility: inherit; font-family: &quot;Helvetica Neue&quot;, sans-serif; font-size: 12px; font-weight: 200;" fill="rgb(50, 49, 63)" stroke="none" stroke-width="1px">0</text><text x="129.89755555555556" y="0" dx="0em" dy="0.95em" style="text-anchor: middle; visibility: inherit; font-family: &quot;Helvetica Neue&quot;, sans-serif; font-size: 12px; font-weight: 200;" fill="rgb(50, 49, 63)" stroke="none" stroke-width="1px">5</text><text x="194.84633333333332" y="0" dx="0em" dy="0.95em" style="text-anchor: middle; visibility: inherit; font-family: &quot;Helvetica Neue&quot;, sans-serif; font-size: 12px; font-weight: 200;" fill="rgb(50, 49, 63)" stroke="none" stroke-width="1px">10</text><text x="259.7951111111111" y="0" dx="0em" dy="0.95em" style="text-anchor: middle; visibility: inherit; font-family: &quot;Helvetica Neue&quot;, sans-serif; font-size: 12px; font-weight: 200;" fill="rgb(50, 49, 63)" stroke="none" stroke-width="1px">15</text><text x="324.7438888888889" y="0" dx="0em" dy="0.95em" style="text-anchor: middle; visibility: inherit; font-family: &quot;Helvetica Neue&quot;, sans-serif; font-size: 12px; font-weight: 200;" fill="rgb(50, 49, 63)" stroke="none" stroke-width="1px">20</text><text x="389.69266666666664" y="0" dx="0em" dy="0.95em" style="text-anchor: middle; visibility: inherit; font-family: &quot;Helvetica Neue&quot;, sans-serif; font-size: 12px; font-weight: 200;" fill="rgb(50, 49, 63)" stroke="none" stroke-width="1px">25</text><text x="454.64144444444446" y="0" dx="0em" dy="0.95em" style="text-anchor: middle; visibility: inherit; font-family: &quot;Helvetica Neue&quot;, sans-serif; font-size: 12px; font-weight: 200;" fill="rgb(50, 49, 63)" stroke="none" stroke-width="1px">30</text><text x="519.5902222222222" y="0" dx="0em" dy="0.95em" style="text-anchor: middle; visibility: inherit; font-family: &quot;Helvetica Neue&quot;, sans-serif; font-size: 12px; font-weight: 200;" fill="rgb(50, 49, 63)" stroke="none" stroke-width="1px">35</text><text x="584.539" y="0" dx="0em" dy="0.95em" style="text-anchor: middle; visibility: hidden; font-family: &quot;Helvetica Neue&quot;, sans-serif; font-size: 12px; font-weight: 200;" fill="rgb(50, 49, 63)" stroke="none" stroke-width="1px">40</text></g><line x1="0" y1="0" x2="584.539" y2="0" fill="rgb(0, 0, 0)" stroke="rgb(204, 204, 204)" stroke-width="1px"></line></g></g></g></g></svg>