<svg viewBox="0 0 639.5390625 399.984375" xmlns="http://www.w3.org/2000/svg"><g><g><g><g><g><line x1="58" y1="377.984" x2="53" y2="377.984" style="visibility: inherit;" fill="rgb(0, 0, 0)" stroke="rgb(204, 204, 204)" stroke-width="1px"></line><line x1="58" y1="340.18559999999997" x2="53" y2="340.18559999999997" style="visibility: inherit;" fill="rgb(0, 0, 0)" stroke="rgb(204, 204, 204)" stroke-width="1px"></line><line x1="58" y1="302.3872" x2="53" y2="302.3872" style="visibility: inherit;" fill="rgb(0, 0, 0)" stroke="rgb(204, 204, 204)" stroke-width="1px"></line><line x1="58" y1="264.5888" x2="53" y2="264.5888" style="visibility: inherit;" fill="rgb(0, 0, 0)" stroke="rgb(204, 204, 204)" stroke-width="1px"></line><line x1="58" y1="226.79039999999998" x2="53" y2="226.79039999999998" style="visibility: inherit;" fill="rgb(0, 0, 0)" stroke="rgb(204, 204, 204)" stroke-width="1px"></line><line x1="58" y1="188.992" x2="53" y2="188.992" style="visibility: inherit;" fill="rgb(0, 0, 0)" stroke="rgb(204, 204, 204)" stroke-width="1px"></line><line x1="58" y1="151.1936" x2="53" y2="151.1936" style="visibility: inherit;" fill="rgb(0, 0, 0)" stroke="rgb(204, 204, 204)" stroke-width="1px"></line><line x1="58" y1="113.39519999999999" x2="53" y2="113.39519999999999" style="visibility: inherit;" fill="rgb(0, 0, 0)" stroke="rgb(204, 204, 204)" stroke-width="1px"></line><line x1="58" y1="75.59680000000003" x2="53" y2="75.59680000000003" style="visibility: inherit;" fill="rgb(0, 0, 0)" stroke="rgb(204, 204, 204)" stroke-width="1px"></line><line x1="58" y1="37.798400000000015" x2="53" y2="37.798400000000015" style="visibility: inherit;" fill="rgb(0, 0, 0)" stroke="rgb(204, 204, 204)" stroke-width="1px"></line><line x1="58" y1="0" x2="53" y2="0" style="visibility: inherit;" fill="rgb(0, 0, 0)" stroke="rgb(204, 204, 204)" stroke-width="1px"></line></g><g transform="translate(48, 0)"><text x="0" y="377.984" dx="0em" dy="0.3em" style="text-anchor: end; visibility: hidden; font-family: &quot;Helvetica Neue&quot;, sans-serif; font-size: 12px; font-weight: 200;" fill="rgb(50, 49, 63)" stroke="none" stroke-width="1px">-0.2</text><text x="0" y="340.18559999999997" dx="0em" dy="0.3em" style="text-anchor: end; visibility: inherit; font-family: &quot;Helvetica Neue&quot;, sans-serif; font-size: 12px; font-weight: 200;" fill="rgb(50, 49, 63)" stroke="none" stroke-width="1px">0</text><text x="0" y="302.3872" dx="0em" dy="0.3em" style="text-anchor: end; visibility: inherit; font-family: &quot;Helvetica Neue&quot;, sans-serif; font-size: 12px; font-weight: 200;" fill="rgb(50, 49, 63)" stroke="none" stroke-width="1px">0.2</text><text x="0" y="264.5888" dx="0em" dy="0.3em" style="text-anchor: end; visibility: inherit; font-family: &quot;Helvetica Neue&quot;, sans-serif; font-size: 12px; font-weight: 200;" fill="rgb(50, 49, 63)" stroke="none" stroke-width="1px">0.4</text><text x="0" y="226.79039999999998" dx="0em" dy="0.3em" style="text-anchor: end; visibility: inherit; font-family: &quot;Helvetica Neue&quot;, sans-serif; font-size: 12px; font-weight: 200;" fill="rgb(50, 49, 63)" stroke="none" stroke-width="1px">0.6</text><text x="0" y="188.992" dx="0em" dy="0.3em" style="text-anchor: end; visibility: inherit; font-family: &quot;Helvetica Neue&quot;, sans-serif; font-size: 12px; font-weight: 200;" fill="rgb(50, 49, 63)" stroke="none" stroke-width="1px">0.8</text><text x="0" y="151.1936" dx="0em" dy="0.3em" style="text-anchor: end; visibility: inherit; font-family: &quot;Helvetica Neue&quot;, sans-serif; font-size: 12px; font-weight: 200;" fill="rgb(50, 49, 63)" stroke="none" stroke-width="1px">1</text><text x="0" y="113.39519999999999" dx="0em" dy="0.3em" style="text-anchor: end; visibility: inherit; font-family: &quot;Helvetica Neue&quot;, sans-serif; font-size: 12px; font-weight: 200;" fill="rgb(50, 49, 63)" stroke="none" stroke-width="1px">1.2</text><text x="0" y="75.59680000000003" dx="0em" dy="0.3em" style="text-anchor: end; visibility: inherit; font-family: &quot;Helvetica Neue&quot;, sans-serif; font-size: 12px; font-weight: 200;" fill="rgb(50, 49, 63)" stroke="none" stroke-width="1px">1.4</text><text x="0" y="37.798400000000015" dx="0em" dy="0.3em" style="text-anchor: end; visibility: inherit; font-family: &quot;Helvetica Neue&quot;, sans-serif; font-size: 12px; font-weight: 200;" fill="rgb(50, 49, 63)" stroke="none" stroke-width="1px">1.6</text><text x="0" y="0" dx="0em" dy="0.3em" style="text-anchor: end; visibility: hidden; font-family: &quot;Helvetica Neue&quot;, sans-serif; font-size: 12px; font-weight: 200;" fill="rgb(50, 49, 63)" stroke="none" stroke-width="1px">1.8</text></g><line x1="58" y1="0" x2="58" y2="377.984" fill="rgb(0, 0, 0)" stroke="rgb(204, 204, 204)" stroke-width="1px"></line></g></g><g transform="translate(58, 0)" clip-path="url(#clip_0)"><clipPath id="clip_0"><rect width="581" height="377"></rect></clipPath><g><g><g><line x1="0" y1="0" x2="0" y2="377.984" fill="rgb(0, 0, 0)" stroke="rgb(60, 60, 60)" stroke-width="1px" opacity="0.25"></line><line x1="48.46158333333333" y1="0" x2="48.46158333333333" y2="377.984" fill="rgb(0, 0, 0)" stroke="rgb(60, 60, 60)" stroke-width="1px" opacity="0.25"></line><line x1="96.92316666666666" y1="0" x2="96.92316666666666" y2="377.984" fill="rgb(0, 0, 0)" stroke="rgb(60, 60, 60)" stroke-width="1px" opacity="0.25"></line><line x1="145.38475" y1="0" x2="145.38475" y2="377.984" fill="rgb(0, 0, 0)" stroke="rgb(60, 60, 60)" stroke-width="1px" opacity="0.25"></line><line x1="193.84633333333332" y1="0" x2="193.84633333333332" y2="377.984" fill="rgb(0, 0, 0)" stroke="rgb(60, 60, 60)" stroke-width="1px" opacity="0.25"></line><line x1="242.30791666666667" y1="0" x2="242.30791666666667" y2="377.984" fill="rgb(0, 0, 0)" stroke="rgb(60, 60, 60)" stroke-width="1px" opacity="0.25"></line><line x1="290.7695" y1="0" x2="290.7695" y2="377.984" fill="rgb(0, 0, 0)" stroke="rgb(60, 60, 60)" stroke-width="1px" opacity="0.25"></line><line x1="339.23108333333334" y1="0" x2="339.23108333333334" y2="377.984" fill="rgb(0, 0, 0)" stroke="rgb(60, 60, 60)" stroke-width="1px" opacity="0.25"></line><line x1="387.69266666666664" y1="0" x2="387.69266666666664" y2="377.984" fill="rgb(0, 0, 0)" stroke="rgb(60, 60, 60)" stroke-width="1px" opacity="0.25"></line><line x1="436.15425" y1="0" x2="436.15425" y2="377.984" fill="rgb(0, 0, 0)" stroke="rgb(60, 60, 60)" stroke-width="1px" opacity="0.25"></line><line x1="484.61583333333334" y1="0" x2="484.61583333333334" y2="377.984" fill="rgb(0, 0, 0)" stroke="rgb(60, 60, 60)" stroke-width="1px" opacity="0.25"></line><line x1="533.0774166666666" y1="0" x2="533.0774166666666" y2="377.984" fill="rgb(0, 0, 0)" stroke="rgb(60, 60, 60)" stroke-width="1px" opacity="0.25"></line><line x1="581.539" y1="0" x2="581.539" y2="377.984" fill="rgb(0, 0, 0)" stroke="rgb(60, 60, 60)" stroke-width="1px" opacity="0.25"></line></g><g><line x1="0" y1="377.984" x2="581.539" y2="377.984" fill="rgb(0, 0, 0)" stroke="rgb(60, 60, 60)" stroke-width="1px" opacity="0.25"></line><line x1="0" y1="340.18559999999997" x2="581.539" y2="340.18559999999997" fill="rgb(0, 0, 0)" stroke="rgb(60, 60, 60)" stroke-width="1px" opacity="0.25"></line><line x1="0" y1="302.3872" x2="581.539" y2="302.3872" fill="rgb(0, 0, 0)" stroke="rgb(60, 60, 60)" stroke-width="1px" opacity="0.25"></line><line x1="0" y1="264.5888" x2="581.539" y2="264.5888" fill="rgb(0, 0, 0)" stroke="rgb(60, 60, 60)" stroke-width="1px" opacity="0.25"></line><line x1="0" y1="226.79039999999998" x2="581.539" y2="226.79039999999998" fill="rgb(0, 0, 0)" stroke="rgb(60, 60, 60)" stroke-width="1px" opacity="0.25"></line><line x1="0" y1="188.992" x2="581.539" y2="188.992" fill="rgb(0, 0, 0)" stroke="rgb(60, 60, 60)" stroke-width="1px" opacity="0.25"></line><line x1="0" y1="151.1936" x2="581.539" y2="151.1936" fill="rgb(0, 0, 0)" stroke="rgb(60, 60, 60)" stroke-width="1px" opacity="0.25"></line><line x1="0" y1="113.39519999999999" x2="581.539" y2="113.39519999999999" fill="rgb(0, 0, 0)" stroke="rgb(60, 60, 60)" stroke-width="1px" opacity="0.25"></line><line x1="0" y1="75.59680000000003" x2="581.539" y2="75.59680000000003" fill="rgb(0, 0, 0)" stroke="rgb(60, 60, 60)" stroke-width="1px" opacity="0.25"></line><line x1="0" y1="37.798400000000015" x2="581.539" y2="37.798400000000015" fill="rgb(0, 0, 0)" stroke="rgb(60, 60, 60)" stroke-width="1px" opacity="0.25"></line><line x1="0" y1="0" x2="581.539" y2="0" fill="rgb(0, 0, 0)" stroke="rgb(60, 60, 60)" stroke-width="1px" opacity="0.25"></line></g></g></g><g><g><line x1="0" y1="340.18559999999997" x2="581.539" y2="340.18559999999997" fill="rgb(0, 0, 0)" stroke="rgb(153, 153, 153)" stroke-width="1.5px"></line></g></g><g><g><line x1="48.46158333333333" y1="0" x2="48.46158333333333" y2="377.984" fill="rgb(0, 0, 0)" stroke="rgb(153, 153, 153)" stroke-width="1.5px"></line></g></g><g><g><g><g><g><path stroke="rgb(204, 51, 17)" stroke-width="2px" d="M48.46158333333333,29.49351105651857L58.1539,44.2140291734695L67.84621666666666,58.31623098315799L77.53853333333333,72.02915248257693L87.23084999999999,85.35241779917311L96.92316666666666,98.19591383046173L106.61548333333333,110.49870934040138L116.3078,122.15744298597465L126.00011666666667,133.10927537079888L135.69243333333333,143.37062772005893L145.38475,152.8896954305095L155.07706666666667,161.72145543869334L164.76938333333334,169.91716946241974L174.46169999999998,177.4620251885475L184.15401666666665,184.4179482224502L193.84633333333332,190.8231410613557L203.53865,196.70884940777202L213.23096666666666,202.10799912495781L222.92328333333333,207.10983080210428L232.6156,211.72353471075343L242.30791666666667,215.99492471052395L252.00023333333334,219.95965322259957L261.69255,223.65804416851972L271.38486666666665,227.08781110043378L281.0771833333333,230.2872525578171L290.7695,233.2591855050217L300.46181666666666,236.00954334069502L310.15413333333333,238.57246702745135L319.84645,240.97934050484935L329.5387666666667,243.21664136886858L339.23108333333334,245.3261771519204L348.92339999999996,247.3199403379211L358.6157166666667,249.1703834750749L368.3080333333333,250.927469688305L378.00035,252.58213979491916L387.69266666666664,254.1451480507879L397.3849833333333,255.60876462062794L407.0773,257.00280837456853L416.76961666666665,258.32172632925426L426.4619333333333,259.5497030414731L436.15425,260.7376894083867L445.84656666666666,261.84250080971776L455.53888333333333,262.899977859488L465.2312,263.9020435585178L474.92351666666667,264.8522822843488L484.61583333333334,265.7689893763122L494.30814999999996,266.6420610893515L504.0004666666667,267.46733442187895L513.6927833333333,268.27130717077733L523.3851,269.0289800275701" style="fill: none;" fill="none"></path></g><g><path stroke="rgb(0, 119, 187)" stroke-width="2px" d="M48.46158333333333,-16.12341334381108L58.1539,3.197733997917169L67.84621666666666,20.53072959414112L77.53853333333333,37.06903590697124L87.23084999999999,52.318363464001834L96.92316666666666,67.45849315300927L106.61548333333333,80.66631102450208L116.3078,93.65958626656362L126.00011666666667,106.0556953181424L135.69243333333333,116.89269924415049L145.38475,127.91631002603691L155.07706666666667,137.68688443795952L164.76938333333334,146.79422947671844L174.46169999999998,155.3509519468804L184.15401666666665,163.1223808648752L193.84633333333332,170.2289926196446L203.53865,176.8697719752014L213.23096666666666,182.91199306421709L222.92328333333333,188.6527942902156L232.6156,194.21885848767914L242.30791666666667,198.51065084666922L252.00023333333334,202.95114160952681L261.69255,207.42039901964273L271.38486666666665,211.5750313810381L281.0771833333333,214.84428314089993L290.7695,218.2568542494639L300.46181666666666,220.9623348429426L310.15413333333333,223.91754978841706L319.84645,226.6566571676926L329.5387666666667,229.2306252611933L339.23108333333334,231.62899043212093L348.92339999999996,234.1240304402052L358.6157166666667,236.33150732888507L368.3080333333333,238.3217882135102L378.00035,240.07907060296836L387.69266666666664,241.73487676209945L397.3849833333333,243.5939139683923L407.0773,245.2071008084427L416.76961666666665,246.67785560385136L426.4619333333333,248.1713676114386L436.15425,249.40449062614073L445.84656666666666,250.85573436646462L455.53888333333333,251.92434008139946L465.2312,252.857151461721L474.92351666666667,253.97429499229156L484.61583333333334,255.1252253877807L494.30814999999996,255.82832134856994L504.0004666666667,256.792245656301L513.6927833333333,257.908620655667L523.3851,258.7961018877311" style="fill: none;" fill="none"></path></g></g></g></g><g opacity="0.2"><g><g><g><path stroke="rgb(204, 51, 17)" stroke-width="2px" d="M48.46158333333333,29.49351105651857L58.1539,53.04634004364016L67.84621666666666,71.85434472045898L77.53853333333333,88.15554816589355L87.23084999999999,102.74727299652102L96.92316666666666,115.96309250030515L106.61548333333333,128.09190376434327L116.3078,139.15598856506347L126.00011666666667,149.26110085449218L135.69243333333333,158.60754005966186L145.38475,167.08195975265502L155.07706666666667,174.92103340301514L164.76938333333334,182.18398006973266L174.46169999999998,188.76452761993409L184.15401666666665,194.8436563468933L193.84633333333332,200.42641288146973L203.53865,205.5349212928772L213.23096666666666,210.20535285720825L222.92328333333333,214.61181633911133L232.6156,218.64366886291504L242.30791666666667,222.40177545700072L252.00023333333334,225.90661552963257L261.69255,229.2055575691223L271.38486666666665,232.2324208694458L281.0771833333333,235.0863920036316L290.7695,237.7170722518921L300.46181666666666,240.1350730567932L310.15413333333333,242.4168486228943L319.84645,244.58964850387574L329.5387666666667,246.57259142837523L339.23108333333334,248.49048012695312L348.92339999999996,250.3105847202301L358.6157166666667,251.9460479598999L368.3080333333333,253.5630988822937L378.00035,255.06414488372803L387.69266666666664,256.4896603942871L397.3849833333333,257.8041894527435L407.0773,259.0938739925384L416.76961666666665,260.30010325393675L426.4619333333333,261.39166810569765L436.15425,262.5196689563751L445.84656666666666,263.49971791038513L455.53888333333333,264.4861934333801L465.2312,265.40514210662843L474.92351666666667,266.2776403728485L484.61583333333334,267.1440500141144L494.30814999999996,267.95166865882874L504.0004666666667,268.7052444206238L513.6927833333333,269.4772662940979L523.3851,270.1654893127441" style="fill: none;" fill="none"></path></g><g><path stroke="rgb(0, 119, 187)" stroke-width="2px" d="M48.46158333333333,-16.12341334381108L58.1539,14.790422402954107L67.84621666666666,37.17040536651609L77.53853333333333,56.51808413085939L87.23084999999999,72.22788552246095L96.92316666666666,88.40274295959472L106.61548333333333,99.55370190582278L116.3078,112.60390630493163L126.00011666666667,124.33754834899904L135.69243333333333,132.9843870864868L145.38475,144.3517428604126L155.07706666666667,152.2895750213623L164.76938333333334,160.42550997314453L174.46169999999998,168.1692721420288L184.15401666666665,174.77038921890258L193.84633333333332,180.8838981185913L203.53865,186.8281308532715L213.23096666666666,191.9737905784607L222.92328333333333,197.26312157592773L232.6156,202.56744602355957L242.30791666666667,204.9481040130615L252.00023333333334,209.61173163757323L261.69255,214.12419689712524L271.38486666666665,217.80693070755004L281.0771833333333,219.74813754425048L290.7695,223.3756963592529L300.46181666666666,225.0205488105774L310.15413333333333,228.35036766967772L319.84645,230.76531571350097L329.5387666666667,233.09157597885132L339.23108333333334,235.22653739318847L348.92339999999996,237.8665899559021L358.6157166666667,239.64272239837646L368.3080333333333,241.3072093978882L378.00035,242.7149941116333L387.69266666666664,244.21858595809937L397.3849833333333,246.3824697490692L407.0773,247.6268810535431L416.76961666666665,248.88398778877257L426.4619333333333,250.41163561782838L436.15425,251.25417514572143L445.84656666666666,253.03259997520445L455.53888333333333,253.52724865303037L465.2312,254.2563685317993L474.92351666666667,255.65001028785707L484.61583333333334,256.8516209808349L494.30814999999996,256.8829652896881L504.0004666666667,258.23813211784363L513.6927833333333,259.58318315467835L523.3851,260.12732373580934" style="fill: none;" fill="none"></path></g></g></g></g></g><g><g opacity="0.00249825"><span fill="rgb(0, 0, 0)" stroke="none" stroke-width="1px">Alt + Scroll to Zoom</span></g></g></g><g transform="translate(58, 377)" clip-path="url(#clip_1)"><clipPath id="clip_1"><rect width="581" height="21"></rect></clipPath><g><g><line x1="0" y1="0" x2="0" y2="5" style="visibility: inherit;" fill="rgb(0, 0, 0)" stroke="rgb(204, 204, 204)" stroke-width="1px"></line><line x1="48.46158333333333" y1="0" x2="48.46158333333333" y2="5" style="visibility: inherit;" fill="rgb(0, 0, 0)" stroke="rgb(204, 204, 204)" stroke-width="1px"></line><line x1="96.92316666666666" y1="0" x2="96.92316666666666" y2="5" style="visibility: inherit;" fill="rgb(0, 0, 0)" stroke="rgb(204, 204, 204)" stroke-width="1px"></line><line x1="145.38475" y1="0" x2="145.38475" y2="5" style="visibility: inherit;" fill="rgb(0, 0, 0)" stroke="rgb(204, 204, 204)" stroke-width="1px"></line><line x1="193.84633333333332" y1="0" x2="193.84633333333332" y2="5" style="visibility: inherit;" fill="rgb(0, 0, 0)" stroke="rgb(204, 204, 204)" stroke-width="1px"></line><line x1="242.30791666666667" y1="0" x2="242.30791666666667" y2="5" style="visibility: inherit;" fill="rgb(0, 0, 0)" stroke="rgb(204, 204, 204)" stroke-width="1px"></line><line x1="290.7695" y1="0" x2="290.7695" y2="5" style="visibility: inherit;" fill="rgb(0, 0, 0)" stroke="rgb(204, 204, 204)" stroke-width="1px"></line><line x1="339.23108333333334" y1="0" x2="339.23108333333334" y2="5" style="visibility: inherit;" fill="rgb(0, 0, 0)" stroke="rgb(204, 204, 204)" stroke-width="1px"></line><line x1="387.69266666666664" y1="0" x2="387.69266666666664" y2="5" style="visibility: inherit;" fill="rgb(0, 0, 0)" stroke="rgb(204, 204, 204)" stroke-width="1px"></line><line x1="436.15425" y1="0" x2="436.15425" y2="5" style="visibility: inherit;" fill="rgb(0, 0, 0)" stroke="rgb(204, 204, 204)" stroke-width="1px"></line><line x1="484.61583333333334" y1="0" x2="484.61583333333334" y2="5" style="visibility: inherit;" fill="rgb(0, 0, 0)" stroke="rgb(204, 204, 204)" stroke-width="1px"></line><line x1="533.0774166666666" y1="0" x2="533.0774166666666" y2="5" style="visibility: inherit;" fill="rgb(0, 0, 0)" stroke="rgb(204, 204, 204)" stroke-width="1px"></line><line x1="581.539" y1="0" x2="581.539" y2="5" style="visibility: inherit;" fill="rgb(0, 0, 0)" stroke="rgb(204, 204, 204)" stroke-width="1px"></line></g><g transform="translate(0, 8)"><text x="0" y="0" dx="0em" dy="0.95em" style="text-anchor: middle; visibility: hidden; font-family: &quot;Helvetica Neue&quot;, sans-serif; font-size: 12px; font-weight: 200;" fill="rgb(50, 49, 63)" stroke="none" stroke-width="1px">-5</text><text x="48.46158333333333" y="0" dx="0em" dy="0.95em" style="text-anchor: middle; visibility: inherit; font-family: &quot;Helvetica Neue&quot;, sans-serif; font-size: 12px; font-weight: 200;" fill="rgb(50, 49, 63)" stroke="none" stroke-width="1px">0</text><text x="96.92316666666666" y="0" dx="0em" dy="0.95em" style="text-anchor: middle; visibility: inherit; font-family: &quot;Helvetica Neue&quot;, sans-serif; font-size: 12px; font-weight: 200;" fill="rgb(50, 49, 63)" stroke="none" stroke-width="1px">5</text><text x="145.38475" y="0" dx="0em" dy="0.95em" style="text-anchor: middle; visibility: inherit; font-family: &quot;Helvetica Neue&quot;, sans-serif; font-size: 12px; font-weight: 200;" fill="rgb(50, 49, 63)" stroke="none" stroke-width="1px">10</text><text x="193.84633333333332" y="0" dx="0em" dy="0.95em" style="text-anchor: middle; visibility: inherit; font-family: &quot;Helvetica Neue&quot;, sans-serif; font-size: 12px; font-weight: 200;" fill="rgb(50, 49, 63)" stroke="none" stroke-width="1px">15</text><text x="242.30791666666667" y="0" dx="0em" dy="0.95em" style="text-anchor: middle; visibility: inherit; font-family: &quot;Helvetica Neue&quot;, sans-serif; font-size: 12px; font-weight: 200;" fill="rgb(50, 49, 63)" stroke="none" stroke-width="1px">20</text><text x="290.7695" y="0" dx="0em" dy="0.95em" style="text-anchor: middle; visibility: inherit; font-family: &quot;Helvetica Neue&quot;, sans-serif; font-size: 12px; font-weight: 200;" fill="rgb(50, 49, 63)" stroke="none" stroke-width="1px">25</text><text x="339.23108333333334" y="0" dx="0em" dy="0.95em" style="text-anchor: middle; visibility: inherit; font-family: &quot;Helvetica Neue&quot;, sans-serif; font-size: 12px; font-weight: 200;" fill="rgb(50, 49, 63)" stroke="none" stroke-width="1px">30</text><text x="387.69266666666664" y="0" dx="0em" dy="0.95em" style="text-anchor: middle; visibility: inherit; font-family: &quot;Helvetica Neue&quot;, sans-serif; font-size: 12px; font-weight: 200;" fill="rgb(50, 49, 63)" stroke="none" stroke-width="1px">35</text><text x="436.15425" y="0" dx="0em" dy="0.95em" style="text-anchor: middle; visibility: inherit; font-family: &quot;Helvetica Neue&quot;, sans-serif; font-size: 12px; font-weight: 200;" fill="rgb(50, 49, 63)" stroke="none" stroke-width="1px">40</text><text x="484.61583333333334" y="0" dx="0em" dy="0.95em" style="text-anchor: middle; visibility: inherit; font-family: &quot;Helvetica Neue&quot;, sans-serif; font-size: 12px; font-weight: 200;" fill="rgb(50, 49, 63)" stroke="none" stroke-width="1px">45</text><text x="533.0774166666666" y="0" dx="0em" dy="0.95em" style="text-anchor: middle; visibility: inherit; font-family: &quot;Helvetica Neue&quot;, sans-serif; font-size: 12px; font-weight: 200;" fill="rgb(50, 49, 63)" stroke="none" stroke-width="1px">50</text><text x="581.539" y="0" dx="0em" dy="0.95em" style="text-anchor: middle; visibility: hidden; font-family: &quot;Helvetica Neue&quot;, sans-serif; font-size: 12px; font-weight: 200;" fill="rgb(50, 49, 63)" stroke="none" stroke-width="1px">55</text></g><line x1="0" y1="0" x2="581.539" y2="0" fill="rgb(0, 0, 0)" stroke="rgb(204, 204, 204)" stroke-width="1px"></line></g></g></g></g></svg>