<svg viewBox="0 0 642.5390625 399.984375" xmlns="http://www.w3.org/2000/svg"><g><g><g><g><g><line x1="58" y1="377.984" x2="53" y2="377.984" style="visibility: inherit;" fill="rgb(0, 0, 0)" stroke="rgb(204, 204, 204)" stroke-width="1px"></line><line x1="58" y1="335.98577777777774" x2="53" y2="335.98577777777774" style="visibility: inherit;" fill="rgb(0, 0, 0)" stroke="rgb(204, 204, 204)" stroke-width="1px"></line><line x1="58" y1="293.98755555555556" x2="53" y2="293.98755555555556" style="visibility: inherit;" fill="rgb(0, 0, 0)" stroke="rgb(204, 204, 204)" stroke-width="1px"></line><line x1="58" y1="251.98933333333332" x2="53" y2="251.98933333333332" style="visibility: inherit;" fill="rgb(0, 0, 0)" stroke="rgb(204, 204, 204)" stroke-width="1px"></line><line x1="58" y1="209.99111111111108" x2="53" y2="209.99111111111108" style="visibility: inherit;" fill="rgb(0, 0, 0)" stroke="rgb(204, 204, 204)" stroke-width="1px"></line><line x1="58" y1="167.99288888888887" x2="53" y2="167.99288888888887" style="visibility: inherit;" fill="rgb(0, 0, 0)" stroke="rgb(204, 204, 204)" stroke-width="1px"></line><line x1="58" y1="125.99466666666666" x2="53" y2="125.99466666666666" style="visibility: inherit;" fill="rgb(0, 0, 0)" stroke="rgb(204, 204, 204)" stroke-width="1px"></line><line x1="58" y1="83.99644444444448" x2="53" y2="83.99644444444448" style="visibility: inherit;" fill="rgb(0, 0, 0)" stroke="rgb(204, 204, 204)" stroke-width="1px"></line><line x1="58" y1="41.99822222222224" x2="53" y2="41.99822222222224" style="visibility: inherit;" fill="rgb(0, 0, 0)" stroke="rgb(204, 204, 204)" stroke-width="1px"></line><line x1="58" y1="0" x2="53" y2="0" style="visibility: inherit;" fill="rgb(0, 0, 0)" stroke="rgb(204, 204, 204)" stroke-width="1px"></line></g><g transform="translate(48, 0)"><text x="0" y="377.984" dx="0em" dy="0.3em" style="text-anchor: end; visibility: hidden; font-family: &quot;Helvetica Neue&quot;, sans-serif; font-size: 12px; font-weight: 200;" fill="rgb(50, 49, 63)" stroke="none" stroke-width="1px">-0.1</text><text x="0" y="335.98577777777774" dx="0em" dy="0.3em" style="text-anchor: end; visibility: inherit; font-family: &quot;Helvetica Neue&quot;, sans-serif; font-size: 12px; font-weight: 200;" fill="rgb(50, 49, 63)" stroke="none" stroke-width="1px">0</text><text x="0" y="293.98755555555556" dx="0em" dy="0.3em" style="text-anchor: end; visibility: inherit; font-family: &quot;Helvetica Neue&quot;, sans-serif; font-size: 12px; font-weight: 200;" fill="rgb(50, 49, 63)" stroke="none" stroke-width="1px">0.1</text><text x="0" y="251.98933333333332" dx="0em" dy="0.3em" style="text-anchor: end; visibility: inherit; font-family: &quot;Helvetica Neue&quot;, sans-serif; font-size: 12px; font-weight: 200;" fill="rgb(50, 49, 63)" stroke="none" stroke-width="1px">0.2</text><text x="0" y="209.99111111111108" dx="0em" dy="0.3em" style="text-anchor: end; visibility: inherit; font-family: &quot;Helvetica Neue&quot;, sans-serif; font-size: 12px; font-weight: 200;" fill="rgb(50, 49, 63)" stroke="none" stroke-width="1px">0.3</text><text x="0" y="167.99288888888887" dx="0em" dy="0.3em" style="text-anchor: end; visibility: inherit; font-family: &quot;Helvetica Neue&quot;, sans-serif; font-size: 12px; font-weight: 200;" fill="rgb(50, 49, 63)" stroke="none" stroke-width="1px">0.4</text><text x="0" y="125.99466666666666" dx="0em" dy="0.3em" style="text-anchor: end; visibility: inherit; font-family: &quot;Helvetica Neue&quot;, sans-serif; font-size: 12px; font-weight: 200;" fill="rgb(50, 49, 63)" stroke="none" stroke-width="1px">0.5</text><text x="0" y="83.99644444444448" dx="0em" dy="0.3em" style="text-anchor: end; visibility: inherit; font-family: &quot;Helvetica Neue&quot;, sans-serif; font-size: 12px; font-weight: 200;" fill="rgb(50, 49, 63)" stroke="none" stroke-width="1px">0.6</text><text x="0" y="41.99822222222224" dx="0em" dy="0.3em" style="text-anchor: end; visibility: inherit; font-family: &quot;Helvetica Neue&quot;, sans-serif; font-size: 12px; font-weight: 200;" fill="rgb(50, 49, 63)" stroke="none" stroke-width="1px">0.7</text><text x="0" y="0" dx="0em" dy="0.3em" style="text-anchor: end; visibility: hidden; font-family: &quot;Helvetica Neue&quot;, sans-serif; font-size: 12px; font-weight: 200;" fill="rgb(50, 49, 63)" stroke="none" stroke-width="1px">0.8</text></g><line x1="58" y1="0" x2="58" y2="377.984" fill="rgb(0, 0, 0)" stroke="rgb(204, 204, 204)" stroke-width="1px"></line></g></g><g transform="translate(58, 0)" clip-path="url(#clip_0)"><clipPath id="clip_0"><rect width="584" height="377"></rect></clipPath><g><g><g><line x1="0" y1="0" x2="0" y2="377.984" fill="rgb(0, 0, 0)" stroke="rgb(60, 60, 60)" stroke-width="1px" opacity="0.25"></line><line x1="83.50557142857143" y1="0" x2="83.50557142857143" y2="377.984" fill="rgb(0, 0, 0)" stroke="rgb(60, 60, 60)" stroke-width="1px" opacity="0.25"></line><line x1="167.01114285714286" y1="0" x2="167.01114285714286" y2="377.984" fill="rgb(0, 0, 0)" stroke="rgb(60, 60, 60)" stroke-width="1px" opacity="0.25"></line><line x1="250.51671428571427" y1="0" x2="250.51671428571427" y2="377.984" fill="rgb(0, 0, 0)" stroke="rgb(60, 60, 60)" stroke-width="1px" opacity="0.25"></line><line x1="334.0222857142857" y1="0" x2="334.0222857142857" y2="377.984" fill="rgb(0, 0, 0)" stroke="rgb(60, 60, 60)" stroke-width="1px" opacity="0.25"></line><line x1="417.52785714285716" y1="0" x2="417.52785714285716" y2="377.984" fill="rgb(0, 0, 0)" stroke="rgb(60, 60, 60)" stroke-width="1px" opacity="0.25"></line><line x1="501.03342857142854" y1="0" x2="501.03342857142854" y2="377.984" fill="rgb(0, 0, 0)" stroke="rgb(60, 60, 60)" stroke-width="1px" opacity="0.25"></line><line x1="584.539" y1="0" x2="584.539" y2="377.984" fill="rgb(0, 0, 0)" stroke="rgb(60, 60, 60)" stroke-width="1px" opacity="0.25"></line></g><g><line x1="0" y1="377.984" x2="584.539" y2="377.984" fill="rgb(0, 0, 0)" stroke="rgb(60, 60, 60)" stroke-width="1px" opacity="0.25"></line><line x1="0" y1="335.98577777777774" x2="584.539" y2="335.98577777777774" fill="rgb(0, 0, 0)" stroke="rgb(60, 60, 60)" stroke-width="1px" opacity="0.25"></line><line x1="0" y1="293.98755555555556" x2="584.539" y2="293.98755555555556" fill="rgb(0, 0, 0)" stroke="rgb(60, 60, 60)" stroke-width="1px" opacity="0.25"></line><line x1="0" y1="251.98933333333332" x2="584.539" y2="251.98933333333332" fill="rgb(0, 0, 0)" stroke="rgb(60, 60, 60)" stroke-width="1px" opacity="0.25"></line><line x1="0" y1="209.99111111111108" x2="584.539" y2="209.99111111111108" fill="rgb(0, 0, 0)" stroke="rgb(60, 60, 60)" stroke-width="1px" opacity="0.25"></line><line x1="0" y1="167.99288888888887" x2="584.539" y2="167.99288888888887" fill="rgb(0, 0, 0)" stroke="rgb(60, 60, 60)" stroke-width="1px" opacity="0.25"></line><line x1="0" y1="125.99466666666666" x2="584.539" y2="125.99466666666666" fill="rgb(0, 0, 0)" stroke="rgb(60, 60, 60)" stroke-width="1px" opacity="0.25"></line><line x1="0" y1="83.99644444444448" x2="584.539" y2="83.99644444444448" fill="rgb(0, 0, 0)" stroke="rgb(60, 60, 60)" stroke-width="1px" opacity="0.25"></line><line x1="0" y1="41.99822222222224" x2="584.539" y2="41.99822222222224" fill="rgb(0, 0, 0)" stroke="rgb(60, 60, 60)" stroke-width="1px" opacity="0.25"></line><line x1="0" y1="0" x2="584.539" y2="0" fill="rgb(0, 0, 0)" stroke="rgb(60, 60, 60)" stroke-width="1px" opacity="0.25"></line></g></g></g><g><g><line x1="0" y1="335.98577777777774" x2="584.539" y2="335.98577777777774" fill="rgb(0, 0, 0)" stroke="rgb(153, 153, 153)" stroke-width="1.5px"></line></g></g><g><g><line x1="83.50557142857143" y1="0" x2="83.50557142857143" y2="377.984" fill="rgb(0, 0, 0)" stroke="rgb(153, 153, 153)" stroke-width="1.5px"></line></g></g><g><g><g><g><g><path stroke="rgb(187, 187, 187)" stroke-width="2px" d="M83.50557142857143,178.21245155673552L100.20668571428571,157.56332811323801L116.90780000000001,139.8140847086485L133.6089142857143,126.57935369346032L150.31002857142855,116.42853856279856L167.01114285714286,109.63443611658874L183.71225714285714,104.84492748953551L200.41337142857142,102.1724069749227L217.1144857142857,100.08880262580925L233.81560000000002,99.92259088226103L250.51671428571427,101.73436350969064L267.2178285714286,102.03153082452803L283.91894285714284,100.58335921642288L300.6200571428571,99.54754523116708L317.3211714285714,97.35790888115099L334.0222857142857,96.04478615892265L350.72339999999997,93.63294101130299L367.4245142857143,90.05796318583458L384.12562857142854,87.52120996256042L400.82674285714285,84.03926012145041L417.52785714285716,81.05419482480187L434.2289714285714,78.08722696966379L450.9300857142857,75.4671009729986L467.63120000000004,72.04711184888276L484.3323142857143,70.21912369277004L501.03342857142854,68.33836271546238L517.7345428571429,66.25794640955081L534.4356571428572,64.00174300032944L551.1367714285714,61.92004507183805L567.8378857142857,60.16705451607669" style="fill: none;" fill="none"></path></g><g><path stroke="rgb(0, 153, 136)" stroke-width="2px" d="M83.50557142857143,223.52367429012722L100.20668571428571,183.79683585506018L116.90780000000001,152.1988917689594L133.6089142857143,127.99904832976469L150.31002857142855,109.45131194187348L167.01114285714286,94.04238901718111L183.71225714285714,84.18665233326237L200.41337142857142,76.5778673718383L217.1144857142857,70.69251955857845L233.81560000000002,66.81411709952448L250.51671428571427,64.05761437994022L267.2178285714286,62.25417309511823L283.91894285714284,61.5102327720856L300.6200571428571,60.90875440781235L317.3211714285714,60.847573173572755L334.0222857142857,60.63127625802309L350.72339999999997,60.75296001853053L367.4245142857143,59.89216545450097L384.12562857142854,60.65665563277355L400.82674285714285,60.193565157516844L417.52785714285716,59.3411341595575L434.2289714285714,57.967803754768L450.9300857142857,57.23958366537954L467.63120000000004,56.7787137218304L484.3323142857143,55.85578198667247L501.03342857142854,54.55985821471137L517.7345428571429,53.85412981117554L534.4356571428572,53.57434206222007L551.1367714285714,52.78400142168471L567.8378857142857,51.555666190859995" style="fill: none;" fill="none"></path></g></g></g></g><g opacity="0.2"><g><g><g><path stroke="rgb(187, 187, 187)" stroke-width="2px" d="M83.50557142857143,178.2124515567356L100.20668571428571,145.1738540471395L116.90780000000001,122.77481104024253L133.6089142857143,111.0153100195991L150.31002857142855,103.1756343282064L167.01114285714286,100.23574655659996L183.71225714285714,97.99585352071131L200.41337142857142,98.2758464084202L217.1144857142857,97.01589093017577L233.81560000000002,99.67578581407332L250.51671428571427,104.43558980645076L267.2178285714286,102.47566462537975L283.91894285714284,98.41583033582901L300.6200571428571,97.99585352071131L317.3211714285714,94.07602819146052L334.0222857142857,94.07602819146052L350.72339999999997,90.01619390190973L367.4245142857143,84.69640413411463L384.12562857142854,83.71646657647028L400.82674285714285,78.81665362379289L417.52785714285716,76.57676058790418L434.2289714285714,73.63687281629774L450.9300857142857,71.53696370781796L467.63120000000004,66.91716867574058L484.3323142857143,67.47715445115836L501.03342857142854,65.51722927008734L517.7345428571429,63.13732727389868L534.4356571428572,60.617441350301135L551.1367714285714,58.797500096639L567.8378857142857,57.53756965128582" style="fill: none;" fill="none"></path></g><g><path stroke="rgb(0, 153, 136)" stroke-width="2px" d="M83.50557142857143,223.52367429012722L100.20668571428571,159.96073279401992L116.90780000000001,121.86486544630264L133.6089142857143,99.54003244527183L150.31002857142855,85.23538731384275L167.01114285714286,72.72630140007868L183.71225714285714,70.09279118347166L200.41337142857142,65.48418585374623L217.1144857142857,62.01277470397952L233.81560000000002,61.05514145236549L250.51671428571427,59.94786157735189L267.2178285714286,59.55882541571725L283.91894285714284,60.39675138176813L300.6200571428571,60.00771522013349L317.3211714285714,60.75587323845758L334.0222857142857,60.30698343404134L350.72339999999997,60.93543416680234L367.4245142857143,58.601192164103225L384.12562857142854,61.80327443779839L400.82674285714285,59.498971772935704L417.52785714285716,58.0625344119602L434.2289714285714,55.90785333760584L450.9300857142857,56.14726790873209L467.63120000000004,56.08741426595054L484.3323142857143,54.47139094373915L501.03342857142854,52.615978083292646L517.7345428571429,52.7955390116374L534.4356571428572,53.15466086832686L551.1367714285714,51.598491188897015L567.8378857142857,49.71316402350533" style="fill: none;" fill="none"></path></g></g></g></g></g></g><g transform="translate(58, 377)" clip-path="url(#clip_1)"><clipPath id="clip_1"><rect width="584" height="21"></rect></clipPath><g><g><line x1="0" y1="0" x2="0" y2="5" style="visibility: inherit;" fill="rgb(0, 0, 0)" stroke="rgb(204, 204, 204)" stroke-width="1px"></line><line x1="83.50557142857143" y1="0" x2="83.50557142857143" y2="5" style="visibility: inherit;" fill="rgb(0, 0, 0)" stroke="rgb(204, 204, 204)" stroke-width="1px"></line><line x1="167.01114285714286" y1="0" x2="167.01114285714286" y2="5" style="visibility: inherit;" fill="rgb(0, 0, 0)" stroke="rgb(204, 204, 204)" stroke-width="1px"></line><line x1="250.51671428571427" y1="0" x2="250.51671428571427" y2="5" style="visibility: inherit;" fill="rgb(0, 0, 0)" stroke="rgb(204, 204, 204)" stroke-width="1px"></line><line x1="334.0222857142857" y1="0" x2="334.0222857142857" y2="5" style="visibility: inherit;" fill="rgb(0, 0, 0)" stroke="rgb(204, 204, 204)" stroke-width="1px"></line><line x1="417.52785714285716" y1="0" x2="417.52785714285716" y2="5" style="visibility: inherit;" fill="rgb(0, 0, 0)" stroke="rgb(204, 204, 204)" stroke-width="1px"></line><line x1="501.03342857142854" y1="0" x2="501.03342857142854" y2="5" style="visibility: inherit;" fill="rgb(0, 0, 0)" stroke="rgb(204, 204, 204)" stroke-width="1px"></line><line x1="584.539" y1="0" x2="584.539" y2="5" style="visibility: inherit;" fill="rgb(0, 0, 0)" stroke="rgb(204, 204, 204)" stroke-width="1px"></line></g><g transform="translate(0, 8)"><text x="0" y="0" dx="0em" dy="0.95em" style="text-anchor: middle; visibility: hidden; font-family: &quot;Helvetica Neue&quot;, sans-serif; font-size: 12px; font-weight: 200;" fill="rgb(50, 49, 63)" stroke="none" stroke-width="1px">-5</text><text x="83.50557142857143" y="0" dx="0em" dy="0.95em" style="text-anchor: middle; visibility: inherit; font-family: &quot;Helvetica Neue&quot;, sans-serif; font-size: 12px; font-weight: 200;" fill="rgb(50, 49, 63)" stroke="none" stroke-width="1px">0</text><text x="167.01114285714286" y="0" dx="0em" dy="0.95em" style="text-anchor: middle; visibility: inherit; font-family: &quot;Helvetica Neue&quot;, sans-serif; font-size: 12px; font-weight: 200;" fill="rgb(50, 49, 63)" stroke="none" stroke-width="1px">5</text><text x="250.51671428571427" y="0" dx="0em" dy="0.95em" style="text-anchor: middle; visibility: inherit; font-family: &quot;Helvetica Neue&quot;, sans-serif; font-size: 12px; font-weight: 200;" fill="rgb(50, 49, 63)" stroke="none" stroke-width="1px">10</text><text x="334.0222857142857" y="0" dx="0em" dy="0.95em" style="text-anchor: middle; visibility: inherit; font-family: &quot;Helvetica Neue&quot;, sans-serif; font-size: 12px; font-weight: 200;" fill="rgb(50, 49, 63)" stroke="none" stroke-width="1px">15</text><text x="417.52785714285716" y="0" dx="0em" dy="0.95em" style="text-anchor: middle; visibility: inherit; font-family: &quot;Helvetica Neue&quot;, sans-serif; font-size: 12px; font-weight: 200;" fill="rgb(50, 49, 63)" stroke="none" stroke-width="1px">20</text><text x="501.03342857142854" y="0" dx="0em" dy="0.95em" style="text-anchor: middle; visibility: inherit; font-family: &quot;Helvetica Neue&quot;, sans-serif; font-size: 12px; font-weight: 200;" fill="rgb(50, 49, 63)" stroke="none" stroke-width="1px">25</text><text x="584.539" y="0" dx="0em" dy="0.95em" style="text-anchor: middle; visibility: hidden; font-family: &quot;Helvetica Neue&quot;, sans-serif; font-size: 12px; font-weight: 200;" fill="rgb(50, 49, 63)" stroke="none" stroke-width="1px">30</text></g><line x1="0" y1="0" x2="584.539" y2="0" fill="rgb(0, 0, 0)" stroke="rgb(204, 204, 204)" stroke-width="1px"></line></g></g></g></g></svg>