<svg viewBox="0 0 1195.546875 399.984375" xmlns="http://www.w3.org/2000/svg"><g><g><g><g><g><line x1="58" y1="377.984" x2="53" y2="377.984" style="visibility: inherit;" fill="rgb(0, 0, 0)" stroke="rgb(204, 204, 204)" stroke-width="1px"></line><line x1="58" y1="335.98577777777774" x2="53" y2="335.98577777777774" style="visibility: inherit;" fill="rgb(0, 0, 0)" stroke="rgb(204, 204, 204)" stroke-width="1px"></line><line x1="58" y1="293.98755555555556" x2="53" y2="293.98755555555556" style="visibility: inherit;" fill="rgb(0, 0, 0)" stroke="rgb(204, 204, 204)" stroke-width="1px"></line><line x1="58" y1="251.98933333333332" x2="53" y2="251.98933333333332" style="visibility: inherit;" fill="rgb(0, 0, 0)" stroke="rgb(204, 204, 204)" stroke-width="1px"></line><line x1="58" y1="209.99111111111108" x2="53" y2="209.99111111111108" style="visibility: inherit;" fill="rgb(0, 0, 0)" stroke="rgb(204, 204, 204)" stroke-width="1px"></line><line x1="58" y1="167.99288888888887" x2="53" y2="167.99288888888887" style="visibility: inherit;" fill="rgb(0, 0, 0)" stroke="rgb(204, 204, 204)" stroke-width="1px"></line><line x1="58" y1="125.99466666666666" x2="53" y2="125.99466666666666" style="visibility: inherit;" fill="rgb(0, 0, 0)" stroke="rgb(204, 204, 204)" stroke-width="1px"></line><line x1="58" y1="83.99644444444448" x2="53" y2="83.99644444444448" style="visibility: inherit;" fill="rgb(0, 0, 0)" stroke="rgb(204, 204, 204)" stroke-width="1px"></line><line x1="58" y1="41.99822222222224" x2="53" y2="41.99822222222224" style="visibility: inherit;" fill="rgb(0, 0, 0)" stroke="rgb(204, 204, 204)" stroke-width="1px"></line><line x1="58" y1="0" x2="53" y2="0" style="visibility: inherit;" fill="rgb(0, 0, 0)" stroke="rgb(204, 204, 204)" stroke-width="1px"></line></g><g transform="translate(48, 0)"><text x="0" y="377.984" dx="0em" dy="0.3em" style="text-anchor: end; visibility: hidden; font-family: &quot;Helvetica Neue&quot;, sans-serif; font-size: 12px; font-weight: 200;" fill="rgb(50, 49, 63)" stroke="none" stroke-width="1px">-0.1</text><text x="0" y="335.98577777777774" dx="0em" dy="0.3em" style="text-anchor: end; visibility: inherit; font-family: &quot;Helvetica Neue&quot;, sans-serif; font-size: 12px; font-weight: 200;" fill="rgb(50, 49, 63)" stroke="none" stroke-width="1px">0</text><text x="0" y="293.98755555555556" dx="0em" dy="0.3em" style="text-anchor: end; visibility: inherit; font-family: &quot;Helvetica Neue&quot;, sans-serif; font-size: 12px; font-weight: 200;" fill="rgb(50, 49, 63)" stroke="none" stroke-width="1px">0.1</text><text x="0" y="251.98933333333332" dx="0em" dy="0.3em" style="text-anchor: end; visibility: inherit; font-family: &quot;Helvetica Neue&quot;, sans-serif; font-size: 12px; font-weight: 200;" fill="rgb(50, 49, 63)" stroke="none" stroke-width="1px">0.2</text><text x="0" y="209.99111111111108" dx="0em" dy="0.3em" style="text-anchor: end; visibility: inherit; font-family: &quot;Helvetica Neue&quot;, sans-serif; font-size: 12px; font-weight: 200;" fill="rgb(50, 49, 63)" stroke="none" stroke-width="1px">0.3</text><text x="0" y="167.99288888888887" dx="0em" dy="0.3em" style="text-anchor: end; visibility: inherit; font-family: &quot;Helvetica Neue&quot;, sans-serif; font-size: 12px; font-weight: 200;" fill="rgb(50, 49, 63)" stroke="none" stroke-width="1px">0.4</text><text x="0" y="125.99466666666666" dx="0em" dy="0.3em" style="text-anchor: end; visibility: inherit; font-family: &quot;Helvetica Neue&quot;, sans-serif; font-size: 12px; font-weight: 200;" fill="rgb(50, 49, 63)" stroke="none" stroke-width="1px">0.5</text><text x="0" y="83.99644444444448" dx="0em" dy="0.3em" style="text-anchor: end; visibility: inherit; font-family: &quot;Helvetica Neue&quot;, sans-serif; font-size: 12px; font-weight: 200;" fill="rgb(50, 49, 63)" stroke="none" stroke-width="1px">0.6</text><text x="0" y="41.99822222222224" dx="0em" dy="0.3em" style="text-anchor: end; visibility: inherit; font-family: &quot;Helvetica Neue&quot;, sans-serif; font-size: 12px; font-weight: 200;" fill="rgb(50, 49, 63)" stroke="none" stroke-width="1px">0.7</text><text x="0" y="0" dx="0em" dy="0.3em" style="text-anchor: end; visibility: hidden; font-family: &quot;Helvetica Neue&quot;, sans-serif; font-size: 12px; font-weight: 200;" fill="rgb(50, 49, 63)" stroke="none" stroke-width="1px">0.8</text></g><line x1="58" y1="0" x2="58" y2="377.984" fill="rgb(0, 0, 0)" stroke="rgb(204, 204, 204)" stroke-width="1px"></line></g></g><g transform="translate(58, 0)" clip-path="url(#clip_0)"><clipPath id="clip_0"><rect width="584" height="377"></rect></clipPath><g><g><g><line x1="0" y1="0" x2="0" y2="377.984" fill="rgb(0, 0, 0)" stroke="rgb(60, 60, 60)" stroke-width="1px" opacity="0.25"></line><line x1="48.71158333333333" y1="0" x2="48.71158333333333" y2="377.984" fill="rgb(0, 0, 0)" stroke="rgb(60, 60, 60)" stroke-width="1px" opacity="0.25"></line><line x1="97.42316666666666" y1="0" x2="97.42316666666666" y2="377.984" fill="rgb(0, 0, 0)" stroke="rgb(60, 60, 60)" stroke-width="1px" opacity="0.25"></line><line x1="146.13475" y1="0" x2="146.13475" y2="377.984" fill="rgb(0, 0, 0)" stroke="rgb(60, 60, 60)" stroke-width="1px" opacity="0.25"></line><line x1="194.84633333333332" y1="0" x2="194.84633333333332" y2="377.984" fill="rgb(0, 0, 0)" stroke="rgb(60, 60, 60)" stroke-width="1px" opacity="0.25"></line><line x1="243.55791666666667" y1="0" x2="243.55791666666667" y2="377.984" fill="rgb(0, 0, 0)" stroke="rgb(60, 60, 60)" stroke-width="1px" opacity="0.25"></line><line x1="292.2695" y1="0" x2="292.2695" y2="377.984" fill="rgb(0, 0, 0)" stroke="rgb(60, 60, 60)" stroke-width="1px" opacity="0.25"></line><line x1="340.98108333333334" y1="0" x2="340.98108333333334" y2="377.984" fill="rgb(0, 0, 0)" stroke="rgb(60, 60, 60)" stroke-width="1px" opacity="0.25"></line><line x1="389.69266666666664" y1="0" x2="389.69266666666664" y2="377.984" fill="rgb(0, 0, 0)" stroke="rgb(60, 60, 60)" stroke-width="1px" opacity="0.25"></line><line x1="438.40425" y1="0" x2="438.40425" y2="377.984" fill="rgb(0, 0, 0)" stroke="rgb(60, 60, 60)" stroke-width="1px" opacity="0.25"></line><line x1="487.11583333333334" y1="0" x2="487.11583333333334" y2="377.984" fill="rgb(0, 0, 0)" stroke="rgb(60, 60, 60)" stroke-width="1px" opacity="0.25"></line><line x1="535.8274166666666" y1="0" x2="535.8274166666666" y2="377.984" fill="rgb(0, 0, 0)" stroke="rgb(60, 60, 60)" stroke-width="1px" opacity="0.25"></line><line x1="584.539" y1="0" x2="584.539" y2="377.984" fill="rgb(0, 0, 0)" stroke="rgb(60, 60, 60)" stroke-width="1px" opacity="0.25"></line></g><g><line x1="0" y1="377.984" x2="584.539" y2="377.984" fill="rgb(0, 0, 0)" stroke="rgb(60, 60, 60)" stroke-width="1px" opacity="0.25"></line><line x1="0" y1="335.98577777777774" x2="584.539" y2="335.98577777777774" fill="rgb(0, 0, 0)" stroke="rgb(60, 60, 60)" stroke-width="1px" opacity="0.25"></line><line x1="0" y1="293.98755555555556" x2="584.539" y2="293.98755555555556" fill="rgb(0, 0, 0)" stroke="rgb(60, 60, 60)" stroke-width="1px" opacity="0.25"></line><line x1="0" y1="251.98933333333332" x2="584.539" y2="251.98933333333332" fill="rgb(0, 0, 0)" stroke="rgb(60, 60, 60)" stroke-width="1px" opacity="0.25"></line><line x1="0" y1="209.99111111111108" x2="584.539" y2="209.99111111111108" fill="rgb(0, 0, 0)" stroke="rgb(60, 60, 60)" stroke-width="1px" opacity="0.25"></line><line x1="0" y1="167.99288888888887" x2="584.539" y2="167.99288888888887" fill="rgb(0, 0, 0)" stroke="rgb(60, 60, 60)" stroke-width="1px" opacity="0.25"></line><line x1="0" y1="125.99466666666666" x2="584.539" y2="125.99466666666666" fill="rgb(0, 0, 0)" stroke="rgb(60, 60, 60)" stroke-width="1px" opacity="0.25"></line><line x1="0" y1="83.99644444444448" x2="584.539" y2="83.99644444444448" fill="rgb(0, 0, 0)" stroke="rgb(60, 60, 60)" stroke-width="1px" opacity="0.25"></line><line x1="0" y1="41.99822222222224" x2="584.539" y2="41.99822222222224" fill="rgb(0, 0, 0)" stroke="rgb(60, 60, 60)" stroke-width="1px" opacity="0.25"></line><line x1="0" y1="0" x2="584.539" y2="0" fill="rgb(0, 0, 0)" stroke="rgb(60, 60, 60)" stroke-width="1px" opacity="0.25"></line></g></g></g><g><g><line x1="0" y1="335.98577777777774" x2="584.539" y2="335.98577777777774" fill="rgb(0, 0, 0)" stroke="rgb(153, 153, 153)" stroke-width="1.5px"></line></g></g><g><g><line x1="48.71158333333333" y1="0" x2="48.71158333333333" y2="377.984" fill="rgb(0, 0, 0)" stroke="rgb(153, 153, 153)" stroke-width="1.5px"></line></g></g><g><g><g><g><g><path stroke="rgb(255, 112, 67)" stroke-width="2px" d="M48.71158333333333,264.5887992490133L58.453900000000004,263.2763560562134L68.19621666666667,262.8745877318869L77.93853333333333,265.9784461329747L87.68084999999999,267.56160777405694L97.42316666666666,268.42886066014927L107.16548333333333,268.9225705585634L116.90780000000001,269.2098001341072L126.65011666666666,269.37901886040703L136.39243333333334,269.47945204235134L146.13475,269.53932187646797L155.87706666666665,269.5751044618421L165.61938333333333,269.59652409769785L175.36169999999998,269.6093579608298L185.10401666666667,269.61705183910556L194.84633333333332,269.6216658501881L204.58864999999997,269.6244334236322L214.33096666666665,269.62609366785523L224.07328333333334,269.6270897064693L233.81560000000002,269.62768729079176L243.55791666666667,269.6280458274018L253.30023333333332,265.2043901894667L263.04255,266.974081534529L272.7848666666667,268.0358873970201L282.5271833333333,268.6729676945112L292.2695,269.0552147138119L302.0118166666667,269.2845625080839L311.7541333333333,265.78232384122L321.49645000000004,263.0090113559053L331.23876666666666,257.8731695192205L340.98108333333334,253.72770955246853L350.72339999999997,251.63241899174633L360.46571666666665,249.92726363017874L370.20803333333333,257.639801118095L379.95035,260.5873936504697L389.69266666666664,263.6998924827276L399.4349833333333,265.62339033942425L409.17729999999995,262.52166722894145L418.9196166666667,259.8766683024261L428.6619333333333,264.6174005795354L438.40425,266.1178966092668" style="fill: none;" fill="none"></path></g><g><path stroke="rgb(187, 187, 187)" stroke-width="2px" d="M48.71158333333333,296.2439790611267L58.453900000000004,281.28095168187883L68.19621666666667,275.14305838978044L77.93853333333333,268.43310559147477L87.68084999999999,260.091293516671L97.42316666666666,252.48305436071018L107.16548333333333,246.2922453937874L116.90780000000001,240.30428559457005L126.65011666666666,234.27342907838175L136.39243333333334,228.17701242426804L146.13475,223.11317201596177L155.87706666666665,217.57937618312707L165.61938333333333,211.8696015581944L175.36169999999998,205.74107701650192L185.10401666666667,198.09099116046102L194.84633333333332,189.02504166958133L204.58864999999997,178.84601825999587L214.33096666666665,169.06441522188902L224.07328333333334,159.80825171525953L233.81560000000002,150.55591936577568L243.55791666666667,141.2818533352591L253.30023333333332,131.1208388063478L263.04255,121.03813673274993L272.7848666666667,115.80255982209337L282.5271833333333,105.65850866882352L292.2695,93.86220437691446L302.0118166666667,84.94098064827551L311.7541333333333,81.43170553189981L321.49645000000004,79.45781489734833L331.23876666666666,68.93655095976266L340.98108333333334,61.72601435791887L350.72339999999997,56.5378205105971L360.46571666666665,50.00136605428827L370.20803333333333,43.67343214387L379.95035,37.745942272938805L389.69266666666664,31.986884404296802L399.4349833333333,25.73037932686765L409.17729999999995,18.050177455704727L418.9196166666667,12.233037797268253L428.6619333333333,5.8938007155413175L438.40425,1.7670538072270006" style="fill: none;" fill="none"></path></g></g></g></g><g opacity="0.2"><g><g><g><path stroke="rgb(255, 112, 67)" stroke-width="2px" d="M48.71158333333333,264.5887992490133L58.453900000000004,262.48889014053344L68.19621666666667,262.48889014053344L77.93853333333333,269.6285836126539L87.68084999999999,269.6285836126539L97.42316666666666,269.6285836126539L107.16548333333333,269.6285836126539L116.90780000000001,269.6285836126539L126.65011666666666,269.6285836126539L136.39243333333334,269.6285836126539L146.13475,269.6285836126539L155.87706666666665,269.6285836126539L165.61938333333333,269.6285836126539L175.36169999999998,269.6285836126539L185.10401666666667,269.6285836126539L194.84633333333332,269.6285836126539L204.58864999999997,269.6285836126539L214.33096666666665,269.6285836126539L224.07328333333334,269.6285836126539L233.81560000000002,269.6285836126539L243.55791666666667,269.6285836126539L253.30023333333332,258.5690522948371L263.04255,269.6285836126539L272.7848666666667,269.6285836126539L282.5271833333333,269.6285836126539L292.2695,269.6285836126539L302.0118166666667,269.6285836126539L311.7541333333333,260.52897121768524L321.49645000000004,258.849045182546L331.23876666666666,250.16940960269505L340.98108333333334,247.50952097702026L350.72339999999997,248.48948356755574L360.46571666666665,247.3695307913886L370.20803333333333,269.2086067975362L379.95035,265.0087823223538L389.69266666666664,268.3686406508551L399.4349833333333,268.50863709470957L409.17729999999995,257.8690825920105L418.9196166666667,255.9091699273851L428.6619333333333,271.7284989793566L438.40425,268.3686406508551" style="fill: none;" fill="none"></path></g><g><path stroke="rgb(187, 187, 187)" stroke-width="2px" d="M48.71158333333333,296.2439790611267L58.453900000000004,272.3031352543301L68.19621666666667,269.25068082936605L77.93853333333333,260.5422011006673L87.68084999999999,249.20022367180718L97.42316666666666,241.9581206419203L107.16548333333333,237.4392895181444L116.90780000000001,231.573782722897L126.65011666666666,225.37908715057375L136.39243333333334,219.12454419369166L146.13475,215.563340063307L155.87706666666665,209.30879710642498L165.61938333333333,203.32358302561443L175.36169999999998,196.56029662153455L185.10401666666667,186.62485476515027L194.84633333333332,175.4325114432441L204.58864999999997,163.58179056718612L214.33096666666665,154.39449421268043L224.07328333333334,145.92541653866238L233.81560000000002,136.67826654137505L243.55791666666667,127.37126290130615L253.30023333333332,115.87965136549207L263.04255,105.91428268771705L272.7848666666667,107.94925647650825L282.5271833333333,90.44250403849287L292.2695,76.16779824490015L302.0118166666667,71.55916788228353L311.7541333333333,76.16779824490015L321.49645000000004,76.4969807637533L331.23876666666666,53.15466086832686L340.98108333333334,50.91021184624566L350.72339999999997,48.7555307718913L360.46571666666665,40.19668515014649L370.20803333333333,34.181531731499604L379.95035,28.85470772128639L389.69266666666664,23.348297749837286L399.4349833333333,16.345621807522264L409.17729999999995,6.5298747202555205L418.9196166666667,3.5073283420139205L428.6619333333333,-3.6150548858642537" style="fill: none;" fill="none"></path></g></g></g></g></g></g><g transform="translate(58, 377)" clip-path="url(#clip_1)"><clipPath id="clip_1"><rect width="584" height="21"></rect></clipPath><g><g><line x1="0" y1="0" x2="0" y2="5" style="visibility: inherit;" fill="rgb(0, 0, 0)" stroke="rgb(204, 204, 204)" stroke-width="1px"></line><line x1="48.71158333333333" y1="0" x2="48.71158333333333" y2="5" style="visibility: inherit;" fill="rgb(0, 0, 0)" stroke="rgb(204, 204, 204)" stroke-width="1px"></line><line x1="97.42316666666666" y1="0" x2="97.42316666666666" y2="5" style="visibility: inherit;" fill="rgb(0, 0, 0)" stroke="rgb(204, 204, 204)" stroke-width="1px"></line><line x1="146.13475" y1="0" x2="146.13475" y2="5" style="visibility: inherit;" fill="rgb(0, 0, 0)" stroke="rgb(204, 204, 204)" stroke-width="1px"></line><line x1="194.84633333333332" y1="0" x2="194.84633333333332" y2="5" style="visibility: inherit;" fill="rgb(0, 0, 0)" stroke="rgb(204, 204, 204)" stroke-width="1px"></line><line x1="243.55791666666667" y1="0" x2="243.55791666666667" y2="5" style="visibility: inherit;" fill="rgb(0, 0, 0)" stroke="rgb(204, 204, 204)" stroke-width="1px"></line><line x1="292.2695" y1="0" x2="292.2695" y2="5" style="visibility: inherit;" fill="rgb(0, 0, 0)" stroke="rgb(204, 204, 204)" stroke-width="1px"></line><line x1="340.98108333333334" y1="0" x2="340.98108333333334" y2="5" style="visibility: inherit;" fill="rgb(0, 0, 0)" stroke="rgb(204, 204, 204)" stroke-width="1px"></line><line x1="389.69266666666664" y1="0" x2="389.69266666666664" y2="5" style="visibility: inherit;" fill="rgb(0, 0, 0)" stroke="rgb(204, 204, 204)" stroke-width="1px"></line><line x1="438.40425" y1="0" x2="438.40425" y2="5" style="visibility: inherit;" fill="rgb(0, 0, 0)" stroke="rgb(204, 204, 204)" stroke-width="1px"></line><line x1="487.11583333333334" y1="0" x2="487.11583333333334" y2="5" style="visibility: inherit;" fill="rgb(0, 0, 0)" stroke="rgb(204, 204, 204)" stroke-width="1px"></line><line x1="535.8274166666666" y1="0" x2="535.8274166666666" y2="5" style="visibility: inherit;" fill="rgb(0, 0, 0)" stroke="rgb(204, 204, 204)" stroke-width="1px"></line><line x1="584.539" y1="0" x2="584.539" y2="5" style="visibility: inherit;" fill="rgb(0, 0, 0)" stroke="rgb(204, 204, 204)" stroke-width="1px"></line></g><g transform="translate(0, 8)"><text x="0" y="0" dx="0em" dy="0.95em" style="text-anchor: middle; visibility: hidden; font-family: &quot;Helvetica Neue&quot;, sans-serif; font-size: 12px; font-weight: 200;" fill="rgb(50, 49, 63)" stroke="none" stroke-width="1px">-5</text><text x="48.71158333333333" y="0" dx="0em" dy="0.95em" style="text-anchor: middle; visibility: inherit; font-family: &quot;Helvetica Neue&quot;, sans-serif; font-size: 12px; font-weight: 200;" fill="rgb(50, 49, 63)" stroke="none" stroke-width="1px">0</text><text x="97.42316666666666" y="0" dx="0em" dy="0.95em" style="text-anchor: middle; visibility: inherit; font-family: &quot;Helvetica Neue&quot;, sans-serif; font-size: 12px; font-weight: 200;" fill="rgb(50, 49, 63)" stroke="none" stroke-width="1px">5</text><text x="146.13475" y="0" dx="0em" dy="0.95em" style="text-anchor: middle; visibility: inherit; font-family: &quot;Helvetica Neue&quot;, sans-serif; font-size: 12px; font-weight: 200;" fill="rgb(50, 49, 63)" stroke="none" stroke-width="1px">10</text><text x="194.84633333333332" y="0" dx="0em" dy="0.95em" style="text-anchor: middle; visibility: inherit; font-family: &quot;Helvetica Neue&quot;, sans-serif; font-size: 12px; font-weight: 200;" fill="rgb(50, 49, 63)" stroke="none" stroke-width="1px">15</text><text x="243.55791666666667" y="0" dx="0em" dy="0.95em" style="text-anchor: middle; visibility: inherit; font-family: &quot;Helvetica Neue&quot;, sans-serif; font-size: 12px; font-weight: 200;" fill="rgb(50, 49, 63)" stroke="none" stroke-width="1px">20</text><text x="292.2695" y="0" dx="0em" dy="0.95em" style="text-anchor: middle; visibility: inherit; font-family: &quot;Helvetica Neue&quot;, sans-serif; font-size: 12px; font-weight: 200;" fill="rgb(50, 49, 63)" stroke="none" stroke-width="1px">25</text><text x="340.98108333333334" y="0" dx="0em" dy="0.95em" style="text-anchor: middle; visibility: inherit; font-family: &quot;Helvetica Neue&quot;, sans-serif; font-size: 12px; font-weight: 200;" fill="rgb(50, 49, 63)" stroke="none" stroke-width="1px">30</text><text x="389.69266666666664" y="0" dx="0em" dy="0.95em" style="text-anchor: middle; visibility: inherit; font-family: &quot;Helvetica Neue&quot;, sans-serif; font-size: 12px; font-weight: 200;" fill="rgb(50, 49, 63)" stroke="none" stroke-width="1px">35</text><text x="438.40425" y="0" dx="0em" dy="0.95em" style="text-anchor: middle; visibility: inherit; font-family: &quot;Helvetica Neue&quot;, sans-serif; font-size: 12px; font-weight: 200;" fill="rgb(50, 49, 63)" stroke="none" stroke-width="1px">40</text><text x="487.11583333333334" y="0" dx="0em" dy="0.95em" style="text-anchor: middle; visibility: inherit; font-family: &quot;Helvetica Neue&quot;, sans-serif; font-size: 12px; font-weight: 200;" fill="rgb(50, 49, 63)" stroke="none" stroke-width="1px">45</text><text x="535.8274166666666" y="0" dx="0em" dy="0.95em" style="text-anchor: middle; visibility: inherit; font-family: &quot;Helvetica Neue&quot;, sans-serif; font-size: 12px; font-weight: 200;" fill="rgb(50, 49, 63)" stroke="none" stroke-width="1px">50</text><text x="584.539" y="0" dx="0em" dy="0.95em" style="text-anchor: middle; visibility: hidden; font-family: &quot;Helvetica Neue&quot;, sans-serif; font-size: 12px; font-weight: 200;" fill="rgb(50, 49, 63)" stroke="none" stroke-width="1px">55</text></g><line x1="0" y1="0" x2="584.539" y2="0" fill="rgb(0, 0, 0)" stroke="rgb(204, 204, 204)" stroke-width="1px"></line></g></g></g></g></svg>