<svg viewBox="0 0 668.0390625 399.984375" xmlns="http://www.w3.org/2000/svg"><g><g><g><g><g><line x1="34" y1="377.984" x2="29" y2="377.984" style="visibility: inherit;" fill="rgb(0, 0, 0)" stroke="rgb(204, 204, 204)" stroke-width="1px"></line><line x1="34" y1="330.736" x2="29" y2="330.736" style="visibility: inherit;" fill="rgb(0, 0, 0)" stroke="rgb(204, 204, 204)" stroke-width="1px"></line><line x1="34" y1="283.488" x2="29" y2="283.488" style="visibility: inherit;" fill="rgb(0, 0, 0)" stroke="rgb(204, 204, 204)" stroke-width="1px"></line><line x1="34" y1="236.23999999999998" x2="29" y2="236.23999999999998" style="visibility: inherit;" fill="rgb(0, 0, 0)" stroke="rgb(204, 204, 204)" stroke-width="1px"></line><line x1="34" y1="188.992" x2="29" y2="188.992" style="visibility: inherit;" fill="rgb(0, 0, 0)" stroke="rgb(204, 204, 204)" stroke-width="1px"></line><line x1="34" y1="141.744" x2="29" y2="141.744" style="visibility: inherit;" fill="rgb(0, 0, 0)" stroke="rgb(204, 204, 204)" stroke-width="1px"></line><line x1="34" y1="94.49599999999998" x2="29" y2="94.49599999999998" style="visibility: inherit;" fill="rgb(0, 0, 0)" stroke="rgb(204, 204, 204)" stroke-width="1px"></line><line x1="34" y1="47.24799999999999" x2="29" y2="47.24799999999999" style="visibility: inherit;" fill="rgb(0, 0, 0)" stroke="rgb(204, 204, 204)" stroke-width="1px"></line><line x1="34" y1="0" x2="29" y2="0" style="visibility: inherit;" fill="rgb(0, 0, 0)" stroke="rgb(204, 204, 204)" stroke-width="1px"></line></g><g transform="translate(24, 0)"><text x="0" y="377.984" dx="0em" dy="0.3em" style="text-anchor: end; visibility: hidden; font-family: &quot;Helvetica Neue&quot;, sans-serif; font-size: 12px; font-weight: 200;" fill="rgb(50, 49, 63)" stroke="none" stroke-width="1px">-1</text><text x="0" y="330.736" dx="0em" dy="0.3em" style="text-anchor: end; visibility: inherit; font-family: &quot;Helvetica Neue&quot;, sans-serif; font-size: 12px; font-weight: 200;" fill="rgb(50, 49, 63)" stroke="none" stroke-width="1px">0</text><text x="0" y="283.488" dx="0em" dy="0.3em" style="text-anchor: end; visibility: inherit; font-family: &quot;Helvetica Neue&quot;, sans-serif; font-size: 12px; font-weight: 200;" fill="rgb(50, 49, 63)" stroke="none" stroke-width="1px">1</text><text x="0" y="236.23999999999998" dx="0em" dy="0.3em" style="text-anchor: end; visibility: inherit; font-family: &quot;Helvetica Neue&quot;, sans-serif; font-size: 12px; font-weight: 200;" fill="rgb(50, 49, 63)" stroke="none" stroke-width="1px">2</text><text x="0" y="188.992" dx="0em" dy="0.3em" style="text-anchor: end; visibility: inherit; font-family: &quot;Helvetica Neue&quot;, sans-serif; font-size: 12px; font-weight: 200;" fill="rgb(50, 49, 63)" stroke="none" stroke-width="1px">3</text><text x="0" y="141.744" dx="0em" dy="0.3em" style="text-anchor: end; visibility: inherit; font-family: &quot;Helvetica Neue&quot;, sans-serif; font-size: 12px; font-weight: 200;" fill="rgb(50, 49, 63)" stroke="none" stroke-width="1px">4</text><text x="0" y="94.49599999999998" dx="0em" dy="0.3em" style="text-anchor: end; visibility: inherit; font-family: &quot;Helvetica Neue&quot;, sans-serif; font-size: 12px; font-weight: 200;" fill="rgb(50, 49, 63)" stroke="none" stroke-width="1px">5</text><text x="0" y="47.24799999999999" dx="0em" dy="0.3em" style="text-anchor: end; visibility: inherit; font-family: &quot;Helvetica Neue&quot;, sans-serif; font-size: 12px; font-weight: 200;" fill="rgb(50, 49, 63)" stroke="none" stroke-width="1px">6</text><text x="0" y="0" dx="0em" dy="0.3em" style="text-anchor: end; visibility: hidden; font-family: &quot;Helvetica Neue&quot;, sans-serif; font-size: 12px; font-weight: 200;" fill="rgb(50, 49, 63)" stroke="none" stroke-width="1px">7</text></g><line x1="34" y1="0" x2="34" y2="377.984" fill="rgb(0, 0, 0)" stroke="rgb(204, 204, 204)" stroke-width="1px"></line></g></g><g transform="translate(34, 0)" clip-path="url(#clip_0)"><clipPath id="clip_0"><rect width="634" height="377"></rect></clipPath><g><g><g><line x1="0" y1="0" x2="0" y2="377.984" fill="rgb(0, 0, 0)" stroke="rgb(60, 60, 60)" stroke-width="1px" opacity="0.25"></line><line x1="90.577" y1="0" x2="90.577" y2="377.984" fill="rgb(0, 0, 0)" stroke="rgb(60, 60, 60)" stroke-width="1px" opacity="0.25"></line><line x1="181.154" y1="0" x2="181.154" y2="377.984" fill="rgb(0, 0, 0)" stroke="rgb(60, 60, 60)" stroke-width="1px" opacity="0.25"></line><line x1="271.731" y1="0" x2="271.731" y2="377.984" fill="rgb(0, 0, 0)" stroke="rgb(60, 60, 60)" stroke-width="1px" opacity="0.25"></line><line x1="362.308" y1="0" x2="362.308" y2="377.984" fill="rgb(0, 0, 0)" stroke="rgb(60, 60, 60)" stroke-width="1px" opacity="0.25"></line><line x1="452.885" y1="0" x2="452.885" y2="377.984" fill="rgb(0, 0, 0)" stroke="rgb(60, 60, 60)" stroke-width="1px" opacity="0.25"></line><line x1="543.462" y1="0" x2="543.462" y2="377.984" fill="rgb(0, 0, 0)" stroke="rgb(60, 60, 60)" stroke-width="1px" opacity="0.25"></line><line x1="634.039" y1="0" x2="634.039" y2="377.984" fill="rgb(0, 0, 0)" stroke="rgb(60, 60, 60)" stroke-width="1px" opacity="0.25"></line></g><g><line x1="0" y1="377.984" x2="634.039" y2="377.984" fill="rgb(0, 0, 0)" stroke="rgb(60, 60, 60)" stroke-width="1px" opacity="0.25"></line><line x1="0" y1="330.736" x2="634.039" y2="330.736" fill="rgb(0, 0, 0)" stroke="rgb(60, 60, 60)" stroke-width="1px" opacity="0.25"></line><line x1="0" y1="283.488" x2="634.039" y2="283.488" fill="rgb(0, 0, 0)" stroke="rgb(60, 60, 60)" stroke-width="1px" opacity="0.25"></line><line x1="0" y1="236.23999999999998" x2="634.039" y2="236.23999999999998" fill="rgb(0, 0, 0)" stroke="rgb(60, 60, 60)" stroke-width="1px" opacity="0.25"></line><line x1="0" y1="188.992" x2="634.039" y2="188.992" fill="rgb(0, 0, 0)" stroke="rgb(60, 60, 60)" stroke-width="1px" opacity="0.25"></line><line x1="0" y1="141.744" x2="634.039" y2="141.744" fill="rgb(0, 0, 0)" stroke="rgb(60, 60, 60)" stroke-width="1px" opacity="0.25"></line><line x1="0" y1="94.49599999999998" x2="634.039" y2="94.49599999999998" fill="rgb(0, 0, 0)" stroke="rgb(60, 60, 60)" stroke-width="1px" opacity="0.25"></line><line x1="0" y1="47.24799999999999" x2="634.039" y2="47.24799999999999" fill="rgb(0, 0, 0)" stroke="rgb(60, 60, 60)" stroke-width="1px" opacity="0.25"></line><line x1="0" y1="0" x2="634.039" y2="0" fill="rgb(0, 0, 0)" stroke="rgb(60, 60, 60)" stroke-width="1px" opacity="0.25"></line></g></g></g><g><g><line x1="0" y1="330.736" x2="634.039" y2="330.736" fill="rgb(0, 0, 0)" stroke="rgb(153, 153, 153)" stroke-width="1.5px"></line></g></g><g><g><line x1="90.577" y1="0" x2="90.577" y2="377.984" fill="rgb(0, 0, 0)" stroke="rgb(153, 153, 153)" stroke-width="1.5px"></line></g></g><g><g><g><g><g><path stroke="rgb(51, 187, 238)" stroke-width="2px" d="M90.577,175.66320580673218L108.69239999999999,163.30790163707732L126.8078,142.80837334628978L144.92319999999998,125.30078808288013L163.03859999999997,128.66409723894174L181.154,138.7440862992929L199.2694,154.26747154635672L217.38479999999998,175.2013047225183L235.5002,189.54717809121868L253.6156,202.70999091579043L271.731,214.16831190161778L289.84639999999996,226.3710702572413L307.9618,238.59869109810606L326.07719999999995,246.77758084771804L344.19259999999997,253.55120111753692L362.308,258.5671914272834L380.42339999999996,259.39377308568277L398.5388,263.2974705425352L416.6542,264.85095253167214L434.76959999999997,269.1201089514934L452.885,274.2716664136525L471.0004,277.17042287760626L489.11580000000004,278.3786862536617L507.2312,279.3601141244393L525.3466000000001,281.33264984405304L543.462,282.6959226762621L561.5774,284.73907518924426L579.6927999999999,285.2423527117299L597.8081999999999,287.2662526407014L615.9236,287.25759380624623" style="fill: none;" fill="none"></path></g><g><path stroke="rgb(204, 51, 17)" stroke-width="2px" d="M90.577,286.10127049827577L108.69239999999999,293.8831323363781L126.8078,292.02653830822146L144.92319999999998,290.6801748605791L163.03859999999997,292.98289279784797L181.154,294.31284347947593L199.2694,294.07871310193053L217.38479999999998,295.67462371374194L235.5002,298.705678464063L253.6156,300.14864377499856L271.731,300.5253829353315L289.84639999999996,301.99261364252914L307.9618,303.434804149997L326.07719999999995,305.4052158412193L344.19259999999997,306.2823099468262L362.308,307.7555749878944L380.42339999999996,308.68180260774096L398.5388,309.95880180781364L416.6542,310.9091681843451L434.76959999999997,311.40712234326173L452.885,312.3106399739678L471.0004,312.77857676320303L489.11580000000004,313.3672082809857L507.2312,314.00978226883757L525.3466000000001,314.52928160161315L543.462,315.0019708712628L561.5774,315.3857134563623L579.6927999999999,315.41999503059947L597.8081999999999,315.70818531767577L615.9236,315.98089375306853" style="fill: none;" fill="none"></path></g></g></g></g><g opacity="0.2"><g><g><g><path stroke="rgb(51, 187, 238)" stroke-width="2px" d="M90.577,175.66320580673218L108.69239999999999,155.89471913528442L126.8078,123.1288261871338L144.92319999999998,104.71186781311036L163.03859999999997,133.0552336730957L181.154,152.6883399658203L199.2694,176.466160823822L217.38479999999998,205.72303445816038L235.5002,210.70455476760864L253.6156,222.25523391342162L271.731,231.25186725234985L289.84639999999996,244.60880091857908L307.9618,256.90019705581665L326.07719999999995,259.02989217567443L344.19259999999997,263.70366938591L362.308,266.08763922691344L380.42339999999996,260.633295791626L398.5388,269.15202557945247L416.6542,267.1809388580322L434.76959999999997,275.5234533634186L452.885,281.99872008323666L471.0004,281.5184621887207L489.11580000000004,280.19105746269224L507.2312,280.83224430465697L525.3466000000001,284.2914394035339L543.462,284.74082611083986L561.5774,287.8037987308502L579.6927999999999,285.9972682228088L597.8081999999999,290.3021006698608L615.9236,287.24460555934905" style="fill: none;" fill="none"></path></g><g><path stroke="rgb(204, 51, 17)" stroke-width="2px" d="M90.577,286.10127049827577L108.69239999999999,298.5522494392395L126.8078,290.2442080411911L144.92319999999998,289.09685144615173L163.03859999999997,295.98932133674623L181.154,296.1526440544128L199.2694,293.74390291595455L217.38479999999998,298.00147670650483L235.5002,303.1758954687118L253.6156,302.29127909278867L271.731,301.08707467937467L289.84639999999996,304.1854750986099L307.9618,305.5933809089661L326.07719999999995,308.356973136425L344.19259999999997,307.59692011404036L362.308,309.9644334888458L380.42339999999996,310.0707520890236L398.5388,311.873976377964L416.6542,312.3345729703903L434.76959999999997,312.15400806665417L452.885,313.6658668689728L471.0004,313.4804665493965L489.11580000000004,314.2501439361572L507.2312,314.9736356387138L525.3466000000001,315.30852690839765L543.462,315.7110027599335L561.5774,315.96132635211944L579.6927999999999,315.47141733932494L597.8081999999999,316.14047048282623L615.9236,316.38995625543595" style="fill: none;" fill="none"></path></g></g></g></g></g></g><g transform="translate(34, 377)" clip-path="url(#clip_1)"><clipPath id="clip_1"><rect width="634" height="21"></rect></clipPath><g><g><line x1="0" y1="0" x2="0" y2="5" style="visibility: inherit;" fill="rgb(0, 0, 0)" stroke="rgb(204, 204, 204)" stroke-width="1px"></line><line x1="90.577" y1="0" x2="90.577" y2="5" style="visibility: inherit;" fill="rgb(0, 0, 0)" stroke="rgb(204, 204, 204)" stroke-width="1px"></line><line x1="181.154" y1="0" x2="181.154" y2="5" style="visibility: inherit;" fill="rgb(0, 0, 0)" stroke="rgb(204, 204, 204)" stroke-width="1px"></line><line x1="271.731" y1="0" x2="271.731" y2="5" style="visibility: inherit;" fill="rgb(0, 0, 0)" stroke="rgb(204, 204, 204)" stroke-width="1px"></line><line x1="362.308" y1="0" x2="362.308" y2="5" style="visibility: inherit;" fill="rgb(0, 0, 0)" stroke="rgb(204, 204, 204)" stroke-width="1px"></line><line x1="452.885" y1="0" x2="452.885" y2="5" style="visibility: inherit;" fill="rgb(0, 0, 0)" stroke="rgb(204, 204, 204)" stroke-width="1px"></line><line x1="543.462" y1="0" x2="543.462" y2="5" style="visibility: inherit;" fill="rgb(0, 0, 0)" stroke="rgb(204, 204, 204)" stroke-width="1px"></line><line x1="634.039" y1="0" x2="634.039" y2="5" style="visibility: inherit;" fill="rgb(0, 0, 0)" stroke="rgb(204, 204, 204)" stroke-width="1px"></line></g><g transform="translate(0, 8)"><text x="0" y="0" dx="0em" dy="0.95em" style="text-anchor: middle; visibility: hidden; font-family: &quot;Helvetica Neue&quot;, sans-serif; font-size: 12px; font-weight: 200;" fill="rgb(50, 49, 63)" stroke="none" stroke-width="1px">-5</text><text x="90.577" y="0" dx="0em" dy="0.95em" style="text-anchor: middle; visibility: inherit; font-family: &quot;Helvetica Neue&quot;, sans-serif; font-size: 12px; font-weight: 200;" fill="rgb(50, 49, 63)" stroke="none" stroke-width="1px">0</text><text x="181.154" y="0" dx="0em" dy="0.95em" style="text-anchor: middle; visibility: inherit; font-family: &quot;Helvetica Neue&quot;, sans-serif; font-size: 12px; font-weight: 200;" fill="rgb(50, 49, 63)" stroke="none" stroke-width="1px">5</text><text x="271.731" y="0" dx="0em" dy="0.95em" style="text-anchor: middle; visibility: inherit; font-family: &quot;Helvetica Neue&quot;, sans-serif; font-size: 12px; font-weight: 200;" fill="rgb(50, 49, 63)" stroke="none" stroke-width="1px">10</text><text x="362.308" y="0" dx="0em" dy="0.95em" style="text-anchor: middle; visibility: inherit; font-family: &quot;Helvetica Neue&quot;, sans-serif; font-size: 12px; font-weight: 200;" fill="rgb(50, 49, 63)" stroke="none" stroke-width="1px">15</text><text x="452.885" y="0" dx="0em" dy="0.95em" style="text-anchor: middle; visibility: inherit; font-family: &quot;Helvetica Neue&quot;, sans-serif; font-size: 12px; font-weight: 200;" fill="rgb(50, 49, 63)" stroke="none" stroke-width="1px">20</text><text x="543.462" y="0" dx="0em" dy="0.95em" style="text-anchor: middle; visibility: inherit; font-family: &quot;Helvetica Neue&quot;, sans-serif; font-size: 12px; font-weight: 200;" fill="rgb(50, 49, 63)" stroke="none" stroke-width="1px">25</text><text x="634.039" y="0" dx="0em" dy="0.95em" style="text-anchor: middle; visibility: hidden; font-family: &quot;Helvetica Neue&quot;, sans-serif; font-size: 12px; font-weight: 200;" fill="rgb(50, 49, 63)" stroke="none" stroke-width="1px">30</text></g><line x1="0" y1="0" x2="634.039" y2="0" fill="rgb(0, 0, 0)" stroke="rgb(204, 204, 204)" stroke-width="1px"></line></g></g></g></g></svg>