<svg viewBox="0 0 642.5390625 399.984375" xmlns="http://www.w3.org/2000/svg"><g><g><g><g><g><line x1="58" y1="377.984" x2="53" y2="377.984" style="visibility: inherit;" fill="rgb(0, 0, 0)" stroke="rgb(204, 204, 204)" stroke-width="1px"></line><line x1="58" y1="335.98577777777774" x2="53" y2="335.98577777777774" style="visibility: inherit;" fill="rgb(0, 0, 0)" stroke="rgb(204, 204, 204)" stroke-width="1px"></line><line x1="58" y1="293.9875555555555" x2="53" y2="293.9875555555555" style="visibility: inherit;" fill="rgb(0, 0, 0)" stroke="rgb(204, 204, 204)" stroke-width="1px"></line><line x1="58" y1="251.98933333333326" x2="53" y2="251.98933333333326" style="visibility: inherit;" fill="rgb(0, 0, 0)" stroke="rgb(204, 204, 204)" stroke-width="1px"></line><line x1="58" y1="209.99111111111122" x2="53" y2="209.99111111111122" style="visibility: inherit;" fill="rgb(0, 0, 0)" stroke="rgb(204, 204, 204)" stroke-width="1px"></line><line x1="58" y1="167.99288888888898" x2="53" y2="167.99288888888898" style="visibility: inherit;" fill="rgb(0, 0, 0)" stroke="rgb(204, 204, 204)" stroke-width="1px"></line><line x1="58" y1="125.99466666666675" x2="53" y2="125.99466666666675" style="visibility: inherit;" fill="rgb(0, 0, 0)" stroke="rgb(204, 204, 204)" stroke-width="1px"></line><line x1="58" y1="83.99644444444448" x2="53" y2="83.99644444444448" style="visibility: inherit;" fill="rgb(0, 0, 0)" stroke="rgb(204, 204, 204)" stroke-width="1px"></line><line x1="58" y1="41.99822222222224" x2="53" y2="41.99822222222224" style="visibility: inherit;" fill="rgb(0, 0, 0)" stroke="rgb(204, 204, 204)" stroke-width="1px"></line><line x1="58" y1="0" x2="53" y2="0" style="visibility: inherit;" fill="rgb(0, 0, 0)" stroke="rgb(204, 204, 204)" stroke-width="1px"></line></g><g transform="translate(48, 0)"><text x="0" y="377.984" dx="0em" dy="0.3em" style="text-anchor: end; visibility: hidden; font-family: &quot;Helvetica Neue&quot;, sans-serif; font-size: 12px; font-weight: 200;" fill="rgb(50, 49, 63)" stroke="none" stroke-width="1px">0.25</text><text x="0" y="335.98577777777774" dx="0em" dy="0.3em" style="text-anchor: end; visibility: inherit; font-family: &quot;Helvetica Neue&quot;, sans-serif; font-size: 12px; font-weight: 200;" fill="rgb(50, 49, 63)" stroke="none" stroke-width="1px">0.26</text><text x="0" y="293.9875555555555" dx="0em" dy="0.3em" style="text-anchor: end; visibility: inherit; font-family: &quot;Helvetica Neue&quot;, sans-serif; font-size: 12px; font-weight: 200;" fill="rgb(50, 49, 63)" stroke="none" stroke-width="1px">0.27</text><text x="0" y="251.98933333333326" dx="0em" dy="0.3em" style="text-anchor: end; visibility: inherit; font-family: &quot;Helvetica Neue&quot;, sans-serif; font-size: 12px; font-weight: 200;" fill="rgb(50, 49, 63)" stroke="none" stroke-width="1px">0.28</text><text x="0" y="209.99111111111122" dx="0em" dy="0.3em" style="text-anchor: end; visibility: inherit; font-family: &quot;Helvetica Neue&quot;, sans-serif; font-size: 12px; font-weight: 200;" fill="rgb(50, 49, 63)" stroke="none" stroke-width="1px">0.29</text><text x="0" y="167.99288888888898" dx="0em" dy="0.3em" style="text-anchor: end; visibility: inherit; font-family: &quot;Helvetica Neue&quot;, sans-serif; font-size: 12px; font-weight: 200;" fill="rgb(50, 49, 63)" stroke="none" stroke-width="1px">0.3</text><text x="0" y="125.99466666666675" dx="0em" dy="0.3em" style="text-anchor: end; visibility: inherit; font-family: &quot;Helvetica Neue&quot;, sans-serif; font-size: 12px; font-weight: 200;" fill="rgb(50, 49, 63)" stroke="none" stroke-width="1px">0.31</text><text x="0" y="83.99644444444448" dx="0em" dy="0.3em" style="text-anchor: end; visibility: inherit; font-family: &quot;Helvetica Neue&quot;, sans-serif; font-size: 12px; font-weight: 200;" fill="rgb(50, 49, 63)" stroke="none" stroke-width="1px">0.32</text><text x="0" y="41.99822222222224" dx="0em" dy="0.3em" style="text-anchor: end; visibility: inherit; font-family: &quot;Helvetica Neue&quot;, sans-serif; font-size: 12px; font-weight: 200;" fill="rgb(50, 49, 63)" stroke="none" stroke-width="1px">0.33</text><text x="0" y="0" dx="0em" dy="0.3em" style="text-anchor: end; visibility: hidden; font-family: &quot;Helvetica Neue&quot;, sans-serif; font-size: 12px; font-weight: 200;" fill="rgb(50, 49, 63)" stroke="none" stroke-width="1px">0.34</text></g><line x1="58" y1="0" x2="58" y2="377.984" fill="rgb(0, 0, 0)" stroke="rgb(204, 204, 204)" stroke-width="1px"></line></g></g><g transform="translate(58, 0)" clip-path="url(#clip_0)"><clipPath id="clip_0"><rect width="584" height="377"></rect></clipPath><g><g><g><line x1="0" y1="0" x2="0" y2="377.984" fill="rgb(0, 0, 0)" stroke="rgb(60, 60, 60)" stroke-width="1px" opacity="0.25"></line><line x1="64.94877777777778" y1="0" x2="64.94877777777778" y2="377.984" fill="rgb(0, 0, 0)" stroke="rgb(60, 60, 60)" stroke-width="1px" opacity="0.25"></line><line x1="129.89755555555556" y1="0" x2="129.89755555555556" y2="377.984" fill="rgb(0, 0, 0)" stroke="rgb(60, 60, 60)" stroke-width="1px" opacity="0.25"></line><line x1="194.84633333333332" y1="0" x2="194.84633333333332" y2="377.984" fill="rgb(0, 0, 0)" stroke="rgb(60, 60, 60)" stroke-width="1px" opacity="0.25"></line><line x1="259.7951111111111" y1="0" x2="259.7951111111111" y2="377.984" fill="rgb(0, 0, 0)" stroke="rgb(60, 60, 60)" stroke-width="1px" opacity="0.25"></line><line x1="324.7438888888889" y1="0" x2="324.7438888888889" y2="377.984" fill="rgb(0, 0, 0)" stroke="rgb(60, 60, 60)" stroke-width="1px" opacity="0.25"></line><line x1="389.69266666666664" y1="0" x2="389.69266666666664" y2="377.984" fill="rgb(0, 0, 0)" stroke="rgb(60, 60, 60)" stroke-width="1px" opacity="0.25"></line><line x1="454.64144444444446" y1="0" x2="454.64144444444446" y2="377.984" fill="rgb(0, 0, 0)" stroke="rgb(60, 60, 60)" stroke-width="1px" opacity="0.25"></line><line x1="519.5902222222222" y1="0" x2="519.5902222222222" y2="377.984" fill="rgb(0, 0, 0)" stroke="rgb(60, 60, 60)" stroke-width="1px" opacity="0.25"></line><line x1="584.539" y1="0" x2="584.539" y2="377.984" fill="rgb(0, 0, 0)" stroke="rgb(60, 60, 60)" stroke-width="1px" opacity="0.25"></line></g><g><line x1="0" y1="377.984" x2="584.539" y2="377.984" fill="rgb(0, 0, 0)" stroke="rgb(60, 60, 60)" stroke-width="1px" opacity="0.25"></line><line x1="0" y1="335.98577777777774" x2="584.539" y2="335.98577777777774" fill="rgb(0, 0, 0)" stroke="rgb(60, 60, 60)" stroke-width="1px" opacity="0.25"></line><line x1="0" y1="293.9875555555555" x2="584.539" y2="293.9875555555555" fill="rgb(0, 0, 0)" stroke="rgb(60, 60, 60)" stroke-width="1px" opacity="0.25"></line><line x1="0" y1="251.98933333333326" x2="584.539" y2="251.98933333333326" fill="rgb(0, 0, 0)" stroke="rgb(60, 60, 60)" stroke-width="1px" opacity="0.25"></line><line x1="0" y1="209.99111111111122" x2="584.539" y2="209.99111111111122" fill="rgb(0, 0, 0)" stroke="rgb(60, 60, 60)" stroke-width="1px" opacity="0.25"></line><line x1="0" y1="167.99288888888898" x2="584.539" y2="167.99288888888898" fill="rgb(0, 0, 0)" stroke="rgb(60, 60, 60)" stroke-width="1px" opacity="0.25"></line><line x1="0" y1="125.99466666666675" x2="584.539" y2="125.99466666666675" fill="rgb(0, 0, 0)" stroke="rgb(60, 60, 60)" stroke-width="1px" opacity="0.25"></line><line x1="0" y1="83.99644444444448" x2="584.539" y2="83.99644444444448" fill="rgb(0, 0, 0)" stroke="rgb(60, 60, 60)" stroke-width="1px" opacity="0.25"></line><line x1="0" y1="41.99822222222224" x2="584.539" y2="41.99822222222224" fill="rgb(0, 0, 0)" stroke="rgb(60, 60, 60)" stroke-width="1px" opacity="0.25"></line><line x1="0" y1="0" x2="584.539" y2="0" fill="rgb(0, 0, 0)" stroke="rgb(60, 60, 60)" stroke-width="1px" opacity="0.25"></line></g></g></g><g><g><line x1="0" y1="1427.9395555555552" x2="584.539" y2="1427.9395555555552" fill="rgb(0, 0, 0)" stroke="rgb(153, 153, 153)" stroke-width="1.5px"></line></g></g><g><g><line x1="64.94877777777778" y1="0" x2="64.94877777777778" y2="377.984" fill="rgb(0, 0, 0)" stroke="rgb(153, 153, 153)" stroke-width="1.5px"></line></g></g><g><g><g><g><g><path stroke="rgb(51, 187, 238)" stroke-width="2px" d="M64.94877777777778,221.73983296881784L77.93853333333333,223.9321666405996L90.92828888888889,226.24083620392335L103.91804444444445,228.80810447332598L116.90780000000001,231.31286612905626L129.89755555555556,233.95564606627477L142.8873111111111,237.0736575515991L155.87706666666665,239.8590183051768L168.8668222222222,242.61097986500656L181.85657777777777,245.09067246237893L194.84633333333332,247.70089609261296L207.8360888888889,250.3242650186514L220.82584444444444,252.80044855970368L233.81560000000002,255.27596676303153L246.80535555555554,257.6514754226006L259.7951111111111,260.0611374205042L272.7848666666667,262.4814452864463L285.7746222222222,264.91195282093827L298.7643777777777,267.3941572010344L311.7541333333333,269.81874616594826L324.7438888888889,272.27192661048923L337.7336444444444,274.63793701046916L350.72339999999997,277.0873845952856L363.71315555555555,279.21030218924847L376.7029111111111,281.4770037917825L389.69266666666664,283.5437003520713L402.6824222222222,285.4989565304626L415.6721777777778,287.6126953870751L428.6619333333333,289.2953825691746L441.6516888888889,291.10764928147796L454.64144444444446,293.03160838623654L467.63120000000004,294.7718034514882L480.6209555555555,296.5928913151614L493.6107111111111,298.29489463196944L506.60046666666665,300.04595557827247L519.5902222222222,301.7672733538672L532.5799777777778,303.76252861342675L545.5697333333334,305.7370531664632L558.559488888889,307.5418326091939L571.5492444444444,309.2781588641698" style="fill: none;" fill="none"></path></g><g><path stroke="rgb(204, 51, 17)" stroke-width="2px" d="M64.94877777777778,56.720385938856396L77.93853333333333,63.26155862871792L90.92828888888889,58.84806674114742L103.91804444444445,65.84737805853956L116.90780000000001,64.71581667864717L129.89755555555556,63.70454803817904L142.8873111111111,70.39673921123529L155.87706666666665,72.87862817585301L168.8668222222222,80.88006687583021L181.85657777777777,83.79008823390666L194.84633333333332,86.98676665463188L207.8360888888889,94.55100423835756L220.82584444444444,96.69565472844363L233.81560000000002,103.87651178608883L246.80535555555554,104.95677178893379L259.7951111111111,103.119787713091L272.7848666666667,104.59299772280508L285.7746222222222,105.37191572206075L298.7643777777777,106.75357292436627L311.7541333333333,109.71464265526203L324.7438888888889,116.11068601501398L337.7336444444444,121.43829965799233L350.72339999999997,119.93526106042475L363.71315555555555,122.39052230871187L376.7029111111111,129.29722628493863L389.69266666666664,132.43736538961963L402.6824222222222,135.79843758061625L415.6721777777778,134.07255903422637L428.6619333333333,137.24696564086653L441.6516888888889,136.8778207830821L454.64144444444446,140.8181527608496L467.63120000000004,142.63017605568692L480.6209555555555,149.23048395694482L493.6107111111111,149.27392210012925L506.60046666666665,157.16336695974908L519.5902222222222,154.9176633960946L532.5799777777778,160.23514845576432L545.5697333333334,158.14790494027432L558.559488888889,162.34797287328874L571.5492444444444,165.41608374706342" style="fill: none;" fill="none"></path></g></g></g></g><g opacity="0.2"><g><g><g><path stroke="rgb(51, 187, 238)" stroke-width="2px" d="M64.94877777777778,221.73983296881784L77.93853333333333,225.24756684366864L90.92828888888889,228.4571589847141L103.91804444444445,231.8272119581435L116.90780000000001,234.58308294677738L129.89755555555556,237.61156212022573L142.8873111111111,241.53246386379666L155.87706666666665,243.92010102335615L168.8668222222222,246.66958862474232L181.85657777777777,248.77272697618275L194.84633333333332,251.5925570017497L207.8360888888889,254.24504214986166L220.82584444444444,256.5066387023926L233.81560000000002,258.9843942701552L246.80535555555554,261.2119460906983L259.7951111111111,263.67393093702526L272.7848666666667,266.1108828921848L285.7746222222222,268.55709701707633L298.7643777777777,271.11708563232423L311.7541333333333,273.4554079962836L324.7438888888889,275.9515627390544L337.7336444444444,278.1868747558594L350.72339999999997,280.7615076124403L363.71315555555555,282.3946534322103L376.7029111111111,284.8770400848389L389.69266666666664,286.6437363789876L402.6824222222222,288.4318357950847L415.6721777777778,290.78330042690703L428.6619333333333,291.81941179233127L441.6516888888889,293.82604834832085L454.64144444444446,295.9175464053684L467.63120000000004,297.382095703125L480.6209555555555,299.3245228932699L493.6107111111111,300.8478994852702L506.60046666666665,302.6725469224718L519.5902222222222,304.3492499728733L532.5799777777778,306.7554114718967L545.5697333333334,308.6988399776883L558.559488888889,310.24900176323786L571.5492444444444,311.88264824083114" style="fill: none;" fill="none"></path></g><g><path stroke="rgb(204, 51, 17)" stroke-width="2px" d="M64.94877777777778,56.720385938856396L77.93853333333333,67.18626224263517L90.92828888888889,54.61111452907994L103.91804444444445,74.07856816779247L116.90780000000001,63.238450141059104L129.89755555555556,62.305599451700914L142.8873111111111,79.96667966376418L155.87706666666665,76.4972461123997L168.8668222222222,92.68063475884338L181.85657777777777,88.1111308051216L194.84633333333332,91.75279064771871L207.8360888888889,105.85619636705195L220.82584444444444,99.9056278076173L233.81560000000002,114.6337293260363L246.80535555555554,106.57589198811854L259.7951111111111,100.36560718282072L272.7848666666667,106.80218932427306L285.7746222222222,106.54009495374902L298.7643777777777,108.82584824625656L311.7541333333333,114.1559765981039L324.7438888888889,125.70440028042267L337.7336444444444,129.42954481506357L350.72339999999997,117.68073283894864L363.71315555555555,126.07338509623216L376.7029111111111,139.6572331593832L389.69266666666664,137.14756065538202L402.6824222222222,140.8400372670492L415.6721777777778,131.48374386427142L428.6619333333333,142.00857262674973L441.6516888888889,136.32410370042595L454.64144444444446,146.72864942084425L467.63120000000004,145.34821063741055L480.6209555555555,159.13094502088762L493.6107111111111,149.33907931179476L506.60046666666665,168.99753391011564L519.5902222222222,151.54910810852053L532.5799777777778,168.21137596299917L545.5697333333334,155.01703968641496L558.559488888889,168.64807474941682L571.5492444444444,170.0182500474718" style="fill: none;" fill="none"></path></g></g></g></g></g><g><g><span fill="rgb(0, 0, 0)" stroke="none" stroke-width="1px">Alt + Scroll to Zoom</span></g></g></g><g transform="translate(58, 377)" clip-path="url(#clip_1)"><clipPath id="clip_1"><rect width="584" height="21"></rect></clipPath><g><g><line x1="0" y1="0" x2="0" y2="5" style="visibility: inherit;" fill="rgb(0, 0, 0)" stroke="rgb(204, 204, 204)" stroke-width="1px"></line><line x1="64.94877777777778" y1="0" x2="64.94877777777778" y2="5" style="visibility: inherit;" fill="rgb(0, 0, 0)" stroke="rgb(204, 204, 204)" stroke-width="1px"></line><line x1="129.89755555555556" y1="0" x2="129.89755555555556" y2="5" style="visibility: inherit;" fill="rgb(0, 0, 0)" stroke="rgb(204, 204, 204)" stroke-width="1px"></line><line x1="194.84633333333332" y1="0" x2="194.84633333333332" y2="5" style="visibility: inherit;" fill="rgb(0, 0, 0)" stroke="rgb(204, 204, 204)" stroke-width="1px"></line><line x1="259.7951111111111" y1="0" x2="259.7951111111111" y2="5" style="visibility: inherit;" fill="rgb(0, 0, 0)" stroke="rgb(204, 204, 204)" stroke-width="1px"></line><line x1="324.7438888888889" y1="0" x2="324.7438888888889" y2="5" style="visibility: inherit;" fill="rgb(0, 0, 0)" stroke="rgb(204, 204, 204)" stroke-width="1px"></line><line x1="389.69266666666664" y1="0" x2="389.69266666666664" y2="5" style="visibility: inherit;" fill="rgb(0, 0, 0)" stroke="rgb(204, 204, 204)" stroke-width="1px"></line><line x1="454.64144444444446" y1="0" x2="454.64144444444446" y2="5" style="visibility: inherit;" fill="rgb(0, 0, 0)" stroke="rgb(204, 204, 204)" stroke-width="1px"></line><line x1="519.5902222222222" y1="0" x2="519.5902222222222" y2="5" style="visibility: inherit;" fill="rgb(0, 0, 0)" stroke="rgb(204, 204, 204)" stroke-width="1px"></line><line x1="584.539" y1="0" x2="584.539" y2="5" style="visibility: inherit;" fill="rgb(0, 0, 0)" stroke="rgb(204, 204, 204)" stroke-width="1px"></line></g><g transform="translate(0, 8)"><text x="0" y="0" dx="0em" dy="0.95em" style="text-anchor: middle; visibility: hidden; font-family: &quot;Helvetica Neue&quot;, sans-serif; font-size: 12px; font-weight: 200;" fill="rgb(50, 49, 63)" stroke="none" stroke-width="1px">-5</text><text x="64.94877777777778" y="0" dx="0em" dy="0.95em" style="text-anchor: middle; visibility: inherit; font-family: &quot;Helvetica Neue&quot;, sans-serif; font-size: 12px; font-weight: 200;" fill="rgb(50, 49, 63)" stroke="none" stroke-width="1px">0</text><text x="129.89755555555556" y="0" dx="0em" dy="0.95em" style="text-anchor: middle; visibility: inherit; font-family: &quot;Helvetica Neue&quot;, sans-serif; font-size: 12px; font-weight: 200;" fill="rgb(50, 49, 63)" stroke="none" stroke-width="1px">5</text><text x="194.84633333333332" y="0" dx="0em" dy="0.95em" style="text-anchor: middle; visibility: inherit; font-family: &quot;Helvetica Neue&quot;, sans-serif; font-size: 12px; font-weight: 200;" fill="rgb(50, 49, 63)" stroke="none" stroke-width="1px">10</text><text x="259.7951111111111" y="0" dx="0em" dy="0.95em" style="text-anchor: middle; visibility: inherit; font-family: &quot;Helvetica Neue&quot;, sans-serif; font-size: 12px; font-weight: 200;" fill="rgb(50, 49, 63)" stroke="none" stroke-width="1px">15</text><text x="324.7438888888889" y="0" dx="0em" dy="0.95em" style="text-anchor: middle; visibility: inherit; font-family: &quot;Helvetica Neue&quot;, sans-serif; font-size: 12px; font-weight: 200;" fill="rgb(50, 49, 63)" stroke="none" stroke-width="1px">20</text><text x="389.69266666666664" y="0" dx="0em" dy="0.95em" style="text-anchor: middle; visibility: inherit; font-family: &quot;Helvetica Neue&quot;, sans-serif; font-size: 12px; font-weight: 200;" fill="rgb(50, 49, 63)" stroke="none" stroke-width="1px">25</text><text x="454.64144444444446" y="0" dx="0em" dy="0.95em" style="text-anchor: middle; visibility: inherit; font-family: &quot;Helvetica Neue&quot;, sans-serif; font-size: 12px; font-weight: 200;" fill="rgb(50, 49, 63)" stroke="none" stroke-width="1px">30</text><text x="519.5902222222222" y="0" dx="0em" dy="0.95em" style="text-anchor: middle; visibility: inherit; font-family: &quot;Helvetica Neue&quot;, sans-serif; font-size: 12px; font-weight: 200;" fill="rgb(50, 49, 63)" stroke="none" stroke-width="1px">35</text><text x="584.539" y="0" dx="0em" dy="0.95em" style="text-anchor: middle; visibility: hidden; font-family: &quot;Helvetica Neue&quot;, sans-serif; font-size: 12px; font-weight: 200;" fill="rgb(50, 49, 63)" stroke="none" stroke-width="1px">40</text></g><line x1="0" y1="0" x2="584.539" y2="0" fill="rgb(0, 0, 0)" stroke="rgb(204, 204, 204)" stroke-width="1px"></line></g></g></g></g></svg>