<svg viewBox="0 0 1195.546875 399.984375" xmlns="http://www.w3.org/2000/svg"><g><g><g><g><g><line x1="58" y1="377.984" x2="53" y2="377.984" style="visibility: inherit;" fill="rgb(0, 0, 0)" stroke="rgb(204, 204, 204)" stroke-width="1px"></line><line x1="58" y1="346.4853333333333" x2="53" y2="346.4853333333333" style="visibility: inherit;" fill="rgb(0, 0, 0)" stroke="rgb(204, 204, 204)" stroke-width="1px"></line><line x1="58" y1="314.9866666666667" x2="53" y2="314.9866666666667" style="visibility: inherit;" fill="rgb(0, 0, 0)" stroke="rgb(204, 204, 204)" stroke-width="1px"></line><line x1="58" y1="283.488" x2="53" y2="283.488" style="visibility: inherit;" fill="rgb(0, 0, 0)" stroke="rgb(204, 204, 204)" stroke-width="1px"></line><line x1="58" y1="251.98933333333332" x2="53" y2="251.98933333333332" style="visibility: inherit;" fill="rgb(0, 0, 0)" stroke="rgb(204, 204, 204)" stroke-width="1px"></line><line x1="58" y1="220.49066666666667" x2="53" y2="220.49066666666667" style="visibility: inherit;" fill="rgb(0, 0, 0)" stroke="rgb(204, 204, 204)" stroke-width="1px"></line><line x1="58" y1="188.99200000000002" x2="53" y2="188.99200000000002" style="visibility: inherit;" fill="rgb(0, 0, 0)" stroke="rgb(204, 204, 204)" stroke-width="1px"></line><line x1="58" y1="157.49333333333334" x2="53" y2="157.49333333333334" style="visibility: inherit;" fill="rgb(0, 0, 0)" stroke="rgb(204, 204, 204)" stroke-width="1px"></line><line x1="58" y1="125.99466666666672" x2="53" y2="125.99466666666672" style="visibility: inherit;" fill="rgb(0, 0, 0)" stroke="rgb(204, 204, 204)" stroke-width="1px"></line><line x1="58" y1="94.49600000000004" x2="53" y2="94.49600000000004" style="visibility: inherit;" fill="rgb(0, 0, 0)" stroke="rgb(204, 204, 204)" stroke-width="1px"></line><line x1="58" y1="62.99733333333336" x2="53" y2="62.99733333333336" style="visibility: inherit;" fill="rgb(0, 0, 0)" stroke="rgb(204, 204, 204)" stroke-width="1px"></line><line x1="58" y1="31.49866666666668" x2="53" y2="31.49866666666668" style="visibility: inherit;" fill="rgb(0, 0, 0)" stroke="rgb(204, 204, 204)" stroke-width="1px"></line><line x1="58" y1="0" x2="53" y2="0" style="visibility: inherit;" fill="rgb(0, 0, 0)" stroke="rgb(204, 204, 204)" stroke-width="1px"></line></g><g transform="translate(48, 0)"><text x="0" y="377.984" dx="0em" dy="0.3em" style="text-anchor: end; visibility: hidden; font-family: &quot;Helvetica Neue&quot;, sans-serif; font-size: 12px; font-weight: 200;" fill="rgb(50, 49, 63)" stroke="none" stroke-width="1px">-0.2</text><text x="0" y="346.4853333333333" dx="0em" dy="0.3em" style="text-anchor: end; visibility: inherit; font-family: &quot;Helvetica Neue&quot;, sans-serif; font-size: 12px; font-weight: 200;" fill="rgb(50, 49, 63)" stroke="none" stroke-width="1px">0</text><text x="0" y="314.9866666666667" dx="0em" dy="0.3em" style="text-anchor: end; visibility: inherit; font-family: &quot;Helvetica Neue&quot;, sans-serif; font-size: 12px; font-weight: 200;" fill="rgb(50, 49, 63)" stroke="none" stroke-width="1px">0.2</text><text x="0" y="283.488" dx="0em" dy="0.3em" style="text-anchor: end; visibility: inherit; font-family: &quot;Helvetica Neue&quot;, sans-serif; font-size: 12px; font-weight: 200;" fill="rgb(50, 49, 63)" stroke="none" stroke-width="1px">0.4</text><text x="0" y="251.98933333333332" dx="0em" dy="0.3em" style="text-anchor: end; visibility: inherit; font-family: &quot;Helvetica Neue&quot;, sans-serif; font-size: 12px; font-weight: 200;" fill="rgb(50, 49, 63)" stroke="none" stroke-width="1px">0.6</text><text x="0" y="220.49066666666667" dx="0em" dy="0.3em" style="text-anchor: end; visibility: inherit; font-family: &quot;Helvetica Neue&quot;, sans-serif; font-size: 12px; font-weight: 200;" fill="rgb(50, 49, 63)" stroke="none" stroke-width="1px">0.8</text><text x="0" y="188.99200000000002" dx="0em" dy="0.3em" style="text-anchor: end; visibility: inherit; font-family: &quot;Helvetica Neue&quot;, sans-serif; font-size: 12px; font-weight: 200;" fill="rgb(50, 49, 63)" stroke="none" stroke-width="1px">1</text><text x="0" y="157.49333333333334" dx="0em" dy="0.3em" style="text-anchor: end; visibility: inherit; font-family: &quot;Helvetica Neue&quot;, sans-serif; font-size: 12px; font-weight: 200;" fill="rgb(50, 49, 63)" stroke="none" stroke-width="1px">1.2</text><text x="0" y="125.99466666666672" dx="0em" dy="0.3em" style="text-anchor: end; visibility: inherit; font-family: &quot;Helvetica Neue&quot;, sans-serif; font-size: 12px; font-weight: 200;" fill="rgb(50, 49, 63)" stroke="none" stroke-width="1px">1.4</text><text x="0" y="94.49600000000004" dx="0em" dy="0.3em" style="text-anchor: end; visibility: inherit; font-family: &quot;Helvetica Neue&quot;, sans-serif; font-size: 12px; font-weight: 200;" fill="rgb(50, 49, 63)" stroke="none" stroke-width="1px">1.6</text><text x="0" y="62.99733333333336" dx="0em" dy="0.3em" style="text-anchor: end; visibility: inherit; font-family: &quot;Helvetica Neue&quot;, sans-serif; font-size: 12px; font-weight: 200;" fill="rgb(50, 49, 63)" stroke="none" stroke-width="1px">1.8</text><text x="0" y="31.49866666666668" dx="0em" dy="0.3em" style="text-anchor: end; visibility: inherit; font-family: &quot;Helvetica Neue&quot;, sans-serif; font-size: 12px; font-weight: 200;" fill="rgb(50, 49, 63)" stroke="none" stroke-width="1px">2</text><text x="0" y="0" dx="0em" dy="0.3em" style="text-anchor: end; visibility: hidden; font-family: &quot;Helvetica Neue&quot;, sans-serif; font-size: 12px; font-weight: 200;" fill="rgb(50, 49, 63)" stroke="none" stroke-width="1px">2.2</text></g><line x1="58" y1="0" x2="58" y2="377.984" fill="rgb(0, 0, 0)" stroke="rgb(204, 204, 204)" stroke-width="1px"></line></g></g><g transform="translate(58, 0)" clip-path="url(#clip_0)"><clipPath id="clip_0"><rect width="584" height="377"></rect></clipPath><g><g><g><line x1="0" y1="0" x2="0" y2="377.984" fill="rgb(0, 0, 0)" stroke="rgb(60, 60, 60)" stroke-width="1px" opacity="0.25"></line><line x1="48.71158333333333" y1="0" x2="48.71158333333333" y2="377.984" fill="rgb(0, 0, 0)" stroke="rgb(60, 60, 60)" stroke-width="1px" opacity="0.25"></line><line x1="97.42316666666666" y1="0" x2="97.42316666666666" y2="377.984" fill="rgb(0, 0, 0)" stroke="rgb(60, 60, 60)" stroke-width="1px" opacity="0.25"></line><line x1="146.13475" y1="0" x2="146.13475" y2="377.984" fill="rgb(0, 0, 0)" stroke="rgb(60, 60, 60)" stroke-width="1px" opacity="0.25"></line><line x1="194.84633333333332" y1="0" x2="194.84633333333332" y2="377.984" fill="rgb(0, 0, 0)" stroke="rgb(60, 60, 60)" stroke-width="1px" opacity="0.25"></line><line x1="243.55791666666667" y1="0" x2="243.55791666666667" y2="377.984" fill="rgb(0, 0, 0)" stroke="rgb(60, 60, 60)" stroke-width="1px" opacity="0.25"></line><line x1="292.2695" y1="0" x2="292.2695" y2="377.984" fill="rgb(0, 0, 0)" stroke="rgb(60, 60, 60)" stroke-width="1px" opacity="0.25"></line><line x1="340.98108333333334" y1="0" x2="340.98108333333334" y2="377.984" fill="rgb(0, 0, 0)" stroke="rgb(60, 60, 60)" stroke-width="1px" opacity="0.25"></line><line x1="389.69266666666664" y1="0" x2="389.69266666666664" y2="377.984" fill="rgb(0, 0, 0)" stroke="rgb(60, 60, 60)" stroke-width="1px" opacity="0.25"></line><line x1="438.40425" y1="0" x2="438.40425" y2="377.984" fill="rgb(0, 0, 0)" stroke="rgb(60, 60, 60)" stroke-width="1px" opacity="0.25"></line><line x1="487.11583333333334" y1="0" x2="487.11583333333334" y2="377.984" fill="rgb(0, 0, 0)" stroke="rgb(60, 60, 60)" stroke-width="1px" opacity="0.25"></line><line x1="535.8274166666666" y1="0" x2="535.8274166666666" y2="377.984" fill="rgb(0, 0, 0)" stroke="rgb(60, 60, 60)" stroke-width="1px" opacity="0.25"></line><line x1="584.539" y1="0" x2="584.539" y2="377.984" fill="rgb(0, 0, 0)" stroke="rgb(60, 60, 60)" stroke-width="1px" opacity="0.25"></line></g><g><line x1="0" y1="377.984" x2="584.539" y2="377.984" fill="rgb(0, 0, 0)" stroke="rgb(60, 60, 60)" stroke-width="1px" opacity="0.25"></line><line x1="0" y1="346.4853333333333" x2="584.539" y2="346.4853333333333" fill="rgb(0, 0, 0)" stroke="rgb(60, 60, 60)" stroke-width="1px" opacity="0.25"></line><line x1="0" y1="314.9866666666667" x2="584.539" y2="314.9866666666667" fill="rgb(0, 0, 0)" stroke="rgb(60, 60, 60)" stroke-width="1px" opacity="0.25"></line><line x1="0" y1="283.488" x2="584.539" y2="283.488" fill="rgb(0, 0, 0)" stroke="rgb(60, 60, 60)" stroke-width="1px" opacity="0.25"></line><line x1="0" y1="251.98933333333332" x2="584.539" y2="251.98933333333332" fill="rgb(0, 0, 0)" stroke="rgb(60, 60, 60)" stroke-width="1px" opacity="0.25"></line><line x1="0" y1="220.49066666666667" x2="584.539" y2="220.49066666666667" fill="rgb(0, 0, 0)" stroke="rgb(60, 60, 60)" stroke-width="1px" opacity="0.25"></line><line x1="0" y1="188.99200000000002" x2="584.539" y2="188.99200000000002" fill="rgb(0, 0, 0)" stroke="rgb(60, 60, 60)" stroke-width="1px" opacity="0.25"></line><line x1="0" y1="157.49333333333334" x2="584.539" y2="157.49333333333334" fill="rgb(0, 0, 0)" stroke="rgb(60, 60, 60)" stroke-width="1px" opacity="0.25"></line><line x1="0" y1="125.99466666666672" x2="584.539" y2="125.99466666666672" fill="rgb(0, 0, 0)" stroke="rgb(60, 60, 60)" stroke-width="1px" opacity="0.25"></line><line x1="0" y1="94.49600000000004" x2="584.539" y2="94.49600000000004" fill="rgb(0, 0, 0)" stroke="rgb(60, 60, 60)" stroke-width="1px" opacity="0.25"></line><line x1="0" y1="62.99733333333336" x2="584.539" y2="62.99733333333336" fill="rgb(0, 0, 0)" stroke="rgb(60, 60, 60)" stroke-width="1px" opacity="0.25"></line><line x1="0" y1="31.49866666666668" x2="584.539" y2="31.49866666666668" fill="rgb(0, 0, 0)" stroke="rgb(60, 60, 60)" stroke-width="1px" opacity="0.25"></line><line x1="0" y1="0" x2="584.539" y2="0" fill="rgb(0, 0, 0)" stroke="rgb(60, 60, 60)" stroke-width="1px" opacity="0.25"></line></g></g></g><g><g><line x1="0" y1="346.4853333333333" x2="584.539" y2="346.4853333333333" fill="rgb(0, 0, 0)" stroke="rgb(153, 153, 153)" stroke-width="1.5px"></line></g></g><g><g><line x1="48.71158333333333" y1="0" x2="48.71158333333333" y2="377.984" fill="rgb(0, 0, 0)" stroke="rgb(153, 153, 153)" stroke-width="1.5px"></line></g></g><g><g><g><g><g><path stroke="rgb(255, 112, 67)" stroke-width="2px" d="M48.71158333333333,112.27431174469001L58.453900000000004,113.53578171285L68.19621666666667,115.22805943627912L77.93853333333333,117.20345286913016L87.68084999999999,119.24990382292162L97.42316666666666,121.16330923929667L107.16548333333333,122.74349263948235L116.90780000000001,123.82589097091622L126.65011666666666,124.2621139191248L136.39243333333334,123.91745682258289L146.13475,122.6943795654816L155.87706666666665,120.56148719533536L165.61938333333333,117.46860948965104L175.36169999999998,113.34992038882666L185.10401666666667,108.0516553582869L194.84633333333332,101.38522127172632L204.58864999999997,92.97585874480387L214.33096666666665,82.14580405142402L224.07328333333334,69.27359869999958L233.81560000000002,56.05488568497276L243.55791666666667,44.38776377455309L253.30023333333332,35.462219259111805L263.04255,34.67333358243786L272.7848666666667,39.00451913571152L282.5271833333333,46.52357625177581L292.2695,61.33552593901334L302.0118166666667,76.69625194129452L311.7541333333333,88.82836274050379L321.49645000000004,100.60406155629624L331.23876666666666,109.0058742790738L340.98108333333334,115.23345233390665L350.72339999999997,122.26098048014896L360.46571666666665,127.43461462970441L370.20803333333333,128.8514178377842L379.95035,130.15073249940042L389.69266666666664,129.90345955934566L399.4349833333333,128.8337176759069L409.17729999999995,130.2420212851102L418.9196166666667,131.14437883396926L428.6619333333333,130.45435535172564L438.40425,130.93187516617098" style="fill: none;" fill="none"></path></g><g><path stroke="rgb(187, 187, 187)" stroke-width="2px" d="M48.71158333333333,89.59578902435305L58.453900000000004,106.27784459702173L68.19621666666667,116.64876426374997L77.93853333333333,123.64026101985635L87.68084999999999,128.6310811702959L97.42316666666666,132.2882656272691L107.16548333333333,135.06922086090222L116.90780000000001,137.38096227149506L126.65011666666666,139.4187312888125L136.39243333333334,141.2665081354843L146.13475,142.9637237875349L155.87706666666665,144.63143502979335L165.61938333333333,146.3894119196594L175.36169999999998,148.3592289085322L185.10401666666667,150.82089493763704L194.84633333333332,154.08538949908782L204.58864999999997,158.50245577172024L214.33096666666665,164.17873054268438L224.07328333333334,170.99635247365848L233.81560000000002,178.63551723120395L243.55791666666667,186.74903305769325L253.30023333333332,194.82149742289502L263.04255,202.10020077279162L272.7848666666667,208.73972491418112L282.5271833333333,215.460251758458L292.2695,221.9670724145317L302.0118166666667,227.9697246946097L311.7541333333333,232.9950636967631L321.49645000000004,236.52079735837486L331.23876666666666,242.3756520848689L340.98108333333334,247.96582371646574L350.72339999999997,252.16817707038314L360.46571666666665,257.6747612829613L370.20803333333333,262.75414571789906L379.95035,267.6896968910937L389.69266666666664,272.6741557862674L399.4349833333333,277.25896941744185L409.17729999999995,281.818000836756L418.9196166666667,286.2157644910639L428.6619333333333,290.2402091140398L438.40425,294.05703570860675" style="fill: none;" fill="none"></path></g></g></g></g><g opacity="0.2"><g><g><g><path stroke="rgb(255, 112, 67)" stroke-width="2px" d="M48.71158333333333,112.27431174468995L58.453900000000004,114.29266369374596L68.19621666666667,116.85264605077111L77.93853333333333,119.52651554616295L87.68084999999999,121.92175018819177L97.42316666666666,123.81023775609336L107.16548333333333,125.00318018468224L116.90780000000001,125.40403812917074L126.65011666666666,124.90545803578698L136.39243333333334,123.40568120193484L146.13475,120.87085690053306L155.87706666666665,117.37375574620569L165.61938333333333,112.83939171346032L175.36169999999998,107.17995567830405L185.10401666666667,100.11048572413131L194.84633333333332,91.3902718276978L204.58864999999997,80.36537351481127L214.33096666666665,65.90347176106775L224.07328333333334,49.96725162378948L233.81560000000002,36.228024405161534L243.55791666666667,26.88772076161706L253.30023333333332,22.07419618479412L263.04255,33.490020642598495L272.7848666666667,45.50124615859988L282.5271833333333,57.80210848363242L292.2695,83.55338730367032L302.0118166666667,99.73730164082849L311.7541333333333,107.02651031366992L321.49645000000004,118.26759893290205L331.23876666666666,121.60858871968588L340.98108333333334,124.5748173510234L350.72339999999997,132.80227130126957L360.46571666666665,135.19506523640953L370.20803333333333,130.97662254842123L379.95035,132.09970443598434L389.69266666666664,129.53255015563968L399.4349833333333,127.22910486729941L409.17729999999995,132.3544766858419L418.9196166666667,132.4979151522319L428.6619333333333,129.4193201306661L438.40425,131.64815488688157" style="fill: none;" fill="none"></path></g><g><path stroke="rgb(187, 187, 187)" stroke-width="2px" d="M48.71158333333333,89.59578902435305L58.453900000000004,116.28707794062302L68.19621666666667,126.60484714380905L77.93853333333333,131.86226120503747L87.68084999999999,135.14709595870974L97.42316666666666,137.3474683176677L107.16548333333333,139.04603134028122L116.90780000000001,140.75150344085696L126.65011666666666,142.42404477310185L136.39243333333334,144.0102414054871L146.13475,145.4941536445618L155.87706666666665,147.12392628224694L165.61938333333333,149.0206371548971L175.36169999999998,151.31009531529747L185.10401666666667,154.51050038528444L194.84633333333332,158.97982896677658L204.58864999999997,165.12618602625534L214.33096666666665,172.69170149358115L224.07328333333334,181.2217467740377L233.81560000000002,190.09356611760458L243.55791666666667,198.9188618329366L253.30023333333332,206.92992834281924L263.04255,213.01811209233603L272.7848666666667,218.69893247477216L282.5271833333333,225.54099425824484L292.2695,231.7272756500244L302.0118166666667,236.97368775558473L311.7541333333333,240.53306448491415L321.49645000000004,241.8093946030935L331.23876666666666,251.1579309387207L340.98108333333334,256.3510793100993L350.72339999999997,258.4717062651317L360.46571666666665,265.9346369444529L370.20803333333333,270.37322200647986L379.95035,275.0930234387716L389.69266666666664,280.15084400049847L399.4349833333333,284.13618979326884L409.17729999999995,288.656547923406L418.9196166666667,292.81240994803113L428.6619333333333,296.27687603505456L438.40425,299.78227559280396" style="fill: none;" fill="none"></path></g></g></g></g></g></g><g transform="translate(58, 377)" clip-path="url(#clip_1)"><clipPath id="clip_1"><rect width="584" height="21"></rect></clipPath><g><g><line x1="0" y1="0" x2="0" y2="5" style="visibility: inherit;" fill="rgb(0, 0, 0)" stroke="rgb(204, 204, 204)" stroke-width="1px"></line><line x1="48.71158333333333" y1="0" x2="48.71158333333333" y2="5" style="visibility: inherit;" fill="rgb(0, 0, 0)" stroke="rgb(204, 204, 204)" stroke-width="1px"></line><line x1="97.42316666666666" y1="0" x2="97.42316666666666" y2="5" style="visibility: inherit;" fill="rgb(0, 0, 0)" stroke="rgb(204, 204, 204)" stroke-width="1px"></line><line x1="146.13475" y1="0" x2="146.13475" y2="5" style="visibility: inherit;" fill="rgb(0, 0, 0)" stroke="rgb(204, 204, 204)" stroke-width="1px"></line><line x1="194.84633333333332" y1="0" x2="194.84633333333332" y2="5" style="visibility: inherit;" fill="rgb(0, 0, 0)" stroke="rgb(204, 204, 204)" stroke-width="1px"></line><line x1="243.55791666666667" y1="0" x2="243.55791666666667" y2="5" style="visibility: inherit;" fill="rgb(0, 0, 0)" stroke="rgb(204, 204, 204)" stroke-width="1px"></line><line x1="292.2695" y1="0" x2="292.2695" y2="5" style="visibility: inherit;" fill="rgb(0, 0, 0)" stroke="rgb(204, 204, 204)" stroke-width="1px"></line><line x1="340.98108333333334" y1="0" x2="340.98108333333334" y2="5" style="visibility: inherit;" fill="rgb(0, 0, 0)" stroke="rgb(204, 204, 204)" stroke-width="1px"></line><line x1="389.69266666666664" y1="0" x2="389.69266666666664" y2="5" style="visibility: inherit;" fill="rgb(0, 0, 0)" stroke="rgb(204, 204, 204)" stroke-width="1px"></line><line x1="438.40425" y1="0" x2="438.40425" y2="5" style="visibility: inherit;" fill="rgb(0, 0, 0)" stroke="rgb(204, 204, 204)" stroke-width="1px"></line><line x1="487.11583333333334" y1="0" x2="487.11583333333334" y2="5" style="visibility: inherit;" fill="rgb(0, 0, 0)" stroke="rgb(204, 204, 204)" stroke-width="1px"></line><line x1="535.8274166666666" y1="0" x2="535.8274166666666" y2="5" style="visibility: inherit;" fill="rgb(0, 0, 0)" stroke="rgb(204, 204, 204)" stroke-width="1px"></line><line x1="584.539" y1="0" x2="584.539" y2="5" style="visibility: inherit;" fill="rgb(0, 0, 0)" stroke="rgb(204, 204, 204)" stroke-width="1px"></line></g><g transform="translate(0, 8)"><text x="0" y="0" dx="0em" dy="0.95em" style="text-anchor: middle; visibility: hidden; font-family: &quot;Helvetica Neue&quot;, sans-serif; font-size: 12px; font-weight: 200;" fill="rgb(50, 49, 63)" stroke="none" stroke-width="1px">-5</text><text x="48.71158333333333" y="0" dx="0em" dy="0.95em" style="text-anchor: middle; visibility: inherit; font-family: &quot;Helvetica Neue&quot;, sans-serif; font-size: 12px; font-weight: 200;" fill="rgb(50, 49, 63)" stroke="none" stroke-width="1px">0</text><text x="97.42316666666666" y="0" dx="0em" dy="0.95em" style="text-anchor: middle; visibility: inherit; font-family: &quot;Helvetica Neue&quot;, sans-serif; font-size: 12px; font-weight: 200;" fill="rgb(50, 49, 63)" stroke="none" stroke-width="1px">5</text><text x="146.13475" y="0" dx="0em" dy="0.95em" style="text-anchor: middle; visibility: inherit; font-family: &quot;Helvetica Neue&quot;, sans-serif; font-size: 12px; font-weight: 200;" fill="rgb(50, 49, 63)" stroke="none" stroke-width="1px">10</text><text x="194.84633333333332" y="0" dx="0em" dy="0.95em" style="text-anchor: middle; visibility: inherit; font-family: &quot;Helvetica Neue&quot;, sans-serif; font-size: 12px; font-weight: 200;" fill="rgb(50, 49, 63)" stroke="none" stroke-width="1px">15</text><text x="243.55791666666667" y="0" dx="0em" dy="0.95em" style="text-anchor: middle; visibility: inherit; font-family: &quot;Helvetica Neue&quot;, sans-serif; font-size: 12px; font-weight: 200;" fill="rgb(50, 49, 63)" stroke="none" stroke-width="1px">20</text><text x="292.2695" y="0" dx="0em" dy="0.95em" style="text-anchor: middle; visibility: inherit; font-family: &quot;Helvetica Neue&quot;, sans-serif; font-size: 12px; font-weight: 200;" fill="rgb(50, 49, 63)" stroke="none" stroke-width="1px">25</text><text x="340.98108333333334" y="0" dx="0em" dy="0.95em" style="text-anchor: middle; visibility: inherit; font-family: &quot;Helvetica Neue&quot;, sans-serif; font-size: 12px; font-weight: 200;" fill="rgb(50, 49, 63)" stroke="none" stroke-width="1px">30</text><text x="389.69266666666664" y="0" dx="0em" dy="0.95em" style="text-anchor: middle; visibility: inherit; font-family: &quot;Helvetica Neue&quot;, sans-serif; font-size: 12px; font-weight: 200;" fill="rgb(50, 49, 63)" stroke="none" stroke-width="1px">35</text><text x="438.40425" y="0" dx="0em" dy="0.95em" style="text-anchor: middle; visibility: inherit; font-family: &quot;Helvetica Neue&quot;, sans-serif; font-size: 12px; font-weight: 200;" fill="rgb(50, 49, 63)" stroke="none" stroke-width="1px">40</text><text x="487.11583333333334" y="0" dx="0em" dy="0.95em" style="text-anchor: middle; visibility: inherit; font-family: &quot;Helvetica Neue&quot;, sans-serif; font-size: 12px; font-weight: 200;" fill="rgb(50, 49, 63)" stroke="none" stroke-width="1px">45</text><text x="535.8274166666666" y="0" dx="0em" dy="0.95em" style="text-anchor: middle; visibility: inherit; font-family: &quot;Helvetica Neue&quot;, sans-serif; font-size: 12px; font-weight: 200;" fill="rgb(50, 49, 63)" stroke="none" stroke-width="1px">50</text><text x="584.539" y="0" dx="0em" dy="0.95em" style="text-anchor: middle; visibility: hidden; font-family: &quot;Helvetica Neue&quot;, sans-serif; font-size: 12px; font-weight: 200;" fill="rgb(50, 49, 63)" stroke="none" stroke-width="1px">55</text></g><line x1="0" y1="0" x2="584.539" y2="0" fill="rgb(0, 0, 0)" stroke="rgb(204, 204, 204)" stroke-width="1px"></line></g></g></g></g></svg>