<svg viewBox="0 0 642.5390625 399.984375" xmlns="http://www.w3.org/2000/svg"><g><g><g><g><g><line x1="58" y1="377.984" x2="53" y2="377.984" style="visibility: inherit;" fill="rgb(0, 0, 0)" stroke="rgb(204, 204, 204)" stroke-width="1px"></line><line x1="58" y1="335.98577777777774" x2="53" y2="335.98577777777774" style="visibility: inherit;" fill="rgb(0, 0, 0)" stroke="rgb(204, 204, 204)" stroke-width="1px"></line><line x1="58" y1="293.98755555555556" x2="53" y2="293.98755555555556" style="visibility: inherit;" fill="rgb(0, 0, 0)" stroke="rgb(204, 204, 204)" stroke-width="1px"></line><line x1="58" y1="251.98933333333332" x2="53" y2="251.98933333333332" style="visibility: inherit;" fill="rgb(0, 0, 0)" stroke="rgb(204, 204, 204)" stroke-width="1px"></line><line x1="58" y1="209.9911111111111" x2="53" y2="209.9911111111111" style="visibility: inherit;" fill="rgb(0, 0, 0)" stroke="rgb(204, 204, 204)" stroke-width="1px"></line><line x1="58" y1="167.99288888888887" x2="53" y2="167.99288888888887" style="visibility: inherit;" fill="rgb(0, 0, 0)" stroke="rgb(204, 204, 204)" stroke-width="1px"></line><line x1="58" y1="125.99466666666666" x2="53" y2="125.99466666666666" style="visibility: inherit;" fill="rgb(0, 0, 0)" stroke="rgb(204, 204, 204)" stroke-width="1px"></line><line x1="58" y1="83.99644444444442" x2="53" y2="83.99644444444442" style="visibility: inherit;" fill="rgb(0, 0, 0)" stroke="rgb(204, 204, 204)" stroke-width="1px"></line><line x1="58" y1="41.99822222222224" x2="53" y2="41.99822222222224" style="visibility: inherit;" fill="rgb(0, 0, 0)" stroke="rgb(204, 204, 204)" stroke-width="1px"></line><line x1="58" y1="0" x2="53" y2="0" style="visibility: inherit;" fill="rgb(0, 0, 0)" stroke="rgb(204, 204, 204)" stroke-width="1px"></line></g><g transform="translate(48, 0)"><text x="0" y="377.984" dx="0em" dy="0.3em" style="text-anchor: end; visibility: hidden; font-family: &quot;Helvetica Neue&quot;, sans-serif; font-size: 12px; font-weight: 200;" fill="rgb(50, 49, 63)" stroke="none" stroke-width="1px">-0.5</text><text x="0" y="335.98577777777774" dx="0em" dy="0.3em" style="text-anchor: end; visibility: inherit; font-family: &quot;Helvetica Neue&quot;, sans-serif; font-size: 12px; font-weight: 200;" fill="rgb(50, 49, 63)" stroke="none" stroke-width="1px">0</text><text x="0" y="293.98755555555556" dx="0em" dy="0.3em" style="text-anchor: end; visibility: inherit; font-family: &quot;Helvetica Neue&quot;, sans-serif; font-size: 12px; font-weight: 200;" fill="rgb(50, 49, 63)" stroke="none" stroke-width="1px">0.5</text><text x="0" y="251.98933333333332" dx="0em" dy="0.3em" style="text-anchor: end; visibility: inherit; font-family: &quot;Helvetica Neue&quot;, sans-serif; font-size: 12px; font-weight: 200;" fill="rgb(50, 49, 63)" stroke="none" stroke-width="1px">1</text><text x="0" y="209.9911111111111" dx="0em" dy="0.3em" style="text-anchor: end; visibility: inherit; font-family: &quot;Helvetica Neue&quot;, sans-serif; font-size: 12px; font-weight: 200;" fill="rgb(50, 49, 63)" stroke="none" stroke-width="1px">1.5</text><text x="0" y="167.99288888888887" dx="0em" dy="0.3em" style="text-anchor: end; visibility: inherit; font-family: &quot;Helvetica Neue&quot;, sans-serif; font-size: 12px; font-weight: 200;" fill="rgb(50, 49, 63)" stroke="none" stroke-width="1px">2</text><text x="0" y="125.99466666666666" dx="0em" dy="0.3em" style="text-anchor: end; visibility: inherit; font-family: &quot;Helvetica Neue&quot;, sans-serif; font-size: 12px; font-weight: 200;" fill="rgb(50, 49, 63)" stroke="none" stroke-width="1px">2.5</text><text x="0" y="83.99644444444442" dx="0em" dy="0.3em" style="text-anchor: end; visibility: inherit; font-family: &quot;Helvetica Neue&quot;, sans-serif; font-size: 12px; font-weight: 200;" fill="rgb(50, 49, 63)" stroke="none" stroke-width="1px">3</text><text x="0" y="41.99822222222224" dx="0em" dy="0.3em" style="text-anchor: end; visibility: inherit; font-family: &quot;Helvetica Neue&quot;, sans-serif; font-size: 12px; font-weight: 200;" fill="rgb(50, 49, 63)" stroke="none" stroke-width="1px">3.5</text><text x="0" y="0" dx="0em" dy="0.3em" style="text-anchor: end; visibility: hidden; font-family: &quot;Helvetica Neue&quot;, sans-serif; font-size: 12px; font-weight: 200;" fill="rgb(50, 49, 63)" stroke="none" stroke-width="1px">4</text></g><line x1="58" y1="0" x2="58" y2="377.984" fill="rgb(0, 0, 0)" stroke="rgb(204, 204, 204)" stroke-width="1px"></line></g></g><g transform="translate(58, 0)" clip-path="url(#clip_0)"><clipPath id="clip_0"><rect width="584" height="377"></rect></clipPath><g><g><g><line x1="0" y1="0" x2="0" y2="377.984" fill="rgb(0, 0, 0)" stroke="rgb(60, 60, 60)" stroke-width="1px" opacity="0.25"></line><line x1="48.71158333333333" y1="0" x2="48.71158333333333" y2="377.984" fill="rgb(0, 0, 0)" stroke="rgb(60, 60, 60)" stroke-width="1px" opacity="0.25"></line><line x1="97.42316666666666" y1="0" x2="97.42316666666666" y2="377.984" fill="rgb(0, 0, 0)" stroke="rgb(60, 60, 60)" stroke-width="1px" opacity="0.25"></line><line x1="146.13475" y1="0" x2="146.13475" y2="377.984" fill="rgb(0, 0, 0)" stroke="rgb(60, 60, 60)" stroke-width="1px" opacity="0.25"></line><line x1="194.84633333333332" y1="0" x2="194.84633333333332" y2="377.984" fill="rgb(0, 0, 0)" stroke="rgb(60, 60, 60)" stroke-width="1px" opacity="0.25"></line><line x1="243.55791666666667" y1="0" x2="243.55791666666667" y2="377.984" fill="rgb(0, 0, 0)" stroke="rgb(60, 60, 60)" stroke-width="1px" opacity="0.25"></line><line x1="292.2695" y1="0" x2="292.2695" y2="377.984" fill="rgb(0, 0, 0)" stroke="rgb(60, 60, 60)" stroke-width="1px" opacity="0.25"></line><line x1="340.98108333333334" y1="0" x2="340.98108333333334" y2="377.984" fill="rgb(0, 0, 0)" stroke="rgb(60, 60, 60)" stroke-width="1px" opacity="0.25"></line><line x1="389.69266666666664" y1="0" x2="389.69266666666664" y2="377.984" fill="rgb(0, 0, 0)" stroke="rgb(60, 60, 60)" stroke-width="1px" opacity="0.25"></line><line x1="438.40425" y1="0" x2="438.40425" y2="377.984" fill="rgb(0, 0, 0)" stroke="rgb(60, 60, 60)" stroke-width="1px" opacity="0.25"></line><line x1="487.11583333333334" y1="0" x2="487.11583333333334" y2="377.984" fill="rgb(0, 0, 0)" stroke="rgb(60, 60, 60)" stroke-width="1px" opacity="0.25"></line><line x1="535.8274166666666" y1="0" x2="535.8274166666666" y2="377.984" fill="rgb(0, 0, 0)" stroke="rgb(60, 60, 60)" stroke-width="1px" opacity="0.25"></line><line x1="584.539" y1="0" x2="584.539" y2="377.984" fill="rgb(0, 0, 0)" stroke="rgb(60, 60, 60)" stroke-width="1px" opacity="0.25"></line></g><g><line x1="0" y1="377.984" x2="584.539" y2="377.984" fill="rgb(0, 0, 0)" stroke="rgb(60, 60, 60)" stroke-width="1px" opacity="0.25"></line><line x1="0" y1="335.98577777777774" x2="584.539" y2="335.98577777777774" fill="rgb(0, 0, 0)" stroke="rgb(60, 60, 60)" stroke-width="1px" opacity="0.25"></line><line x1="0" y1="293.98755555555556" x2="584.539" y2="293.98755555555556" fill="rgb(0, 0, 0)" stroke="rgb(60, 60, 60)" stroke-width="1px" opacity="0.25"></line><line x1="0" y1="251.98933333333332" x2="584.539" y2="251.98933333333332" fill="rgb(0, 0, 0)" stroke="rgb(60, 60, 60)" stroke-width="1px" opacity="0.25"></line><line x1="0" y1="209.9911111111111" x2="584.539" y2="209.9911111111111" fill="rgb(0, 0, 0)" stroke="rgb(60, 60, 60)" stroke-width="1px" opacity="0.25"></line><line x1="0" y1="167.99288888888887" x2="584.539" y2="167.99288888888887" fill="rgb(0, 0, 0)" stroke="rgb(60, 60, 60)" stroke-width="1px" opacity="0.25"></line><line x1="0" y1="125.99466666666666" x2="584.539" y2="125.99466666666666" fill="rgb(0, 0, 0)" stroke="rgb(60, 60, 60)" stroke-width="1px" opacity="0.25"></line><line x1="0" y1="83.99644444444442" x2="584.539" y2="83.99644444444442" fill="rgb(0, 0, 0)" stroke="rgb(60, 60, 60)" stroke-width="1px" opacity="0.25"></line><line x1="0" y1="41.99822222222224" x2="584.539" y2="41.99822222222224" fill="rgb(0, 0, 0)" stroke="rgb(60, 60, 60)" stroke-width="1px" opacity="0.25"></line><line x1="0" y1="0" x2="584.539" y2="0" fill="rgb(0, 0, 0)" stroke="rgb(60, 60, 60)" stroke-width="1px" opacity="0.25"></line></g></g></g><g><g><line x1="0" y1="335.98577777777774" x2="584.539" y2="335.98577777777774" fill="rgb(0, 0, 0)" stroke="rgb(153, 153, 153)" stroke-width="1.5px"></line></g></g><g><g><line x1="48.71158333333333" y1="0" x2="48.71158333333333" y2="377.984" fill="rgb(0, 0, 0)" stroke="rgb(153, 153, 153)" stroke-width="1.5px"></line></g></g><g><g><g><g><g><path stroke="rgb(204, 51, 17)" stroke-width="2px" d="M48.71158333333333,221.86899768066405L58.453900000000004,234.63182323752508L68.19621666666667,246.2981409811422L77.93853333333333,256.510964478019L87.68084999999999,265.1907828701071L97.42316666666666,272.4368755767035L107.16548333333333,278.4617600445087L116.90780000000001,283.4085560925274L126.65011666666666,287.5030283339141L136.39243333333334,290.84218663251187L146.13475,293.67593365298785L155.87706666666665,296.00402564877743L165.61938333333333,297.92209442666086L175.36169999999998,299.5764752018829L185.10401666666667,300.97101984611476L194.84633333333332,302.1369548437399L204.58864999999997,303.17942412817956L214.33096666666665,304.0147389021654L224.07328333333334,304.82998630329195L233.81560000000002,305.5169341063985L243.55791666666667,306.1456029417788L253.30023333333332,306.69748323833323L263.04255,307.21551882859853L272.7848666666667,307.6350459127375L282.5271833333333,308.0002833725357L292.2695,308.345341842529L302.0118166666667,308.6744961277607L311.7541333333333,308.9592541968073L321.49645000000004,309.1978930139985L331.23876666666666,309.4539736108479L340.98108333333334,309.67920699911906L350.72339999999997,309.8775370445066L360.46571666666665,310.1228189943981L370.20803333333333,310.32480318085476L379.95035,310.49576007883724L389.69266666666664,310.6739115189071L399.4349833333333,310.8333544311841L409.17729999999995,310.9717533259317L418.9196166666667,311.11237231752756L428.6619333333333,311.2077291462592L438.40425,311.3641265622489L448.1465666666667,311.4931602554453L457.8888833333333,311.5854920639384L467.63120000000004,311.71244616645845L477.37351666666666,311.8180543040256L487.11583333333334,311.8953384753645L496.85814999999997,311.96753691395674L506.60046666666665,312.0641530050385L516.3427833333333,312.1367498786534L526.0851,312.22614222523424" style="fill: none;" fill="none"></path></g><g><path stroke="rgb(0, 119, 187)" stroke-width="2px" d="M48.71158333333333,181.96789089626736L58.453900000000004,206.5697281943427L68.19621666666667,223.8825306449077L77.93853333333333,238.32566336868635L87.68084999999999,250.10150279891417L97.42316666666666,259.9929020795778L107.16548333333333,268.0735577390555L116.90780000000001,274.6041568552327L126.65011666666666,280.00318319070607L136.39243333333334,284.39703258597496L146.13475,287.91109868147703L155.87706666666665,290.88315590543897L165.61938333333333,293.2955374643928L175.36169999999998,295.351137626343L185.10401666666667,297.0511864640914L194.84633333333332,298.6830060712697L204.58864999999997,300.0432117735543L214.33096666666665,301.1628335914116L224.07328333333334,302.0304412323887L233.81560000000002,302.90079238841935L243.55791666666667,303.617087005475L253.30023333333332,304.323816265779L263.04255,304.84900758198876L272.7848666666667,305.4432808331041L282.5271833333333,305.8380392768487L292.2695,306.2575659524807L302.0118166666667,306.6794282326305L311.7541333333333,307.1280493205156L321.49645000000004,307.41396780597495L331.23876666666666,307.6268761791262L340.98108333333334,307.96390918791803L350.72339999999997,308.2988964206911L360.46571666666665,308.55333897506557L370.20803333333333,308.8070833120821L379.95035,309.0270789274596L389.69266666666664,309.20744985365684L399.4349833333333,309.3909673400198L409.17729999999995,309.57095664640656L418.9196166666667,309.6283797842772L428.6619333333333,309.7662485457316L438.40425,309.91756993749686L448.1465666666667,309.9321486333086L457.8888833333333,310.11518785625327L467.63120000000004,310.24527000815385L477.37351666666666,310.43958406166166L487.11583333333334,310.5075806480472L496.85814999999997,310.70148877410304L506.60046666666665,310.91479204511984L516.3427833333333,311.0237039512351L526.0851,311.0482454796687" style="fill: none;" fill="none"></path></g></g></g></g><g opacity="0.2"><g><g><g><path stroke="rgb(204, 51, 17)" stroke-width="2px" d="M48.71158333333333,221.86899768066405L58.453900000000004,242.28951857164168L68.19621666666667,257.49780601501465L77.93853333333333,268.5212449103461L87.68084999999999,276.5231537628174L97.42316666666666,282.46083038330073L107.16548333333333,287.0774412316216L116.90780000000001,290.6210322197808L126.65011666666666,293.5415795796712L136.39243333333334,295.8004475470649L146.13475,297.90085230678983L155.87706666666665,299.4834942686293L165.61938333333333,300.7929347661336L175.36169999999998,302.05480526055226L185.10401666666667,303.06119757758245L194.84633333333332,303.88503503248427L204.58864999999997,304.74268691677514L214.33096666666665,305.2674989768134L224.07328333333334,306.0527332102458L233.81560000000002,306.54729302130806L243.55791666666667,307.0885717171563L253.30023333333332,307.52528552330864L263.04255,307.9925619862874L272.7848666666667,308.26433156924776L282.5271833333333,308.54813696628145L292.2695,308.86292807600233L302.0118166666667,309.16822671339247L311.7541333333333,309.38639086320666L321.49645000000004,309.55585101996525L331.23876666666666,309.8380943645901L340.98108333333334,310.0170570068359L350.72339999999997,310.1750320731269L360.46571666666665,310.4907418899536L370.20803333333333,310.62777944607205L379.95035,310.75219541846377L389.69266666666664,310.9411386744181L399.4349833333333,311.0725187971327L409.17729999999995,311.17935166676835L418.9196166666667,311.32330080413817L428.6619333333333,311.3507643890381L438.40425,311.5987226859198L448.1465666666667,311.68671079508465L457.8888833333333,311.72398977661135L467.63120000000004,311.9028773201836L477.37351666666666,311.9764665103488L487.11583333333334,312.0112647323608L496.85814999999997,312.07583457183836L506.60046666666665,312.2090771416558L516.3427833333333,312.24564518907334L526.0851,312.3602307451036" style="fill: none;" fill="none"></path></g><g><path stroke="rgb(0, 119, 187)" stroke-width="2px" d="M48.71158333333333,181.96789089626736L58.453900000000004,221.33083057318794L68.19621666666667,240.50282099745007L77.93853333333333,255.31078745185005L87.68084999999999,265.4760387590196L97.42316666666666,273.67626818847657L107.16548333333333,279.6290246225993L116.90780000000001,284.12583306037055L126.65011666666666,287.96569832865396L136.39243333333334,290.92138686116533L146.13475,293.1503255038791L155.87706666666665,295.3250679372152L165.61938333333333,296.90623295847575L175.36169999999998,298.4305107345581L185.10401666666667,299.5992613771226L194.84633333333332,301.129584596422L204.58864999999997,302.0829447335137L214.33096666666665,302.84198204633924L224.07328333333334,303.33172052256265L233.81560000000002,304.20623956892223L243.55791666666667,304.69148964775934L253.30023333333332,305.3838869010077L263.04255,305.6367841873169L272.7848666666667,306.33468367004394L282.5271833333333,306.4301741366916L292.2695,306.88685417683917L302.0118166666667,307.3122205734253L311.7541333333333,307.80098026360406L321.49645000000004,307.8428452707926L331.23876666666666,307.9462386211819L340.98108333333334,308.4694585893419L350.72339999999997,308.8013772031996L360.46571666666665,308.9350027762519L370.20803333333333,309.1876997994317L379.95035,309.3570723410712L389.69266666666664,309.4780062383016L399.4349833333333,309.666243566725L409.17729999999995,309.84094060431585L418.9196166666667,309.71451449076335L428.6619333333333,309.97305168745254L438.40425,310.1445520248413L448.1465666666667,309.9540166770087L457.8888833333333,310.3897466905382L467.63120000000004,310.44039323594836L477.37351666666666,310.73105514187284L487.11583333333334,310.609575527615L496.85814999999997,310.99235096316863L506.60046666666665,311.23474695163304L516.3427833333333,311.18707181040446L526.0851,311.0850577723185" style="fill: none;" fill="none"></path></g></g></g></g></g></g><g transform="translate(58, 377)" clip-path="url(#clip_1)"><clipPath id="clip_1"><rect width="584" height="21"></rect></clipPath><g><g><line x1="0" y1="0" x2="0" y2="5" style="visibility: inherit;" fill="rgb(0, 0, 0)" stroke="rgb(204, 204, 204)" stroke-width="1px"></line><line x1="48.71158333333333" y1="0" x2="48.71158333333333" y2="5" style="visibility: inherit;" fill="rgb(0, 0, 0)" stroke="rgb(204, 204, 204)" stroke-width="1px"></line><line x1="97.42316666666666" y1="0" x2="97.42316666666666" y2="5" style="visibility: inherit;" fill="rgb(0, 0, 0)" stroke="rgb(204, 204, 204)" stroke-width="1px"></line><line x1="146.13475" y1="0" x2="146.13475" y2="5" style="visibility: inherit;" fill="rgb(0, 0, 0)" stroke="rgb(204, 204, 204)" stroke-width="1px"></line><line x1="194.84633333333332" y1="0" x2="194.84633333333332" y2="5" style="visibility: inherit;" fill="rgb(0, 0, 0)" stroke="rgb(204, 204, 204)" stroke-width="1px"></line><line x1="243.55791666666667" y1="0" x2="243.55791666666667" y2="5" style="visibility: inherit;" fill="rgb(0, 0, 0)" stroke="rgb(204, 204, 204)" stroke-width="1px"></line><line x1="292.2695" y1="0" x2="292.2695" y2="5" style="visibility: inherit;" fill="rgb(0, 0, 0)" stroke="rgb(204, 204, 204)" stroke-width="1px"></line><line x1="340.98108333333334" y1="0" x2="340.98108333333334" y2="5" style="visibility: inherit;" fill="rgb(0, 0, 0)" stroke="rgb(204, 204, 204)" stroke-width="1px"></line><line x1="389.69266666666664" y1="0" x2="389.69266666666664" y2="5" style="visibility: inherit;" fill="rgb(0, 0, 0)" stroke="rgb(204, 204, 204)" stroke-width="1px"></line><line x1="438.40425" y1="0" x2="438.40425" y2="5" style="visibility: inherit;" fill="rgb(0, 0, 0)" stroke="rgb(204, 204, 204)" stroke-width="1px"></line><line x1="487.11583333333334" y1="0" x2="487.11583333333334" y2="5" style="visibility: inherit;" fill="rgb(0, 0, 0)" stroke="rgb(204, 204, 204)" stroke-width="1px"></line><line x1="535.8274166666666" y1="0" x2="535.8274166666666" y2="5" style="visibility: inherit;" fill="rgb(0, 0, 0)" stroke="rgb(204, 204, 204)" stroke-width="1px"></line><line x1="584.539" y1="0" x2="584.539" y2="5" style="visibility: inherit;" fill="rgb(0, 0, 0)" stroke="rgb(204, 204, 204)" stroke-width="1px"></line></g><g transform="translate(0, 8)"><text x="0" y="0" dx="0em" dy="0.95em" style="text-anchor: middle; visibility: hidden; font-family: &quot;Helvetica Neue&quot;, sans-serif; font-size: 12px; font-weight: 200;" fill="rgb(50, 49, 63)" stroke="none" stroke-width="1px">-5</text><text x="48.71158333333333" y="0" dx="0em" dy="0.95em" style="text-anchor: middle; visibility: inherit; font-family: &quot;Helvetica Neue&quot;, sans-serif; font-size: 12px; font-weight: 200;" fill="rgb(50, 49, 63)" stroke="none" stroke-width="1px">0</text><text x="97.42316666666666" y="0" dx="0em" dy="0.95em" style="text-anchor: middle; visibility: inherit; font-family: &quot;Helvetica Neue&quot;, sans-serif; font-size: 12px; font-weight: 200;" fill="rgb(50, 49, 63)" stroke="none" stroke-width="1px">5</text><text x="146.13475" y="0" dx="0em" dy="0.95em" style="text-anchor: middle; visibility: inherit; font-family: &quot;Helvetica Neue&quot;, sans-serif; font-size: 12px; font-weight: 200;" fill="rgb(50, 49, 63)" stroke="none" stroke-width="1px">10</text><text x="194.84633333333332" y="0" dx="0em" dy="0.95em" style="text-anchor: middle; visibility: inherit; font-family: &quot;Helvetica Neue&quot;, sans-serif; font-size: 12px; font-weight: 200;" fill="rgb(50, 49, 63)" stroke="none" stroke-width="1px">15</text><text x="243.55791666666667" y="0" dx="0em" dy="0.95em" style="text-anchor: middle; visibility: inherit; font-family: &quot;Helvetica Neue&quot;, sans-serif; font-size: 12px; font-weight: 200;" fill="rgb(50, 49, 63)" stroke="none" stroke-width="1px">20</text><text x="292.2695" y="0" dx="0em" dy="0.95em" style="text-anchor: middle; visibility: inherit; font-family: &quot;Helvetica Neue&quot;, sans-serif; font-size: 12px; font-weight: 200;" fill="rgb(50, 49, 63)" stroke="none" stroke-width="1px">25</text><text x="340.98108333333334" y="0" dx="0em" dy="0.95em" style="text-anchor: middle; visibility: inherit; font-family: &quot;Helvetica Neue&quot;, sans-serif; font-size: 12px; font-weight: 200;" fill="rgb(50, 49, 63)" stroke="none" stroke-width="1px">30</text><text x="389.69266666666664" y="0" dx="0em" dy="0.95em" style="text-anchor: middle; visibility: inherit; font-family: &quot;Helvetica Neue&quot;, sans-serif; font-size: 12px; font-weight: 200;" fill="rgb(50, 49, 63)" stroke="none" stroke-width="1px">35</text><text x="438.40425" y="0" dx="0em" dy="0.95em" style="text-anchor: middle; visibility: inherit; font-family: &quot;Helvetica Neue&quot;, sans-serif; font-size: 12px; font-weight: 200;" fill="rgb(50, 49, 63)" stroke="none" stroke-width="1px">40</text><text x="487.11583333333334" y="0" dx="0em" dy="0.95em" style="text-anchor: middle; visibility: inherit; font-family: &quot;Helvetica Neue&quot;, sans-serif; font-size: 12px; font-weight: 200;" fill="rgb(50, 49, 63)" stroke="none" stroke-width="1px">45</text><text x="535.8274166666666" y="0" dx="0em" dy="0.95em" style="text-anchor: middle; visibility: inherit; font-family: &quot;Helvetica Neue&quot;, sans-serif; font-size: 12px; font-weight: 200;" fill="rgb(50, 49, 63)" stroke="none" stroke-width="1px">50</text><text x="584.539" y="0" dx="0em" dy="0.95em" style="text-anchor: middle; visibility: hidden; font-family: &quot;Helvetica Neue&quot;, sans-serif; font-size: 12px; font-weight: 200;" fill="rgb(50, 49, 63)" stroke="none" stroke-width="1px">55</text></g><line x1="0" y1="0" x2="584.539" y2="0" fill="rgb(0, 0, 0)" stroke="rgb(204, 204, 204)" stroke-width="1px"></line></g></g></g></g></svg>