<svg viewBox="0 0 642.5390625 399.984375" xmlns="http://www.w3.org/2000/svg"><g><g><g><g><g><line x1="58" y1="377.984" x2="53" y2="377.984" style="visibility: inherit;" fill="rgb(0, 0, 0)" stroke="rgb(204, 204, 204)" stroke-width="1px"></line><line x1="58" y1="340.18559999999997" x2="53" y2="340.18559999999997" style="visibility: inherit;" fill="rgb(0, 0, 0)" stroke="rgb(204, 204, 204)" stroke-width="1px"></line><line x1="58" y1="302.3872" x2="53" y2="302.3872" style="visibility: inherit;" fill="rgb(0, 0, 0)" stroke="rgb(204, 204, 204)" stroke-width="1px"></line><line x1="58" y1="264.5888" x2="53" y2="264.5888" style="visibility: inherit;" fill="rgb(0, 0, 0)" stroke="rgb(204, 204, 204)" stroke-width="1px"></line><line x1="58" y1="226.79039999999998" x2="53" y2="226.79039999999998" style="visibility: inherit;" fill="rgb(0, 0, 0)" stroke="rgb(204, 204, 204)" stroke-width="1px"></line><line x1="58" y1="188.992" x2="53" y2="188.992" style="visibility: inherit;" fill="rgb(0, 0, 0)" stroke="rgb(204, 204, 204)" stroke-width="1px"></line><line x1="58" y1="151.1936" x2="53" y2="151.1936" style="visibility: inherit;" fill="rgb(0, 0, 0)" stroke="rgb(204, 204, 204)" stroke-width="1px"></line><line x1="58" y1="113.39519999999999" x2="53" y2="113.39519999999999" style="visibility: inherit;" fill="rgb(0, 0, 0)" stroke="rgb(204, 204, 204)" stroke-width="1px"></line><line x1="58" y1="75.59680000000003" x2="53" y2="75.59680000000003" style="visibility: inherit;" fill="rgb(0, 0, 0)" stroke="rgb(204, 204, 204)" stroke-width="1px"></line><line x1="58" y1="37.798400000000015" x2="53" y2="37.798400000000015" style="visibility: inherit;" fill="rgb(0, 0, 0)" stroke="rgb(204, 204, 204)" stroke-width="1px"></line><line x1="58" y1="0" x2="53" y2="0" style="visibility: inherit;" fill="rgb(0, 0, 0)" stroke="rgb(204, 204, 204)" stroke-width="1px"></line></g><g transform="translate(48, 0)"><text x="0" y="377.984" dx="0em" dy="0.3em" style="text-anchor: end; visibility: hidden; font-family: &quot;Helvetica Neue&quot;, sans-serif; font-size: 12px; font-weight: 200;" fill="rgb(50, 49, 63)" stroke="none" stroke-width="1px">-0.1</text><text x="0" y="340.18559999999997" dx="0em" dy="0.3em" style="text-anchor: end; visibility: inherit; font-family: &quot;Helvetica Neue&quot;, sans-serif; font-size: 12px; font-weight: 200;" fill="rgb(50, 49, 63)" stroke="none" stroke-width="1px">0</text><text x="0" y="302.3872" dx="0em" dy="0.3em" style="text-anchor: end; visibility: inherit; font-family: &quot;Helvetica Neue&quot;, sans-serif; font-size: 12px; font-weight: 200;" fill="rgb(50, 49, 63)" stroke="none" stroke-width="1px">0.1</text><text x="0" y="264.5888" dx="0em" dy="0.3em" style="text-anchor: end; visibility: inherit; font-family: &quot;Helvetica Neue&quot;, sans-serif; font-size: 12px; font-weight: 200;" fill="rgb(50, 49, 63)" stroke="none" stroke-width="1px">0.2</text><text x="0" y="226.79039999999998" dx="0em" dy="0.3em" style="text-anchor: end; visibility: inherit; font-family: &quot;Helvetica Neue&quot;, sans-serif; font-size: 12px; font-weight: 200;" fill="rgb(50, 49, 63)" stroke="none" stroke-width="1px">0.3</text><text x="0" y="188.992" dx="0em" dy="0.3em" style="text-anchor: end; visibility: inherit; font-family: &quot;Helvetica Neue&quot;, sans-serif; font-size: 12px; font-weight: 200;" fill="rgb(50, 49, 63)" stroke="none" stroke-width="1px">0.4</text><text x="0" y="151.1936" dx="0em" dy="0.3em" style="text-anchor: end; visibility: inherit; font-family: &quot;Helvetica Neue&quot;, sans-serif; font-size: 12px; font-weight: 200;" fill="rgb(50, 49, 63)" stroke="none" stroke-width="1px">0.5</text><text x="0" y="113.39519999999999" dx="0em" dy="0.3em" style="text-anchor: end; visibility: inherit; font-family: &quot;Helvetica Neue&quot;, sans-serif; font-size: 12px; font-weight: 200;" fill="rgb(50, 49, 63)" stroke="none" stroke-width="1px">0.6</text><text x="0" y="75.59680000000003" dx="0em" dy="0.3em" style="text-anchor: end; visibility: inherit; font-family: &quot;Helvetica Neue&quot;, sans-serif; font-size: 12px; font-weight: 200;" fill="rgb(50, 49, 63)" stroke="none" stroke-width="1px">0.7</text><text x="0" y="37.798400000000015" dx="0em" dy="0.3em" style="text-anchor: end; visibility: inherit; font-family: &quot;Helvetica Neue&quot;, sans-serif; font-size: 12px; font-weight: 200;" fill="rgb(50, 49, 63)" stroke="none" stroke-width="1px">0.8</text><text x="0" y="0" dx="0em" dy="0.3em" style="text-anchor: end; visibility: hidden; font-family: &quot;Helvetica Neue&quot;, sans-serif; font-size: 12px; font-weight: 200;" fill="rgb(50, 49, 63)" stroke="none" stroke-width="1px">0.9</text></g><line x1="58" y1="0" x2="58" y2="377.984" fill="rgb(0, 0, 0)" stroke="rgb(204, 204, 204)" stroke-width="1px"></line></g></g><g transform="translate(58, 0)" clip-path="url(#clip_0)"><clipPath id="clip_0"><rect width="584" height="377"></rect></clipPath><g><g><g><line x1="0" y1="0" x2="0" y2="377.984" fill="rgb(0, 0, 0)" stroke="rgb(60, 60, 60)" stroke-width="1px" opacity="0.25"></line><line x1="48.71158333333333" y1="0" x2="48.71158333333333" y2="377.984" fill="rgb(0, 0, 0)" stroke="rgb(60, 60, 60)" stroke-width="1px" opacity="0.25"></line><line x1="97.42316666666666" y1="0" x2="97.42316666666666" y2="377.984" fill="rgb(0, 0, 0)" stroke="rgb(60, 60, 60)" stroke-width="1px" opacity="0.25"></line><line x1="146.13475" y1="0" x2="146.13475" y2="377.984" fill="rgb(0, 0, 0)" stroke="rgb(60, 60, 60)" stroke-width="1px" opacity="0.25"></line><line x1="194.84633333333332" y1="0" x2="194.84633333333332" y2="377.984" fill="rgb(0, 0, 0)" stroke="rgb(60, 60, 60)" stroke-width="1px" opacity="0.25"></line><line x1="243.55791666666667" y1="0" x2="243.55791666666667" y2="377.984" fill="rgb(0, 0, 0)" stroke="rgb(60, 60, 60)" stroke-width="1px" opacity="0.25"></line><line x1="292.2695" y1="0" x2="292.2695" y2="377.984" fill="rgb(0, 0, 0)" stroke="rgb(60, 60, 60)" stroke-width="1px" opacity="0.25"></line><line x1="340.98108333333334" y1="0" x2="340.98108333333334" y2="377.984" fill="rgb(0, 0, 0)" stroke="rgb(60, 60, 60)" stroke-width="1px" opacity="0.25"></line><line x1="389.69266666666664" y1="0" x2="389.69266666666664" y2="377.984" fill="rgb(0, 0, 0)" stroke="rgb(60, 60, 60)" stroke-width="1px" opacity="0.25"></line><line x1="438.40425" y1="0" x2="438.40425" y2="377.984" fill="rgb(0, 0, 0)" stroke="rgb(60, 60, 60)" stroke-width="1px" opacity="0.25"></line><line x1="487.11583333333334" y1="0" x2="487.11583333333334" y2="377.984" fill="rgb(0, 0, 0)" stroke="rgb(60, 60, 60)" stroke-width="1px" opacity="0.25"></line><line x1="535.8274166666666" y1="0" x2="535.8274166666666" y2="377.984" fill="rgb(0, 0, 0)" stroke="rgb(60, 60, 60)" stroke-width="1px" opacity="0.25"></line><line x1="584.539" y1="0" x2="584.539" y2="377.984" fill="rgb(0, 0, 0)" stroke="rgb(60, 60, 60)" stroke-width="1px" opacity="0.25"></line></g><g><line x1="0" y1="377.984" x2="584.539" y2="377.984" fill="rgb(0, 0, 0)" stroke="rgb(60, 60, 60)" stroke-width="1px" opacity="0.25"></line><line x1="0" y1="340.18559999999997" x2="584.539" y2="340.18559999999997" fill="rgb(0, 0, 0)" stroke="rgb(60, 60, 60)" stroke-width="1px" opacity="0.25"></line><line x1="0" y1="302.3872" x2="584.539" y2="302.3872" fill="rgb(0, 0, 0)" stroke="rgb(60, 60, 60)" stroke-width="1px" opacity="0.25"></line><line x1="0" y1="264.5888" x2="584.539" y2="264.5888" fill="rgb(0, 0, 0)" stroke="rgb(60, 60, 60)" stroke-width="1px" opacity="0.25"></line><line x1="0" y1="226.79039999999998" x2="584.539" y2="226.79039999999998" fill="rgb(0, 0, 0)" stroke="rgb(60, 60, 60)" stroke-width="1px" opacity="0.25"></line><line x1="0" y1="188.992" x2="584.539" y2="188.992" fill="rgb(0, 0, 0)" stroke="rgb(60, 60, 60)" stroke-width="1px" opacity="0.25"></line><line x1="0" y1="151.1936" x2="584.539" y2="151.1936" fill="rgb(0, 0, 0)" stroke="rgb(60, 60, 60)" stroke-width="1px" opacity="0.25"></line><line x1="0" y1="113.39519999999999" x2="584.539" y2="113.39519999999999" fill="rgb(0, 0, 0)" stroke="rgb(60, 60, 60)" stroke-width="1px" opacity="0.25"></line><line x1="0" y1="75.59680000000003" x2="584.539" y2="75.59680000000003" fill="rgb(0, 0, 0)" stroke="rgb(60, 60, 60)" stroke-width="1px" opacity="0.25"></line><line x1="0" y1="37.798400000000015" x2="584.539" y2="37.798400000000015" fill="rgb(0, 0, 0)" stroke="rgb(60, 60, 60)" stroke-width="1px" opacity="0.25"></line><line x1="0" y1="0" x2="584.539" y2="0" fill="rgb(0, 0, 0)" stroke="rgb(60, 60, 60)" stroke-width="1px" opacity="0.25"></line></g></g></g><g><g><line x1="0" y1="340.18559999999997" x2="584.539" y2="340.18559999999997" fill="rgb(0, 0, 0)" stroke="rgb(153, 153, 153)" stroke-width="1.5px"></line></g></g><g><g><line x1="48.71158333333333" y1="0" x2="48.71158333333333" y2="377.984" fill="rgb(0, 0, 0)" stroke="rgb(153, 153, 153)" stroke-width="1.5px"></line></g></g><g><g><g><g><g><path stroke="rgb(204, 51, 17)" stroke-width="2px" d="M48.71158333333333,235.86201861343383L58.453900000000004,214.52166976890564L68.19621666666667,189.34684242774807L77.93853333333333,167.47054030646717L87.68084999999999,148.6616444288393L97.42316666666666,133.9175665822655L107.16548333333333,121.94645188557888L116.90780000000001,112.62401139907206L126.65011666666666,105.29899111657875L136.39243333333334,99.4303693933378L146.13475,94.51571432837426L155.87706666666665,90.5176981162773L165.61938333333333,87.11518189385095L175.36169999999998,84.26952461426163L185.10401666666667,81.85765313110653L194.84633333333332,80.05837013686863L204.58864999999997,78.32384450110919L214.33096666666665,76.9304946757602L224.07328333333334,75.4897718834826L233.81560000000002,74.42379214690408L243.55791666666667,73.68342959799327L253.30023333333332,73.08802881973452L263.04255,72.52919689713082L272.7848666666667,71.99231374556649L282.5271833333333,71.87177192319075L292.2695,71.54745752623046L302.0118166666667,71.05048562574467L311.7541333333333,70.65150530951246L321.49645000000004,70.46251150901583L331.23876666666666,70.19792358641797L340.98108333333334,69.83758497624626L350.72339999999997,69.52058439313595L360.46571666666665,69.22958661502781L370.20803333333333,69.00459374174523L379.95035,68.86959802190125L389.69266666666664,68.78860059148013L399.4349833333333,68.58880146754319L409.17729999999995,68.41852777991807L418.9196166666667,68.21556612794785L428.6619333333333,68.04339492312062L438.40425,67.73849732105947L448.1465666666667,67.45476132035554L457.8888833333333,67.23412550613887L467.63120000000004,66.84975492458841L477.37351666666666,66.5687293499875L487.11583333333334,66.24892235179391L496.85814999999997,65.90584649944236L506.60046666666665,65.49840610888481L516.3427833333333,65.45553675370923L526.0851,65.22822026145218" style="fill: none;" fill="none"></path></g><g><path stroke="rgb(0, 119, 187)" stroke-width="2px" d="M48.71158333333333,269.5661005149841L58.453900000000004,247.36283974990843L68.19621666666667,224.0210915239762L77.93853333333333,199.10543232237313L87.68084999999999,177.35521131427984L97.42316666666666,157.91427407938386L107.16548333333333,141.91470751247712L116.90780000000001,130.130134357265L126.65011666666666,120.4992434806581L136.39243333333334,112.86471558049226L146.13475,106.67012851250695L155.87706666666665,101.73695089481657L165.61938333333333,98.20139670295703L175.36169999999998,95.01562499069195L185.10401666666667,92.37282529800763L194.84633333333332,89.71029842448968L204.58864999999997,87.2835737056937L214.33096666666665,85.78470278977693L224.07328333333334,84.4545141929679L233.81560000000002,83.12853799985743L243.55791666666667,81.81585451755774L253.30023333333332,80.7050579447772L263.04255,79.93085195045717L272.7848666666667,79.0246238079825L282.5271833333333,78.45934229803919L292.2695,77.89393177090392L302.0118166666667,77.04833725348095L311.7541333333333,75.80839008307584L321.49645000000004,75.32298108840064L331.23876666666666,75.08560860239453L340.98108333333334,74.31832204269273L350.72339999999997,73.81486455761751L360.46571666666665,73.15726394303698L370.20803333333333,72.9135347785168L379.95035,72.33636006067923L389.69266666666664,71.88231867820872L399.4349833333333,71.5344827672726L409.17729999999995,71.35809768339021L418.9196166666667,71.2630447951251L428.6619333333333,71.35683523047192L438.40425,70.92830850244144L448.1465666666667,70.82202364572521L457.8888833333333,70.43505207245522L467.63120000000004,70.5260697878004L477.37351666666666,69.93427909857093L487.11583333333334,69.04053091184556L496.85814999999997,68.57969308383326L506.60046666666665,68.66948566902755L516.3427833333333,68.52944442936877L526.0851,68.66088378774924" style="fill: none;" fill="none"></path></g></g></g></g><g opacity="0.2"><g><g><g><path stroke="rgb(204, 51, 17)" stroke-width="2px" d="M48.71158333333333,235.86201861343383L58.453900000000004,201.7174604621887L68.19621666666667,165.17900818023682L77.93853333333333,141.74400901184083L87.68084999999999,124.10474997100829L97.42316666666666,113.52119905242921L107.16548333333333,104.82756633148193L116.90780000000001,99.0318036743164L126.65011666666666,94.49600901184084L136.39243333333334,90.71615008697512L146.13475,87.18830729064939L155.87706666666665,84.5424308258057L165.61938333333333,82.02251736602784L175.36169999999998,80.00661363372802L185.10401666666667,78.24268097076418L194.84633333333332,77.36071463928221L204.58864999999997,75.7227900405884L214.33096666666665,74.84082370910647L224.07328333333334,73.32890717468263L233.81560000000002,72.82491997680665L243.55791666666667,72.57292637786867L253.30023333333332,72.19494724426272L263.04255,71.69096004638675L272.7848666666667,71.18699537811278L282.5271833333333,71.69096004638675L292.2695,71.06098731384276L302.0118166666667,70.30502904663086L311.7541333333333,70.05303544769288L321.49645000000004,70.17902098236084L331.23876666666666,69.80104184875489L340.98108333333334,69.29707718048098L350.72339999999997,69.045083581543L360.46571666666665,68.79308998260501L370.20803333333333,68.66710444793699L379.95035,68.66710444793699L389.69266666666664,68.66710444793699L399.4349833333333,68.28910278472898L409.17729999999995,68.16311725006102L418.9196166666667,67.91112365112303L428.6619333333333,67.78513811645507L438.40425,67.2811509185791L448.1465666666667,67.02915731964112L457.8888833333333,66.90317178497315L467.63120000000004,66.27319905242922L477.37351666666666,66.1471909881592L487.11583333333334,65.76921185455325L496.85814999999997,65.39123272094724L506.60046666666665,64.88724552307127L516.3427833333333,65.39123272094724L526.0851,64.88724552307127" style="fill: none;" fill="none"></path></g><g><path stroke="rgb(0, 119, 187)" stroke-width="2px" d="M48.71158333333333,269.5661005149841L58.453900000000004,234.04088329086304L68.19621666666667,201.6130132270813L77.93853333333333,169.80461710128785L87.68084999999999,148.9581227661133L97.42316666666666,131.02045914611816L107.16548333333333,119.03507132873534L116.90780000000001,112.94811356506347L126.65011666666666,106.29555014190674L136.39243333333334,101.52833140716552L146.13475,97.43443235931397L155.87706666666665,94.36403060302735L165.61938333333333,92.9096096130371L175.36169999999998,90.2432086807251L185.10401666666667,88.41173227081299L194.84633333333332,85.71838593444824L204.58864999999997,83.64451353607177L214.33096666666665,83.53677697906494L224.07328333333334,82.45943393859864L233.81560000000002,81.13969490966798L243.55791666666667,79.84690128479002L253.30023333333332,79.03889963684082L263.04255,78.76955824432372L272.7848666666667,77.66529232940673L282.5271833333333,77.61142405090334L292.2695,77.04581839141844L302.0118166666667,75.77994764099122L311.7541333333333,73.94847123107911L321.49645000000004,74.59486804351809L331.23876666666666,74.72955000457762L340.98108333333334,73.16739245758055L350.72339999999997,73.05967843017578L360.46571666666665,72.17086309967044L370.20803333333333,72.54794104919432L379.95035,71.47059800872802L389.69266666666664,71.20125661621097L399.4349833333333,71.01272890625L409.17729999999995,71.09352005920408L418.9196166666667,71.12046546325683L428.6619333333333,71.49752088317871L438.40425,70.28551841125488L448.1465666666667,70.66259636077882L457.8888833333333,69.85459471282957L467.63120000000004,70.66259636077882L477.37351666666666,69.04659306488037L487.11583333333334,67.69990863189696L496.85814999999997,67.88843634185793L506.60046666666665,68.80417454681395L516.3427833333333,68.31938256988525L526.0851,68.8580428253174" style="fill: none;" fill="none"></path></g></g></g></g></g></g><g transform="translate(58, 377)" clip-path="url(#clip_1)"><clipPath id="clip_1"><rect width="584" height="21"></rect></clipPath><g><g><line x1="0" y1="0" x2="0" y2="5" style="visibility: inherit;" fill="rgb(0, 0, 0)" stroke="rgb(204, 204, 204)" stroke-width="1px"></line><line x1="48.71158333333333" y1="0" x2="48.71158333333333" y2="5" style="visibility: inherit;" fill="rgb(0, 0, 0)" stroke="rgb(204, 204, 204)" stroke-width="1px"></line><line x1="97.42316666666666" y1="0" x2="97.42316666666666" y2="5" style="visibility: inherit;" fill="rgb(0, 0, 0)" stroke="rgb(204, 204, 204)" stroke-width="1px"></line><line x1="146.13475" y1="0" x2="146.13475" y2="5" style="visibility: inherit;" fill="rgb(0, 0, 0)" stroke="rgb(204, 204, 204)" stroke-width="1px"></line><line x1="194.84633333333332" y1="0" x2="194.84633333333332" y2="5" style="visibility: inherit;" fill="rgb(0, 0, 0)" stroke="rgb(204, 204, 204)" stroke-width="1px"></line><line x1="243.55791666666667" y1="0" x2="243.55791666666667" y2="5" style="visibility: inherit;" fill="rgb(0, 0, 0)" stroke="rgb(204, 204, 204)" stroke-width="1px"></line><line x1="292.2695" y1="0" x2="292.2695" y2="5" style="visibility: inherit;" fill="rgb(0, 0, 0)" stroke="rgb(204, 204, 204)" stroke-width="1px"></line><line x1="340.98108333333334" y1="0" x2="340.98108333333334" y2="5" style="visibility: inherit;" fill="rgb(0, 0, 0)" stroke="rgb(204, 204, 204)" stroke-width="1px"></line><line x1="389.69266666666664" y1="0" x2="389.69266666666664" y2="5" style="visibility: inherit;" fill="rgb(0, 0, 0)" stroke="rgb(204, 204, 204)" stroke-width="1px"></line><line x1="438.40425" y1="0" x2="438.40425" y2="5" style="visibility: inherit;" fill="rgb(0, 0, 0)" stroke="rgb(204, 204, 204)" stroke-width="1px"></line><line x1="487.11583333333334" y1="0" x2="487.11583333333334" y2="5" style="visibility: inherit;" fill="rgb(0, 0, 0)" stroke="rgb(204, 204, 204)" stroke-width="1px"></line><line x1="535.8274166666666" y1="0" x2="535.8274166666666" y2="5" style="visibility: inherit;" fill="rgb(0, 0, 0)" stroke="rgb(204, 204, 204)" stroke-width="1px"></line><line x1="584.539" y1="0" x2="584.539" y2="5" style="visibility: inherit;" fill="rgb(0, 0, 0)" stroke="rgb(204, 204, 204)" stroke-width="1px"></line></g><g transform="translate(0, 8)"><text x="0" y="0" dx="0em" dy="0.95em" style="text-anchor: middle; visibility: hidden; font-family: &quot;Helvetica Neue&quot;, sans-serif; font-size: 12px; font-weight: 200;" fill="rgb(50, 49, 63)" stroke="none" stroke-width="1px">-5</text><text x="48.71158333333333" y="0" dx="0em" dy="0.95em" style="text-anchor: middle; visibility: inherit; font-family: &quot;Helvetica Neue&quot;, sans-serif; font-size: 12px; font-weight: 200;" fill="rgb(50, 49, 63)" stroke="none" stroke-width="1px">0</text><text x="97.42316666666666" y="0" dx="0em" dy="0.95em" style="text-anchor: middle; visibility: inherit; font-family: &quot;Helvetica Neue&quot;, sans-serif; font-size: 12px; font-weight: 200;" fill="rgb(50, 49, 63)" stroke="none" stroke-width="1px">5</text><text x="146.13475" y="0" dx="0em" dy="0.95em" style="text-anchor: middle; visibility: inherit; font-family: &quot;Helvetica Neue&quot;, sans-serif; font-size: 12px; font-weight: 200;" fill="rgb(50, 49, 63)" stroke="none" stroke-width="1px">10</text><text x="194.84633333333332" y="0" dx="0em" dy="0.95em" style="text-anchor: middle; visibility: inherit; font-family: &quot;Helvetica Neue&quot;, sans-serif; font-size: 12px; font-weight: 200;" fill="rgb(50, 49, 63)" stroke="none" stroke-width="1px">15</text><text x="243.55791666666667" y="0" dx="0em" dy="0.95em" style="text-anchor: middle; visibility: inherit; font-family: &quot;Helvetica Neue&quot;, sans-serif; font-size: 12px; font-weight: 200;" fill="rgb(50, 49, 63)" stroke="none" stroke-width="1px">20</text><text x="292.2695" y="0" dx="0em" dy="0.95em" style="text-anchor: middle; visibility: inherit; font-family: &quot;Helvetica Neue&quot;, sans-serif; font-size: 12px; font-weight: 200;" fill="rgb(50, 49, 63)" stroke="none" stroke-width="1px">25</text><text x="340.98108333333334" y="0" dx="0em" dy="0.95em" style="text-anchor: middle; visibility: inherit; font-family: &quot;Helvetica Neue&quot;, sans-serif; font-size: 12px; font-weight: 200;" fill="rgb(50, 49, 63)" stroke="none" stroke-width="1px">30</text><text x="389.69266666666664" y="0" dx="0em" dy="0.95em" style="text-anchor: middle; visibility: inherit; font-family: &quot;Helvetica Neue&quot;, sans-serif; font-size: 12px; font-weight: 200;" fill="rgb(50, 49, 63)" stroke="none" stroke-width="1px">35</text><text x="438.40425" y="0" dx="0em" dy="0.95em" style="text-anchor: middle; visibility: inherit; font-family: &quot;Helvetica Neue&quot;, sans-serif; font-size: 12px; font-weight: 200;" fill="rgb(50, 49, 63)" stroke="none" stroke-width="1px">40</text><text x="487.11583333333334" y="0" dx="0em" dy="0.95em" style="text-anchor: middle; visibility: inherit; font-family: &quot;Helvetica Neue&quot;, sans-serif; font-size: 12px; font-weight: 200;" fill="rgb(50, 49, 63)" stroke="none" stroke-width="1px">45</text><text x="535.8274166666666" y="0" dx="0em" dy="0.95em" style="text-anchor: middle; visibility: inherit; font-family: &quot;Helvetica Neue&quot;, sans-serif; font-size: 12px; font-weight: 200;" fill="rgb(50, 49, 63)" stroke="none" stroke-width="1px">50</text><text x="584.539" y="0" dx="0em" dy="0.95em" style="text-anchor: middle; visibility: hidden; font-family: &quot;Helvetica Neue&quot;, sans-serif; font-size: 12px; font-weight: 200;" fill="rgb(50, 49, 63)" stroke="none" stroke-width="1px">55</text></g><line x1="0" y1="0" x2="584.539" y2="0" fill="rgb(0, 0, 0)" stroke="rgb(204, 204, 204)" stroke-width="1px"></line></g></g></g></g></svg>