<svg viewBox="0 0 668.0390625 399.984375" xmlns="http://www.w3.org/2000/svg"><g><g><g><g><g><line x1="58" y1="377.984" x2="53" y2="377.984" style="visibility: inherit;" fill="rgb(0, 0, 0)" stroke="rgb(204, 204, 204)" stroke-width="1px"></line><line x1="58" y1="340.18559999999997" x2="53" y2="340.18559999999997" style="visibility: inherit;" fill="rgb(0, 0, 0)" stroke="rgb(204, 204, 204)" stroke-width="1px"></line><line x1="58" y1="302.3872" x2="53" y2="302.3872" style="visibility: inherit;" fill="rgb(0, 0, 0)" stroke="rgb(204, 204, 204)" stroke-width="1px"></line><line x1="58" y1="264.5888" x2="53" y2="264.5888" style="visibility: inherit;" fill="rgb(0, 0, 0)" stroke="rgb(204, 204, 204)" stroke-width="1px"></line><line x1="58" y1="226.79039999999998" x2="53" y2="226.79039999999998" style="visibility: inherit;" fill="rgb(0, 0, 0)" stroke="rgb(204, 204, 204)" stroke-width="1px"></line><line x1="58" y1="188.992" x2="53" y2="188.992" style="visibility: inherit;" fill="rgb(0, 0, 0)" stroke="rgb(204, 204, 204)" stroke-width="1px"></line><line x1="58" y1="151.1936" x2="53" y2="151.1936" style="visibility: inherit;" fill="rgb(0, 0, 0)" stroke="rgb(204, 204, 204)" stroke-width="1px"></line><line x1="58" y1="113.39519999999999" x2="53" y2="113.39519999999999" style="visibility: inherit;" fill="rgb(0, 0, 0)" stroke="rgb(204, 204, 204)" stroke-width="1px"></line><line x1="58" y1="75.59680000000003" x2="53" y2="75.59680000000003" style="visibility: inherit;" fill="rgb(0, 0, 0)" stroke="rgb(204, 204, 204)" stroke-width="1px"></line><line x1="58" y1="37.798400000000015" x2="53" y2="37.798400000000015" style="visibility: inherit;" fill="rgb(0, 0, 0)" stroke="rgb(204, 204, 204)" stroke-width="1px"></line><line x1="58" y1="0" x2="53" y2="0" style="visibility: inherit;" fill="rgb(0, 0, 0)" stroke="rgb(204, 204, 204)" stroke-width="1px"></line></g><g transform="translate(48, 0)"><text x="0" y="377.984" dx="0em" dy="0.3em" style="text-anchor: end; visibility: hidden; font-family: &quot;Helvetica Neue&quot;, sans-serif; font-size: 12px; font-weight: 200;" fill="rgb(50, 49, 63)" stroke="none" stroke-width="1px">-0.1</text><text x="0" y="340.18559999999997" dx="0em" dy="0.3em" style="text-anchor: end; visibility: inherit; font-family: &quot;Helvetica Neue&quot;, sans-serif; font-size: 12px; font-weight: 200;" fill="rgb(50, 49, 63)" stroke="none" stroke-width="1px">0</text><text x="0" y="302.3872" dx="0em" dy="0.3em" style="text-anchor: end; visibility: inherit; font-family: &quot;Helvetica Neue&quot;, sans-serif; font-size: 12px; font-weight: 200;" fill="rgb(50, 49, 63)" stroke="none" stroke-width="1px">0.1</text><text x="0" y="264.5888" dx="0em" dy="0.3em" style="text-anchor: end; visibility: inherit; font-family: &quot;Helvetica Neue&quot;, sans-serif; font-size: 12px; font-weight: 200;" fill="rgb(50, 49, 63)" stroke="none" stroke-width="1px">0.2</text><text x="0" y="226.79039999999998" dx="0em" dy="0.3em" style="text-anchor: end; visibility: inherit; font-family: &quot;Helvetica Neue&quot;, sans-serif; font-size: 12px; font-weight: 200;" fill="rgb(50, 49, 63)" stroke="none" stroke-width="1px">0.3</text><text x="0" y="188.992" dx="0em" dy="0.3em" style="text-anchor: end; visibility: inherit; font-family: &quot;Helvetica Neue&quot;, sans-serif; font-size: 12px; font-weight: 200;" fill="rgb(50, 49, 63)" stroke="none" stroke-width="1px">0.4</text><text x="0" y="151.1936" dx="0em" dy="0.3em" style="text-anchor: end; visibility: inherit; font-family: &quot;Helvetica Neue&quot;, sans-serif; font-size: 12px; font-weight: 200;" fill="rgb(50, 49, 63)" stroke="none" stroke-width="1px">0.5</text><text x="0" y="113.39519999999999" dx="0em" dy="0.3em" style="text-anchor: end; visibility: inherit; font-family: &quot;Helvetica Neue&quot;, sans-serif; font-size: 12px; font-weight: 200;" fill="rgb(50, 49, 63)" stroke="none" stroke-width="1px">0.6</text><text x="0" y="75.59680000000003" dx="0em" dy="0.3em" style="text-anchor: end; visibility: inherit; font-family: &quot;Helvetica Neue&quot;, sans-serif; font-size: 12px; font-weight: 200;" fill="rgb(50, 49, 63)" stroke="none" stroke-width="1px">0.7</text><text x="0" y="37.798400000000015" dx="0em" dy="0.3em" style="text-anchor: end; visibility: inherit; font-family: &quot;Helvetica Neue&quot;, sans-serif; font-size: 12px; font-weight: 200;" fill="rgb(50, 49, 63)" stroke="none" stroke-width="1px">0.8</text><text x="0" y="0" dx="0em" dy="0.3em" style="text-anchor: end; visibility: hidden; font-family: &quot;Helvetica Neue&quot;, sans-serif; font-size: 12px; font-weight: 200;" fill="rgb(50, 49, 63)" stroke="none" stroke-width="1px">0.9</text></g><line x1="58" y1="0" x2="58" y2="377.984" fill="rgb(0, 0, 0)" stroke="rgb(204, 204, 204)" stroke-width="1px"></line></g></g><g transform="translate(58, 0)" clip-path="url(#clip_0)"><clipPath id="clip_0"><rect width="610" height="377"></rect></clipPath><g><g><g><line x1="0" y1="0" x2="0" y2="377.984" fill="rgb(0, 0, 0)" stroke="rgb(60, 60, 60)" stroke-width="1px" opacity="0.25"></line><line x1="87.14842857142857" y1="0" x2="87.14842857142857" y2="377.984" fill="rgb(0, 0, 0)" stroke="rgb(60, 60, 60)" stroke-width="1px" opacity="0.25"></line><line x1="174.29685714285714" y1="0" x2="174.29685714285714" y2="377.984" fill="rgb(0, 0, 0)" stroke="rgb(60, 60, 60)" stroke-width="1px" opacity="0.25"></line><line x1="261.4452857142857" y1="0" x2="261.4452857142857" y2="377.984" fill="rgb(0, 0, 0)" stroke="rgb(60, 60, 60)" stroke-width="1px" opacity="0.25"></line><line x1="348.59371428571427" y1="0" x2="348.59371428571427" y2="377.984" fill="rgb(0, 0, 0)" stroke="rgb(60, 60, 60)" stroke-width="1px" opacity="0.25"></line><line x1="435.7421428571429" y1="0" x2="435.7421428571429" y2="377.984" fill="rgb(0, 0, 0)" stroke="rgb(60, 60, 60)" stroke-width="1px" opacity="0.25"></line><line x1="522.8905714285714" y1="0" x2="522.8905714285714" y2="377.984" fill="rgb(0, 0, 0)" stroke="rgb(60, 60, 60)" stroke-width="1px" opacity="0.25"></line><line x1="610.039" y1="0" x2="610.039" y2="377.984" fill="rgb(0, 0, 0)" stroke="rgb(60, 60, 60)" stroke-width="1px" opacity="0.25"></line></g><g><line x1="0" y1="377.984" x2="610.039" y2="377.984" fill="rgb(0, 0, 0)" stroke="rgb(60, 60, 60)" stroke-width="1px" opacity="0.25"></line><line x1="0" y1="340.18559999999997" x2="610.039" y2="340.18559999999997" fill="rgb(0, 0, 0)" stroke="rgb(60, 60, 60)" stroke-width="1px" opacity="0.25"></line><line x1="0" y1="302.3872" x2="610.039" y2="302.3872" fill="rgb(0, 0, 0)" stroke="rgb(60, 60, 60)" stroke-width="1px" opacity="0.25"></line><line x1="0" y1="264.5888" x2="610.039" y2="264.5888" fill="rgb(0, 0, 0)" stroke="rgb(60, 60, 60)" stroke-width="1px" opacity="0.25"></line><line x1="0" y1="226.79039999999998" x2="610.039" y2="226.79039999999998" fill="rgb(0, 0, 0)" stroke="rgb(60, 60, 60)" stroke-width="1px" opacity="0.25"></line><line x1="0" y1="188.992" x2="610.039" y2="188.992" fill="rgb(0, 0, 0)" stroke="rgb(60, 60, 60)" stroke-width="1px" opacity="0.25"></line><line x1="0" y1="151.1936" x2="610.039" y2="151.1936" fill="rgb(0, 0, 0)" stroke="rgb(60, 60, 60)" stroke-width="1px" opacity="0.25"></line><line x1="0" y1="113.39519999999999" x2="610.039" y2="113.39519999999999" fill="rgb(0, 0, 0)" stroke="rgb(60, 60, 60)" stroke-width="1px" opacity="0.25"></line><line x1="0" y1="75.59680000000003" x2="610.039" y2="75.59680000000003" fill="rgb(0, 0, 0)" stroke="rgb(60, 60, 60)" stroke-width="1px" opacity="0.25"></line><line x1="0" y1="37.798400000000015" x2="610.039" y2="37.798400000000015" fill="rgb(0, 0, 0)" stroke="rgb(60, 60, 60)" stroke-width="1px" opacity="0.25"></line><line x1="0" y1="0" x2="610.039" y2="0" fill="rgb(0, 0, 0)" stroke="rgb(60, 60, 60)" stroke-width="1px" opacity="0.25"></line></g></g></g><g><g><line x1="0" y1="340.18559999999997" x2="610.039" y2="340.18559999999997" fill="rgb(0, 0, 0)" stroke="rgb(153, 153, 153)" stroke-width="1.5px"></line></g></g><g><g><line x1="87.14842857142857" y1="0" x2="87.14842857142857" y2="377.984" fill="rgb(0, 0, 0)" stroke="rgb(153, 153, 153)" stroke-width="1.5px"></line></g></g><g><g><g><g><g><path stroke="rgb(51, 187, 238)" stroke-width="2px" d="M87.14842857142857,270.5105470653534L104.57811428571428,270.5105470653534L122.0078,270.38198177630363L139.4374857142857,270.4410650892861L156.8671714285714,269.76078739366363L174.29685714285714,267.32642529448947L191.72654285714285,250.07469853015266L209.15622857142856,227.68464936524686L226.5859142857143,206.80620407364833L244.0156,198.11604089125387L261.4452857142857,188.1810466553945L278.8749714285714,185.4251602912967L296.30465714285714,177.16471908392566L313.7343428571428,173.37542164325595L331.16402857142856,169.03646105207176L348.59371428571427,164.01461009561015L366.0234,169.26905600487999L383.4530857142857,163.75184271224094L400.8827714285714,168.65722562073148L418.3124571428571,165.6026962486319L435.7421428571429,158.32696358368537L453.1718285714286,154.16321465544246L470.6015142857143,153.47934157854826L488.0312,152.06106004073504L505.4608857142857,148.63979395576405L522.8905714285714,146.0326671843553L540.3202571428571,140.53735288384377L557.7499428571429,138.14732739273234L575.1796285714286,133.84063451616868L592.6093142857143,134.53248775107963" style="fill: none;" fill="none"></path></g><g><path stroke="rgb(204, 51, 17)" stroke-width="2px" d="M87.14842857142857,119.78920469818115L104.57811428571428,96.30660048065187L122.0078,100.04258323541762L139.4374857142857,96.8512121955199L156.8671714285714,89.6278523910184L174.29685714285714,85.4109936291253L191.72654285714285,85.13847930076838L209.15622857142856,84.61834599832605L226.5859142857143,80.99258355109771L244.0156,79.13329821318166L261.4452857142857,79.75496463827335L278.8749714285714,78.85248928812172L296.30465714285714,78.35541397838205L313.7343428571428,75.84731171234034L331.16402857142856,74.57005752414386L348.59371428571427,72.144514354038L366.0234,70.56032971825556L383.4530857142857,68.34937636646077L400.8827714285714,66.67817909309576L418.3124571428571,65.77248784698918L435.7421428571429,64.173279907942L453.1718285714286,63.50466562384224L470.6015142857143,62.93112283314582L488.0312,61.76821636830414L505.4608857142857,60.844242120854915L522.8905714285714,59.96665804309299L540.3202571428571,59.213866059164616L557.7499428571429,59.40859307722309L575.1796285714286,59.277639545031434L592.6093142857143,58.886635878126924" style="fill: none;" fill="none"></path></g></g></g></g><g opacity="0.2"><g><g><g><path stroke="rgb(51, 187, 238)" stroke-width="2px" d="M87.14842857142857,270.5105470653534L104.57811428571428,270.5105470653534L122.0078,270.2585590988159L139.4374857142857,270.5105470653534L156.8671714285714,268.872616834259L174.29685714285714,263.95882614097593L191.72654285714285,225.40445322952272L209.15622857142856,195.03974273834228L226.5859142857143,176.0145526977539L244.0156,185.21216135177613L261.4452857142857,173.36866496810913L278.8749714285714,181.30632815704345L296.30465714285714,164.80102904663087L313.7343428571428,167.6988991104126L331.16402857142856,162.53312045059204L348.59371428571427,156.48537545928954L366.0234,177.14850136337282L383.4530857142857,155.47742359313966L400.8827714285714,176.0145526977539L418.3124571428571,161.02118138656616L435.7421428571429,147.41376360473632L453.1718285714286,147.91772827301025L470.6015142857143,152.4535454650879L488.0312,149.9336545349121L505.4608857142857,143.50791914520264L522.8905714285714,142.12198814544678L540.3202571428571,132.2943954940796L557.7499428571429,134.56229282531737L575.1796285714286,127.380599168396L592.6093142857143,135.57026722106934" style="fill: none;" fill="none"></path></g><g><path stroke="rgb(204, 51, 17)" stroke-width="2px" d="M87.14842857142857,119.78920469818115L104.57811428571428,82.21703795013428L122.0078,103.62912667999268L139.4374857142857,93.09815985260008L156.8671714285714,80.19703383026126L174.29685714285714,79.57755989227297L191.72654285714285,84.74877945098876L209.15622857142856,83.85998665008543L226.5859142857143,75.6452882095337L244.0156,76.37247617492676L261.4452857142857,80.68182580718997L278.8749714285714,77.5036874938965L296.30465714285714,77.61142405090334L313.7343428571428,72.09007194671631L331.16402857142856,72.65567760620115L348.59371428571427,68.50791027984621L366.0234,68.18472313842773L383.4530857142857,65.03350769958496L400.8827714285714,64.17163777313232L418.3124571428571,64.41403376159667L435.7421428571429,61.77455570373536L453.1718285714286,62.50176619873048L470.6015142857143,62.070819970703155L488.0312,60.02387044677732L505.4608857142857,59.45828731689454L522.8905714285714,58.650285668945344L540.3202571428571,58.08468000946044L557.7499428571429,59.70068330535889L575.1796285714286,59.081209367370604L592.6093142857143,58.3001305938721" style="fill: none;" fill="none"></path></g></g></g></g></g></g><g transform="translate(58, 377)" clip-path="url(#clip_1)"><clipPath id="clip_1"><rect width="610" height="21"></rect></clipPath><g><g><line x1="0" y1="0" x2="0" y2="5" style="visibility: inherit;" fill="rgb(0, 0, 0)" stroke="rgb(204, 204, 204)" stroke-width="1px"></line><line x1="87.14842857142857" y1="0" x2="87.14842857142857" y2="5" style="visibility: inherit;" fill="rgb(0, 0, 0)" stroke="rgb(204, 204, 204)" stroke-width="1px"></line><line x1="174.29685714285714" y1="0" x2="174.29685714285714" y2="5" style="visibility: inherit;" fill="rgb(0, 0, 0)" stroke="rgb(204, 204, 204)" stroke-width="1px"></line><line x1="261.4452857142857" y1="0" x2="261.4452857142857" y2="5" style="visibility: inherit;" fill="rgb(0, 0, 0)" stroke="rgb(204, 204, 204)" stroke-width="1px"></line><line x1="348.59371428571427" y1="0" x2="348.59371428571427" y2="5" style="visibility: inherit;" fill="rgb(0, 0, 0)" stroke="rgb(204, 204, 204)" stroke-width="1px"></line><line x1="435.7421428571429" y1="0" x2="435.7421428571429" y2="5" style="visibility: inherit;" fill="rgb(0, 0, 0)" stroke="rgb(204, 204, 204)" stroke-width="1px"></line><line x1="522.8905714285714" y1="0" x2="522.8905714285714" y2="5" style="visibility: inherit;" fill="rgb(0, 0, 0)" stroke="rgb(204, 204, 204)" stroke-width="1px"></line><line x1="610.039" y1="0" x2="610.039" y2="5" style="visibility: inherit;" fill="rgb(0, 0, 0)" stroke="rgb(204, 204, 204)" stroke-width="1px"></line></g><g transform="translate(0, 8)"><text x="0" y="0" dx="0em" dy="0.95em" style="text-anchor: middle; visibility: hidden; font-family: &quot;Helvetica Neue&quot;, sans-serif; font-size: 12px; font-weight: 200;" fill="rgb(50, 49, 63)" stroke="none" stroke-width="1px">-5</text><text x="87.14842857142857" y="0" dx="0em" dy="0.95em" style="text-anchor: middle; visibility: inherit; font-family: &quot;Helvetica Neue&quot;, sans-serif; font-size: 12px; font-weight: 200;" fill="rgb(50, 49, 63)" stroke="none" stroke-width="1px">0</text><text x="174.29685714285714" y="0" dx="0em" dy="0.95em" style="text-anchor: middle; visibility: inherit; font-family: &quot;Helvetica Neue&quot;, sans-serif; font-size: 12px; font-weight: 200;" fill="rgb(50, 49, 63)" stroke="none" stroke-width="1px">5</text><text x="261.4452857142857" y="0" dx="0em" dy="0.95em" style="text-anchor: middle; visibility: inherit; font-family: &quot;Helvetica Neue&quot;, sans-serif; font-size: 12px; font-weight: 200;" fill="rgb(50, 49, 63)" stroke="none" stroke-width="1px">10</text><text x="348.59371428571427" y="0" dx="0em" dy="0.95em" style="text-anchor: middle; visibility: inherit; font-family: &quot;Helvetica Neue&quot;, sans-serif; font-size: 12px; font-weight: 200;" fill="rgb(50, 49, 63)" stroke="none" stroke-width="1px">15</text><text x="435.7421428571429" y="0" dx="0em" dy="0.95em" style="text-anchor: middle; visibility: inherit; font-family: &quot;Helvetica Neue&quot;, sans-serif; font-size: 12px; font-weight: 200;" fill="rgb(50, 49, 63)" stroke="none" stroke-width="1px">20</text><text x="522.8905714285714" y="0" dx="0em" dy="0.95em" style="text-anchor: middle; visibility: inherit; font-family: &quot;Helvetica Neue&quot;, sans-serif; font-size: 12px; font-weight: 200;" fill="rgb(50, 49, 63)" stroke="none" stroke-width="1px">25</text><text x="610.039" y="0" dx="0em" dy="0.95em" style="text-anchor: middle; visibility: hidden; font-family: &quot;Helvetica Neue&quot;, sans-serif; font-size: 12px; font-weight: 200;" fill="rgb(50, 49, 63)" stroke="none" stroke-width="1px">30</text></g><line x1="0" y1="0" x2="610.039" y2="0" fill="rgb(0, 0, 0)" stroke="rgb(204, 204, 204)" stroke-width="1px"></line></g></g></g></g></svg>