<svg viewBox="0 0 642.5390625 399.984375" xmlns="http://www.w3.org/2000/svg"><g><g><g><g><g><line x1="70" y1="377.984" x2="65" y2="377.984" style="visibility: inherit;" fill="rgb(0, 0, 0)" stroke="rgb(204, 204, 204)" stroke-width="1px"></line><line x1="70" y1="335.98577777777774" x2="65" y2="335.98577777777774" style="visibility: inherit;" fill="rgb(0, 0, 0)" stroke="rgb(204, 204, 204)" stroke-width="1px"></line><line x1="70" y1="293.98755555555556" x2="65" y2="293.98755555555556" style="visibility: inherit;" fill="rgb(0, 0, 0)" stroke="rgb(204, 204, 204)" stroke-width="1px"></line><line x1="70" y1="251.98933333333332" x2="65" y2="251.98933333333332" style="visibility: inherit;" fill="rgb(0, 0, 0)" stroke="rgb(204, 204, 204)" stroke-width="1px"></line><line x1="70" y1="209.9911111111111" x2="65" y2="209.9911111111111" style="visibility: inherit;" fill="rgb(0, 0, 0)" stroke="rgb(204, 204, 204)" stroke-width="1px"></line><line x1="70" y1="167.99288888888887" x2="65" y2="167.99288888888887" style="visibility: inherit;" fill="rgb(0, 0, 0)" stroke="rgb(204, 204, 204)" stroke-width="1px"></line><line x1="70" y1="125.99466666666666" x2="65" y2="125.99466666666666" style="visibility: inherit;" fill="rgb(0, 0, 0)" stroke="rgb(204, 204, 204)" stroke-width="1px"></line><line x1="70" y1="83.99644444444442" x2="65" y2="83.99644444444442" style="visibility: inherit;" fill="rgb(0, 0, 0)" stroke="rgb(204, 204, 204)" stroke-width="1px"></line><line x1="70" y1="41.99822222222224" x2="65" y2="41.99822222222224" style="visibility: inherit;" fill="rgb(0, 0, 0)" stroke="rgb(204, 204, 204)" stroke-width="1px"></line><line x1="70" y1="0" x2="65" y2="0" style="visibility: inherit;" fill="rgb(0, 0, 0)" stroke="rgb(204, 204, 204)" stroke-width="1px"></line></g><g transform="translate(60, 0)"><text x="0" y="377.984" dx="0em" dy="0.3em" style="text-anchor: end; visibility: hidden; font-family: &quot;Helvetica Neue&quot;, sans-serif; font-size: 12px; font-weight: 200;" fill="rgb(50, 49, 63)" stroke="none" stroke-width="1px">0.7</text><text x="0" y="335.98577777777774" dx="0em" dy="0.3em" style="text-anchor: end; visibility: inherit; font-family: &quot;Helvetica Neue&quot;, sans-serif; font-size: 12px; font-weight: 200;" fill="rgb(50, 49, 63)" stroke="none" stroke-width="1px">0.705</text><text x="0" y="293.98755555555556" dx="0em" dy="0.3em" style="text-anchor: end; visibility: inherit; font-family: &quot;Helvetica Neue&quot;, sans-serif; font-size: 12px; font-weight: 200;" fill="rgb(50, 49, 63)" stroke="none" stroke-width="1px">0.71</text><text x="0" y="251.98933333333332" dx="0em" dy="0.3em" style="text-anchor: end; visibility: inherit; font-family: &quot;Helvetica Neue&quot;, sans-serif; font-size: 12px; font-weight: 200;" fill="rgb(50, 49, 63)" stroke="none" stroke-width="1px">0.715</text><text x="0" y="209.9911111111111" dx="0em" dy="0.3em" style="text-anchor: end; visibility: inherit; font-family: &quot;Helvetica Neue&quot;, sans-serif; font-size: 12px; font-weight: 200;" fill="rgb(50, 49, 63)" stroke="none" stroke-width="1px">0.72</text><text x="0" y="167.99288888888887" dx="0em" dy="0.3em" style="text-anchor: end; visibility: inherit; font-family: &quot;Helvetica Neue&quot;, sans-serif; font-size: 12px; font-weight: 200;" fill="rgb(50, 49, 63)" stroke="none" stroke-width="1px">0.725</text><text x="0" y="125.99466666666666" dx="0em" dy="0.3em" style="text-anchor: end; visibility: inherit; font-family: &quot;Helvetica Neue&quot;, sans-serif; font-size: 12px; font-weight: 200;" fill="rgb(50, 49, 63)" stroke="none" stroke-width="1px">0.73</text><text x="0" y="83.99644444444442" dx="0em" dy="0.3em" style="text-anchor: end; visibility: inherit; font-family: &quot;Helvetica Neue&quot;, sans-serif; font-size: 12px; font-weight: 200;" fill="rgb(50, 49, 63)" stroke="none" stroke-width="1px">0.735</text><text x="0" y="41.99822222222224" dx="0em" dy="0.3em" style="text-anchor: end; visibility: inherit; font-family: &quot;Helvetica Neue&quot;, sans-serif; font-size: 12px; font-weight: 200;" fill="rgb(50, 49, 63)" stroke="none" stroke-width="1px">0.74</text><text x="0" y="0" dx="0em" dy="0.3em" style="text-anchor: end; visibility: hidden; font-family: &quot;Helvetica Neue&quot;, sans-serif; font-size: 12px; font-weight: 200;" fill="rgb(50, 49, 63)" stroke="none" stroke-width="1px">0.745</text></g><line x1="70" y1="0" x2="70" y2="377.984" fill="rgb(0, 0, 0)" stroke="rgb(204, 204, 204)" stroke-width="1px"></line></g></g><g transform="translate(70, 0)" clip-path="url(#clip_0)"><clipPath id="clip_0"><rect width="572" height="377"></rect></clipPath><g><g><g><line x1="0" y1="0" x2="0" y2="377.984" fill="rgb(0, 0, 0)" stroke="rgb(60, 60, 60)" stroke-width="1px" opacity="0.25"></line><line x1="63.61544444444444" y1="0" x2="63.61544444444444" y2="377.984" fill="rgb(0, 0, 0)" stroke="rgb(60, 60, 60)" stroke-width="1px" opacity="0.25"></line><line x1="127.23088888888888" y1="0" x2="127.23088888888888" y2="377.984" fill="rgb(0, 0, 0)" stroke="rgb(60, 60, 60)" stroke-width="1px" opacity="0.25"></line><line x1="190.84633333333332" y1="0" x2="190.84633333333332" y2="377.984" fill="rgb(0, 0, 0)" stroke="rgb(60, 60, 60)" stroke-width="1px" opacity="0.25"></line><line x1="254.46177777777777" y1="0" x2="254.46177777777777" y2="377.984" fill="rgb(0, 0, 0)" stroke="rgb(60, 60, 60)" stroke-width="1px" opacity="0.25"></line><line x1="318.07722222222225" y1="0" x2="318.07722222222225" y2="377.984" fill="rgb(0, 0, 0)" stroke="rgb(60, 60, 60)" stroke-width="1px" opacity="0.25"></line><line x1="381.69266666666664" y1="0" x2="381.69266666666664" y2="377.984" fill="rgb(0, 0, 0)" stroke="rgb(60, 60, 60)" stroke-width="1px" opacity="0.25"></line><line x1="445.3081111111111" y1="0" x2="445.3081111111111" y2="377.984" fill="rgb(0, 0, 0)" stroke="rgb(60, 60, 60)" stroke-width="1px" opacity="0.25"></line><line x1="508.92355555555554" y1="0" x2="508.92355555555554" y2="377.984" fill="rgb(0, 0, 0)" stroke="rgb(60, 60, 60)" stroke-width="1px" opacity="0.25"></line><line x1="572.539" y1="0" x2="572.539" y2="377.984" fill="rgb(0, 0, 0)" stroke="rgb(60, 60, 60)" stroke-width="1px" opacity="0.25"></line></g><g><line x1="0" y1="377.984" x2="572.539" y2="377.984" fill="rgb(0, 0, 0)" stroke="rgb(60, 60, 60)" stroke-width="1px" opacity="0.25"></line><line x1="0" y1="335.98577777777774" x2="572.539" y2="335.98577777777774" fill="rgb(0, 0, 0)" stroke="rgb(60, 60, 60)" stroke-width="1px" opacity="0.25"></line><line x1="0" y1="293.98755555555556" x2="572.539" y2="293.98755555555556" fill="rgb(0, 0, 0)" stroke="rgb(60, 60, 60)" stroke-width="1px" opacity="0.25"></line><line x1="0" y1="251.98933333333332" x2="572.539" y2="251.98933333333332" fill="rgb(0, 0, 0)" stroke="rgb(60, 60, 60)" stroke-width="1px" opacity="0.25"></line><line x1="0" y1="209.9911111111111" x2="572.539" y2="209.9911111111111" fill="rgb(0, 0, 0)" stroke="rgb(60, 60, 60)" stroke-width="1px" opacity="0.25"></line><line x1="0" y1="167.99288888888887" x2="572.539" y2="167.99288888888887" fill="rgb(0, 0, 0)" stroke="rgb(60, 60, 60)" stroke-width="1px" opacity="0.25"></line><line x1="0" y1="125.99466666666666" x2="572.539" y2="125.99466666666666" fill="rgb(0, 0, 0)" stroke="rgb(60, 60, 60)" stroke-width="1px" opacity="0.25"></line><line x1="0" y1="83.99644444444442" x2="572.539" y2="83.99644444444442" fill="rgb(0, 0, 0)" stroke="rgb(60, 60, 60)" stroke-width="1px" opacity="0.25"></line><line x1="0" y1="41.99822222222224" x2="572.539" y2="41.99822222222224" fill="rgb(0, 0, 0)" stroke="rgb(60, 60, 60)" stroke-width="1px" opacity="0.25"></line><line x1="0" y1="0" x2="572.539" y2="0" fill="rgb(0, 0, 0)" stroke="rgb(60, 60, 60)" stroke-width="1px" opacity="0.25"></line></g></g></g><g><g><line x1="0" y1="6257.735111111106" x2="572.539" y2="6257.735111111106" fill="rgb(0, 0, 0)" stroke="rgb(153, 153, 153)" stroke-width="1.5px"></line></g></g><g><g><line x1="63.61544444444444" y1="0" x2="63.61544444444444" y2="377.984" fill="rgb(0, 0, 0)" stroke="rgb(153, 153, 153)" stroke-width="1.5px"></line></g></g><g><g><g><g><g><path stroke="rgb(0, 119, 187)" stroke-width="2px" d="M63.61544444444444,120.3951493598098L76.33853333333333,116.89523826344885L89.06162222222223,115.82383690741972L101.78471111111111,114.06431277700187L114.5078,113.16684557654577L127.23088888888888,113.85010199986681L139.95397777777777,111.93461331649502L152.67706666666666,111.9592263542707L165.40015555555553,111.97372690455234L178.12324444444445,109.72876356607895L190.84633333333332,108.39050483454929L203.56942222222222,106.4683492252625L216.2925111111111,105.3177371949024L229.0156,104.62833250963399L241.73868888888887,104.21503561869957L254.46177777777777,103.96718188786883L267.18486666666666,103.81851440719379L279.90795555555553,101.48915941236328L292.6310444444444,96.73167856198666L305.3541333333333,93.87737559564977L318.07722222222225,93.28475659270549L330.80031111111106,89.56933476723361L343.5234,85.10015217881079L356.2464888888889,82.41866521433508L368.9695777777778,79.68990656434653L381.69266666666664,78.05265633944288L394.41575555555556,77.07030799192518L407.13884444444443,76.48089962688755L419.8619333333333,76.12725483951453L432.5850222222222,75.91506805048493L445.3081111111111,75.78775600708866L458.0312,75.71136879185838L470.7542888888889,73.42559325797879L483.47737777777775,73.17419972199832L496.20046666666667,73.02336360502073L508.92355555555554,71.81279024253985L521.6466444444444,69.96657480684024L534.3697333333333,67.73877386617454L547.0928222222223,68.6420364137312L559.8159111111111,72.54380846640959" style="fill: none;" fill="none"></path></g><g><path stroke="rgb(255, 112, 67)" stroke-width="2px" d="M63.61544444444444,333.5737485690643L76.33853333333333,315.24403983391625L89.06162222222223,313.6026612582047L101.78471111111111,315.07902522412536L114.5078,317.3896699980736L127.23088888888888,322.6733283644538L139.95397777777777,320.7552231911651L152.67706666666666,299.4289464542328L165.40015555555553,304.27769275437953L178.12324444444445,302.0972863977348L190.84633333333332,292.38759031781893L203.56942222222222,290.18331937868027L216.2925111111111,294.85692323082134L229.0156,294.7819478837992L241.73868888888887,281.084451175736L254.46177777777777,271.1936010612013L267.18486666666666,265.9793425551698L279.90795555555553,277.21728511761125L292.6310444444444,277.73436225255864L305.3541333333333,275.88987857911115L318.07722222222225,281.9656259663198L330.80031111111106,266.21865424754145L343.5234,263.71338086366734L356.2464888888889,260.05558827765594L368.9695777777778,266.9585031229194L381.69266666666664,264.6361351545122L394.41575555555556,257.4969615842253L407.13884444444443,260.1563888131661L419.8619333333333,253.37263116001526L432.5850222222222,252.89349739705176L445.3081111111111,254.7606485014367L458.0312,246.5440703832391L470.7542888888889,255.2604547419785L483.47737777777775,255.2233646382877L496.20046666666667,255.67973946410382L508.92355555555554,260.26302667929616L521.6466444444444,250.32432702462893L534.3697333333333,243.64296368671273L547.0928222222223,238.43697270997862L559.8159111111111,236.98938026304944" style="fill: none;" fill="none"></path></g></g></g></g><g opacity="0.2"><g><g><g><path stroke="rgb(0, 119, 187)" stroke-width="2px" d="M63.61544444444444,120.3951493598089L76.33853333333333,114.79529160563135L89.06162222222223,114.79529160563135L101.78471111111111,111.99511239963095L114.5078,111.99511239963095L127.23088888888888,114.79529160563135L139.95397777777777,109.19543385145386L152.67706666666666,111.99511239963095L165.40015555555553,111.99511239963095L178.12324444444445,106.3952546454534L190.84633333333332,106.3952546454534L203.56942222222222,103.59557609727636L216.2925111111111,103.59557609727636L229.0156,103.59557609727636L241.73868888888887,103.59557609727636L254.46177777777777,103.59557609727636L267.18486666666666,103.59557609727636L279.90795555555553,97.99571834309882L292.6310444444444,89.59618204074422L305.3541333333333,89.59618204074422L318.07722222222225,92.39586058892132L330.80031111111106,83.99632428656673L343.5234,78.39646653238918L356.2464888888889,78.39646653238918L368.9695777777778,75.59678798421214L381.69266666666664,75.59678798421214L394.41575555555556,75.59678798421214L407.13884444444443,75.59678798421214L419.8619333333333,75.59678798421214L432.5850222222222,75.59678798421214L445.3081111111111,75.59678798421214L458.0312,75.59678798421214L470.7542888888889,69.9969302300346L483.47737777777775,72.79710943603504L496.20046666666667,72.79710943603504L508.92355555555554,69.9969302300346L521.6466444444444,67.19725168185755L534.3697333333333,64.3970724758571L547.0928222222223,69.9969302300346L559.8159111111111,78.39646653238918" style="fill: none;" fill="none"></path></g><g><path stroke="rgb(255, 112, 67)" stroke-width="2px" d="M63.61544444444444,333.5737485690643L76.33853333333333,304.24621459282736L89.06162222222223,312.0269378255205L101.78471111111111,316.81522924804653L114.5078,320.4064478149411L127.23088888888888,329.98253000216977L139.95397777777777,318.01230210367805L152.67706666666666,268.3350302395288L165.40015555555553,311.4286517266164L178.12324444444445,298.8596370713973L190.84633333333332,277.9111124267575L203.56942222222222,286.88890851508216L216.2925111111111,301.8520688815644L229.0156,294.66963174777527L241.73868888888887,260.55430700683564L254.46177777777777,256.36430168321374L267.18486666666666,258.16016129557266L279.90795555555553,294.0713456488712L292.6310444444444,278.50989918348495L305.3541333333333,273.1233216620548L318.07722222222225,291.0789138387041L330.80031111111106,242.59871483018637L343.5234,259.95552025010824L356.2464888888889,254.5689427286781L368.9695777777778,277.31282632785343L381.69266666666664,261.15259310573975L394.41575555555556,246.78821949598498L407.13884444444443,264.1455255737302L419.8619333333333,243.19700092909045L432.5850222222222,252.17479701741507L445.3081111111111,257.5613745388452L458.0312,234.2192048407658L470.7542888888889,268.3350302395288L483.47737777777775,255.16772948540554L496.20046666666667,256.36430168321374L508.92355555555554,267.1379573838973L521.6466444444444,235.4162776963973L534.3697333333333,233.62091874186174L547.0928222222223,230.62798627387127L559.8159111111111,234.81799159749323" style="fill: none;" fill="none"></path></g></g></g></g></g></g><g transform="translate(70, 377)" clip-path="url(#clip_1)"><clipPath id="clip_1"><rect width="572" height="21"></rect></clipPath><g><g><line x1="0" y1="0" x2="0" y2="5" style="visibility: inherit;" fill="rgb(0, 0, 0)" stroke="rgb(204, 204, 204)" stroke-width="1px"></line><line x1="63.61544444444444" y1="0" x2="63.61544444444444" y2="5" style="visibility: inherit;" fill="rgb(0, 0, 0)" stroke="rgb(204, 204, 204)" stroke-width="1px"></line><line x1="127.23088888888888" y1="0" x2="127.23088888888888" y2="5" style="visibility: inherit;" fill="rgb(0, 0, 0)" stroke="rgb(204, 204, 204)" stroke-width="1px"></line><line x1="190.84633333333332" y1="0" x2="190.84633333333332" y2="5" style="visibility: inherit;" fill="rgb(0, 0, 0)" stroke="rgb(204, 204, 204)" stroke-width="1px"></line><line x1="254.46177777777777" y1="0" x2="254.46177777777777" y2="5" style="visibility: inherit;" fill="rgb(0, 0, 0)" stroke="rgb(204, 204, 204)" stroke-width="1px"></line><line x1="318.07722222222225" y1="0" x2="318.07722222222225" y2="5" style="visibility: inherit;" fill="rgb(0, 0, 0)" stroke="rgb(204, 204, 204)" stroke-width="1px"></line><line x1="381.69266666666664" y1="0" x2="381.69266666666664" y2="5" style="visibility: inherit;" fill="rgb(0, 0, 0)" stroke="rgb(204, 204, 204)" stroke-width="1px"></line><line x1="445.3081111111111" y1="0" x2="445.3081111111111" y2="5" style="visibility: inherit;" fill="rgb(0, 0, 0)" stroke="rgb(204, 204, 204)" stroke-width="1px"></line><line x1="508.92355555555554" y1="0" x2="508.92355555555554" y2="5" style="visibility: inherit;" fill="rgb(0, 0, 0)" stroke="rgb(204, 204, 204)" stroke-width="1px"></line><line x1="572.539" y1="0" x2="572.539" y2="5" style="visibility: inherit;" fill="rgb(0, 0, 0)" stroke="rgb(204, 204, 204)" stroke-width="1px"></line></g><g transform="translate(0, 8)"><text x="0" y="0" dx="0em" dy="0.95em" style="text-anchor: middle; visibility: hidden; font-family: &quot;Helvetica Neue&quot;, sans-serif; font-size: 12px; font-weight: 200;" fill="rgb(50, 49, 63)" stroke="none" stroke-width="1px">-5</text><text x="63.61544444444444" y="0" dx="0em" dy="0.95em" style="text-anchor: middle; visibility: inherit; font-family: &quot;Helvetica Neue&quot;, sans-serif; font-size: 12px; font-weight: 200;" fill="rgb(50, 49, 63)" stroke="none" stroke-width="1px">0</text><text x="127.23088888888888" y="0" dx="0em" dy="0.95em" style="text-anchor: middle; visibility: inherit; font-family: &quot;Helvetica Neue&quot;, sans-serif; font-size: 12px; font-weight: 200;" fill="rgb(50, 49, 63)" stroke="none" stroke-width="1px">5</text><text x="190.84633333333332" y="0" dx="0em" dy="0.95em" style="text-anchor: middle; visibility: inherit; font-family: &quot;Helvetica Neue&quot;, sans-serif; font-size: 12px; font-weight: 200;" fill="rgb(50, 49, 63)" stroke="none" stroke-width="1px">10</text><text x="254.46177777777777" y="0" dx="0em" dy="0.95em" style="text-anchor: middle; visibility: inherit; font-family: &quot;Helvetica Neue&quot;, sans-serif; font-size: 12px; font-weight: 200;" fill="rgb(50, 49, 63)" stroke="none" stroke-width="1px">15</text><text x="318.07722222222225" y="0" dx="0em" dy="0.95em" style="text-anchor: middle; visibility: inherit; font-family: &quot;Helvetica Neue&quot;, sans-serif; font-size: 12px; font-weight: 200;" fill="rgb(50, 49, 63)" stroke="none" stroke-width="1px">20</text><text x="381.69266666666664" y="0" dx="0em" dy="0.95em" style="text-anchor: middle; visibility: inherit; font-family: &quot;Helvetica Neue&quot;, sans-serif; font-size: 12px; font-weight: 200;" fill="rgb(50, 49, 63)" stroke="none" stroke-width="1px">25</text><text x="445.3081111111111" y="0" dx="0em" dy="0.95em" style="text-anchor: middle; visibility: inherit; font-family: &quot;Helvetica Neue&quot;, sans-serif; font-size: 12px; font-weight: 200;" fill="rgb(50, 49, 63)" stroke="none" stroke-width="1px">30</text><text x="508.92355555555554" y="0" dx="0em" dy="0.95em" style="text-anchor: middle; visibility: inherit; font-family: &quot;Helvetica Neue&quot;, sans-serif; font-size: 12px; font-weight: 200;" fill="rgb(50, 49, 63)" stroke="none" stroke-width="1px">35</text><text x="572.539" y="0" dx="0em" dy="0.95em" style="text-anchor: middle; visibility: hidden; font-family: &quot;Helvetica Neue&quot;, sans-serif; font-size: 12px; font-weight: 200;" fill="rgb(50, 49, 63)" stroke="none" stroke-width="1px">40</text></g><line x1="0" y1="0" x2="572.539" y2="0" fill="rgb(0, 0, 0)" stroke="rgb(204, 204, 204)" stroke-width="1px"></line></g></g></g></g></svg>